<svg xmlns="http://www.w3.org/2000/svg" viewBox="0 0 960 960"><defs><style>.cls-1{fill:none;}.cls-2{fill:#9b1d53;}.cls-3{fill:#fff;}</style></defs><title>Battery-Raspberry-80</title><g id="Layer_2" data-name="Layer 2"><rect class="cls-1" x="146.43" y="179.6" width="350.93" height="108.99"/><path class="cls-2" d="M287.68,443c0,9.41,13.74,19,34.21,19.28,20.9.15,34.24-7.71,34.31-17.42.08-11-19-22.67-34.43-22.5C304.4,421.91,287.72,435.26,287.68,443Z"/><path class="cls-2" d="M266.88,571.69c-12.38-14.36-28.46-22.92-38.86-16.58-7,5.3-8.24,23.32,1.67,41,14.7,21.11,35.37,23.23,43.89,18.09,9-6.73,4.08-29.56-6.7-42.55Z"/><path class="cls-2" d="M222.77,486.91c-28,16-23.13,51.54-8,63.68C228.46,556.69,239.64,482.39,222.77,486.91Z"/><path class="cls-2" d="M280,429.73c-29.11-4.92-53.33,12.38-52.35,43.95C228.56,485.77,290.68,431.53,280,429.73Z"/><path class="cls-2" d="M425.72,549.68c15.1-12.14,20-47.71-8-63.69C400.82,481.47,412,555.77,425.72,549.68Z"/><path class="cls-2" d="M360.38,430.65c-10.72,1.8,51.4,56,52.35,43.94C413.71,443,389.49,425.74,360.38,430.65Z"/><path class="cls-2" d="M340.69,394.64c18.49-15.26,40.58-26.35,65.07-34.67C374.28,376.19,356,389.32,346,400.5c5.13,20.58,31.92,21.52,41.71,20.94-2-.93-3.68-2.05-4.27-3.77,2.46-1.75,11.17-.18,17.25-3.6-2.34-.48-3.43-1-4.52-2.68,5.75-1.83,11.94-3.41,15.58-6.45-2,0-3.8.44-6.37-1.34,5.15-2.77,10.64-5,14.91-9.21-2.66-.07-5.53,0-6.37-1a57.46,57.46,0,0,0,12-9.72c-3.73.45-5.3.06-6.2-.59,3.56-3.65,8.07-6.73,10.22-11.22-2.77,1-5.3,1.32-7.12-.08,1.21-2.73,6.4-4.34,9.38-10.72-2.91.28-6,.63-6.62,0,1.35-5.51,3.67-8.6,5.95-11.81-6.23-.09-15.67,0-15.24-.5l3.85-3.94c-6.09-1.64-12.31.26-16.83,1.67-2-1.6,0-3.63,2.51-5.7a61.19,61.19,0,0,0-14.07,3.52c-2.26-2,1.47-4.08,3.27-6.11-8,1.52-11.38,3.65-14.74,5.78-2.44-2.34-.14-4.33,1.51-6.37-6,2.23-9.13,5.11-12.4,8-1.11-1.49-2.81-2.59-.75-6.2a31.44,31.44,0,0,0-9.88,8.63c-2.65-1.69-1.58-4-1.59-6.11-4.45,3.62-7.27,7.47-10.72,11.22-.7-.51-1.3-2.22-1.84-4.94C333.93,358.44,318.94,384.36,340.69,394.64Z"/><path class="cls-2" d="M256.83,421.44c9.79.58,36.58-.36,41.71-20.94-10-11.18-28.31-24.3-59.76-40.52,24.47,8.32,46.55,19.41,65,34.66,21.74-10.28,6.75-36.19-3.85-46.48-.54,2.72-1.15,4.44-1.84,4.94-3.45-3.76-6.27-7.61-10.72-11.22,0,2.12,1.06,4.43-1.59,6.11a31.43,31.43,0,0,0-9.88-8.63c2.06,3.61.35,4.7-.75,6.2-3.27-2.84-6.37-5.73-12.4-8,1.65,2,3.95,4,1.51,6.37-3.36-2.13-6.75-4.26-14.74-5.78,1.8,2,5.52,4.08,3.27,6.11a61.21,61.21,0,0,0-14.07-3.52c2.48,2.07,4.54,4.09,2.51,5.7-4.52-1.41-10.75-3.31-16.83-1.67l3.85,3.94c.43.53-9,.41-15.24.5,2.27,3.21,4.59,6.3,5.94,11.81-.62.63-3.71.28-6.62,0,3,6.38,8.17,8,9.38,10.72-1.82,1.4-4.35,1-7.12.08,2.15,4.49,6.66,7.57,10.22,11.22-.9.65-2.47,1-6.2.59a57.46,57.46,0,0,0,12,9.72c-.83,1-3.7.94-6.37,1,4.27,4.24,9.76,6.44,14.91,9.21-2.57,1.78-4.4,1.36-6.37,1.34,3.64,3,9.83,4.62,15.58,6.45-1.09,1.72-2.19,2.2-4.52,2.68,6.08,3.42,14.8,1.86,17.25,3.6C260.51,419.39,258.84,420.51,256.83,421.44Z"/><path class="cls-2" d="M414.19,550.34c-9.94-7.69-24.22,2.15-37.57,17.23h0C365,581.24,358.46,606.17,367,614.2c8.14,6.24,30,5.36,46.13-17C424.81,582.13,420.88,557,414.19,550.34Z"/><path class="cls-2" d="M387,534.9c15.62-10.24,18.44-33.44,6.29-51.82s-34.66-25-50.29-14.75-18.44,33.44-6.29,51.82S371.39,545.14,387,534.9Z"/><path class="cls-2" d="M705.12,701.09c0,48.89-30.07,94.24-78.47,118.31l-11.82,5.88C565.21,850,504.48,848.61,456.37,821.6a146.09,146.09,0,0,1-47.72-42.5h79.92a67.28,67.28,0,0,0,67.28-67.28V188.39a67.28,67.28,0,0,0-67.28-67.28H453.5V88.38A40.37,40.37,0,0,0,413.12,48H230.68A40.38,40.38,0,0,0,190.3,88.38v32.73H155.23a67.28,67.28,0,0,0-67.28,67.28V711.82a67.28,67.28,0,0,0,67.28,67.28h175.1C347.72,821.28,379.73,858,422.51,882c35.6,20,76.08,30,116.62,30a239.55,239.55,0,0,0,106.56-24.73l11.8-5.87c72.09-35.89,116.87-105,116.87-180.31v-251H705.12ZM146.43,288.59v-109H497.36v109ZM363.18,642.38c-12.91,13.32-26.9,18.39-41,18.39h-.62c-14.07,0-28.06-5.07-41-18.39-13.7-4.81-23.82-11.68-33.33-18.92-6.49-1.62-31.08-15.31-34.85-44.56-2.52-7.26-5.35-13.82-7-22.95-25.83-29.17-9.31-65.05,9-76.22l2.35-4.18c-.09-30,13.64-42.29,29.65-51.6-4.84-1.3-9.85-2.36-11.22-8.54-8.32-2.16-10.07-6.07-10.9-10.22-2.18-1.47-9.46-5.61-8.7-12.73-4.08-2.86-6.35-6.53-5.2-11.73-4.38-4.86-5.54-8.87-3.68-12.57-5.26-6.64-2.93-10.08-.68-13.57-3.94-7.26-.46-15,10.55-13.74,4.38-6.54,13.94-5.05,15.42-5,1.65-2.1,3.84-3.9,10.55-3,4.35-3.94,9.21-3.27,14.23-1.33a9.29,9.29,0,0,1,5.53-2.29h0c3.2-.1,5.92,1.84,8.87,2.78,7.22-2.36,8.86.87,12.41,2.19,7.87-1.66,10.26,2,14,5.78l4.39-.09c11.86,7,17.74,21.23,19.83,28.55,2.09-7.32,8-21.56,19.85-28.55l4.39.09c3.77-3.82,6.16-7.44,14-5.78,3.54-1.31,5.19-4.54,12.41-2.19,4.5-1.42,8.45-5.19,14.4-.49,5-1.93,9.88-2.61,14.23,1.33,6.72-.87,8.9.93,10.55,3,1.48,0,11-1.52,15.42,5,11-1.3,14.5,6.48,10.56,13.74,2.25,3.48,4.58,6.92-.68,13.56,1.86,3.7.71,7.71-3.68,12.57,1.16,5.2-1.12,8.87-5.2,11.73.76,7.11-6.52,11.25-8.7,12.73-.84,4.14-2.58,8.06-10.9,10.22-1.37,6.18-6.37,7.25-11.22,8.54,16,9.31,29.74,21.55,29.65,51.6l2.35,4.18c18.36,11.16,34.88,47.05,9,76.22-1.69,9.13-4.52,15.69-7,22.95-3.77,29.25-28.36,42.94-34.85,44.56C387,630.7,376.88,637.57,363.18,642.38Z"/><path class="cls-2" d="M307.14,522c12.15-18.38,9.33-41.59-6.29-51.82s-38.14-3.63-50.29,14.75-9.33,41.59,6.29,51.82S295,540.38,307.14,522Z"/><path class="cls-2" d="M322.47,534.55c-20.82.1-37.62,15.75-37.51,35,0,.12,0,.24,0,.37.11,19.2,17.08,34.69,37.9,34.58s37.61-15.75,37.51-35v-.37C360.26,549.93,343.29,534.45,322.47,534.55Z"/><path class="cls-2" d="M322.83,615.25c-15.05-.38-38.14,6-37.86,14.24-.24,5.6,18.12,21.75,36.85,20.94,18.08.31,36.77-15.81,36.52-22.95C358.3,620.13,338,614.59,322.83,615.25Z"/><path class="cls-2" d="M855.24,257.44h-31.1V175.58a16.82,16.82,0,0,0-16.82-16.82H773.7a16.82,16.82,0,0,0-16.82,16.82v81.86h-32V175.58a16.82,16.82,0,0,0-16.82-16.82H674.48a16.82,16.82,0,0,0-16.82,16.82v81.86H624.26a16.82,16.82,0,0,0-16.82,16.82v33.63a16.82,16.82,0,0,0,16.82,16.82h17.47v72a53.38,53.38,0,0,0,53.38,53.38h89.29a53.38,53.38,0,0,0,53.38-53.38v-72h17.47a16.82,16.82,0,0,0,16.82-16.82V274.26A16.82,16.82,0,0,0,855.24,257.44Z"/><polygon class="cls-3" points="262.36 329.2 262.36 329.2 262.36 329.2 262.36 329.2"/></g></svg>