<svg xmlns="http://www.w3.org/2000/svg" viewBox="0 0 960 960"><defs><style>.cls-1{fill:#9b1d53;}</style></defs><title>BatteryBattery-PiJuice-0-0</title><g id="Layer_2" data-name="Layer 2"><path class="cls-1" d="M705.12,701.09c0,48.89-30.07,94.24-78.47,118.31l-11.82,5.88C565.21,850,504.48,848.61,456.37,821.6a146.09,146.09,0,0,1-47.72-42.5h79.92a67.28,67.28,0,0,0,67.28-67.28V188.39a67.28,67.28,0,0,0-67.28-67.28H453.5V88.37A40.38,40.38,0,0,0,413.12,48H230.68A40.37,40.37,0,0,0,190.3,88.37v32.74H155.23a67.28,67.28,0,0,0-67.28,67.28V711.82a67.28,67.28,0,0,0,67.28,67.28h175.1C347.72,821.28,379.73,858,422.51,882c35.6,20,76.08,30,116.62,30a239.55,239.55,0,0,0,106.56-24.73l11.8-5.87c72.09-35.89,116.87-105,116.87-180.31v-251H705.12ZM146.43,720.62v-541H497.36v541Z"/><path class="cls-1" d="M855.24,257.44h-31.1V175.58a16.82,16.82,0,0,0-16.82-16.81H773.7a16.82,16.82,0,0,0-16.82,16.81v81.86h-32V175.58a16.82,16.82,0,0,0-16.82-16.81H674.48a16.82,16.82,0,0,0-16.82,16.81v81.86H624.26a16.82,16.82,0,0,0-16.82,16.82v33.63a16.82,16.82,0,0,0,16.82,16.82h17.47v72a53.38,53.38,0,0,0,53.38,53.38h89.29a53.38,53.38,0,0,0,53.38-53.38v-72h17.47a16.82,16.82,0,0,0,16.82-16.82V274.26A16.82,16.82,0,0,0,855.24,257.44Z"/><path class="cls-1" d="M208.38,487.87a45.83,45.83,0,0,1,13.45-32.46,45.83,45.83,0,0,0-13.51,32.53s0,.07-.14.2c0,1.62.14,3.31.27,4.94l.2-.23a39.62,39.62,0,0,1-.27-4.91Z"/><path class="cls-1" d="M291,443.13a46.54,46.54,0,0,0-3.41,3.42h0A46.33,46.33,0,0,1,291,443.13Z"/><path class="cls-1" d="M215.55,486.28c-.29.23-.61.45-.89.69C214.94,486.73,215.25,486.51,215.55,486.28Z"/><path class="cls-1" d="M408,564.2l.07.2a4.8,4.8,0,0,1,.07.95v-.14c0-.34-.07-.61-.07-.95v-.14a5.66,5.66,0,0,1,1.52-4.06A5.38,5.38,0,0,0,408,564.2Z"/><path class="cls-1" d="M410.14,524.72c-20.55,7.17-50.1-.68-85.46-22.65C285.86,478,254,470,229.95,478.4a49.74,49.74,0,0,0-12.88,6.71,50,50,0,0,1,12.82-6.64c24.07-8.38,55.92-.41,94.73,23.66,35.36,22,64.91,29.82,85.46,22.65a38,38,0,0,0,18.83-14A38.14,38.14,0,0,1,410.14,524.72Z"/><path class="cls-1" d="M319.06,511.19c-35.36-22-64.91-29.82-85.46-22.65a37.93,37.93,0,0,0-19,14.21,38,38,0,0,1,18.91-14.14c20.55-7.17,50.1.68,85.46,22.65,38.81,24.07,70.66,32,94.73,23.66a48.93,48.93,0,0,0,19.74-12.71,46.27,46.27,0,0,1-9.92,25.85,46.37,46.37,0,0,0,10-25.92,48.93,48.93,0,0,1-19.74,12.71C389.72,543.24,357.87,535.26,319.06,511.19Z"/><path class="cls-1" d="M404.65,584.84a46.28,46.28,0,0,1-4.39,8.13A46,46,0,0,0,404.65,584.84Z"/><path class="cls-1" d="M451.72,487.93a62.29,62.29,0,0,0-87.83-56.73,62.35,62.35,0,0,0-42-16.29h-.07c.14-1,.2-2.1.27-3.11.34-3.65.61-7.37.88-11l.41-5.54.34-5.54c.2-3.25.34-6.49.54-9.74l3.45-4.26,4-5c1.35-1.62,2.64-3.31,4-5l3.92-5a3.79,3.79,0,0,0,.88-2.37V358l.2-7.64c.07-2.5.14-5.07.2-7.64l.14-7.64.14-7.64a5.21,5.21,0,0,0-5.14-5.27h-.14c-2.5,0-5-.07-7.51-.07h-7.51c-5,0-10,.07-15,.07h-.07a5.71,5.71,0,0,0-2.3.54,5.38,5.38,0,0,0-2.43,7.17c1.28,2.57,2.57,5.07,3.85,7.64s2.57,5.14,3.85,7.64l3.92,7.57c1,1.89,2,3.72,2.91,5.54-.54,1-1,2-1.49,3l-2.7,5.27c-1.76,3.52-3.52,7.1-5.27,10.62l-.2.34a2.87,2.87,0,0,0-.2,2.37c1.15,3.65,2.3,7.3,3.52,10.89l1.83,5.41,1.83,5.41c1.28,3.65,2.57,7.23,3.85,10.82.34.88.68,1.83,1,2.7a62.29,62.29,0,0,0-37.86,16.16,62.29,62.29,0,0,0-87.83,56.66,59.55,59.55,0,0,0,3,19.47,61.9,61.9,0,0,0,24.27,62.27A62.26,62.26,0,0,0,268.49,628a62.19,62.19,0,0,0,106.69,0,62.25,62.25,0,0,0,49.09-58.42,61.76,61.76,0,0,0,25.49-50.17,65.78,65.78,0,0,0-1.15-12A62.78,62.78,0,0,0,451.72,487.93ZM292.83,631.82a46,46,0,0,0,16.43,8.52A45.41,45.41,0,0,1,292.83,631.82Zm29.07,10.28h0Zm101.64-94a46.05,46.05,0,0,1-12.8,11.14,5.4,5.4,0,0,0-1.12.87,5.66,5.66,0,0,0-1.52,4.06v.14c0,.34.07.61.07.95v2.1A45.94,45.94,0,0,1,400.26,593a46.15,46.15,0,0,1-25.08,18.49c-.07,0-.2.07-.27.07-.47.14-1,.27-1.56.41-.2.07-.41.07-.61.14-.47.07-.88.2-1.35.27-.27.07-.54.07-.81.14l-1.28.2-1.55.2a5.31,5.31,0,0,0-4.26,3c-.07.07-.07.2-.14.27a5.78,5.78,0,0,0-.36.59,46,46,0,0,1-13.16,15.84c-.14.07-.27.2-.41.27a5.83,5.83,0,0,0-.68.47,11.51,11.51,0,0,1-.95.68c-.07,0-.07.07-.14.07a45.51,45.51,0,0,1-19,7.44.61.61,0,0,1-.34.07c-.27.07-.61.07-.95.14s-.47.07-.68.07a1.32,1.32,0,0,1-.54.07c-.34,0-.74.07-1.08.07h-.2c-.47,0-.95.07-1.42.07h-1.62a52.53,52.53,0,0,1-6.56-.47h-.07c-.47-.07-1-.2-1.49-.27-.2-.07-.41-.07-.61-.14l-.88-.2c-.34-.07-.74-.2-1.08-.27a.86.86,0,0,1-.41-.07l-1.42-.41h-.07a45.41,45.41,0,0,1-16.43-8.52c-.07,0-.07-.07-.14-.07-.34-.27-.61-.54-.95-.81-.07-.14-.2-.2-.34-.34s-.47-.41-.68-.61a6.1,6.1,0,0,1-.68-.61l-.34-.34a12.45,12.45,0,0,1-.95-.95l-.07-.07a46,46,0,0,1-8.32-12,5.41,5.41,0,0,0-4.26-3c-1.42-.14-2.84-.41-4.26-.68h-.07c-.68-.14-1.28-.34-2-.47-.14,0-.2-.07-.27-.07a12.35,12.35,0,0,1-1.69-.47,1.6,1.6,0,0,1-.54-.14,9.87,9.87,0,0,0-1.28-.47c-.27-.14-.61-.2-.88-.34s-.61-.2-.88-.34-.81-.34-1.22-.54l-.47-.2a17.31,17.31,0,0,1-1.62-.74,45.84,45.84,0,0,1-11.46-8.15A45.83,45.83,0,0,0,261,608.42a46.46,46.46,0,0,1-20-19.47.25.25,0,0,0-.07-.2c-.27-.47-.47-.95-.74-1.42s-.47-.95-.68-1.49c0-.07-.07-.07-.07-.14a45.9,45.9,0,0,1-3.85-18.53v-.34a17.18,17.18,0,0,1,0-2.64,5.37,5.37,0,0,0-2.64-5c-.2-.14-.47-.27-.68-.41q-2-1.21-3.88-2.61a37.36,37.36,0,0,1-3.29-2.73,38.17,38.17,0,0,0,3.29,2.73,36.72,36.72,0,0,0,3.34,2.21,44.77,44.77,0,0,1-6.63-5,46.21,46.21,0,0,1-15-33.91v0a.16.16,0,0,0,0,0s0,0,0,0c0-.92.1-1.86.16-2.8a44.85,44.85,0,0,1,.57-4.92c.16-.94.27-1.89.49-2.83.07-.2.07-.41.14-.61a30.46,30.46,0,0,1,3.13-5.54,37.93,37.93,0,0,1,19-14.21c20.55-7.17,50.1.68,85.46,22.65,38.81,24.07,70.66,32,94.73,23.66a48.93,48.93,0,0,0,19.74-12.71A46.37,46.37,0,0,1,423.54,548.06Zm9.11-44.1c-.14.27-.27.61-.41.88a30.11,30.11,0,0,1-3.35,5.91,38,38,0,0,1-18.83,14c-20.55,7.17-50.1-.68-85.46-22.65-38.81-24.07-70.66-32-94.73-23.66a50,50,0,0,0-12.82,6.64c-.53.38-1,.78-1.52,1.17-.29.23-.6.45-.89.69a48.72,48.72,0,0,0-6,5.91v0l-.2.23c-.14-1.62-.27-3.31-.27-4.94.14-.14.14-.2.14-.2a46,46,0,0,1,69.1-39.82,8.13,8.13,0,0,0,10.14-1.55A46.49,46.49,0,0,1,322,431.14a46,46,0,0,1,34.35,15.42,8.06,8.06,0,0,0,10.14,1.62A45.51,45.51,0,0,1,389.51,442a46.08,46.08,0,0,1,43.14,62Z"/><path class="cls-1" d="M208.65,492.85a.09.09,0,0,1,0,0,49.29,49.29,0,0,1,6-5.9A48,48,0,0,0,208.65,492.85Z"/><path class="cls-1" d="M217.06,485.11c-.53.38-1,.78-1.52,1.17C216,485.89,216.53,485.49,217.06,485.11Z"/><path class="cls-1" d="M389.51,442a45.51,45.51,0,0,0-23.06,6.22,8.06,8.06,0,0,1-10.14-1.62A46,46,0,0,0,291,443.13a46,46,0,0,1,65.28,3.49,8.06,8.06,0,0,0,10.14,1.62,45.95,45.95,0,0,1,69,39.76,46.27,46.27,0,0,1-2.84,16c-.14.27-.27.54-.41.88a29.78,29.78,0,0,1-3.28,5.84,30.11,30.11,0,0,0,3.35-5.91c.14-.27.27-.61.41-.88a46.08,46.08,0,0,0-43.14-62Z"/><path class="cls-1" d="M277.34,448.18a8.13,8.13,0,0,0,10.14-1.55l.07-.07a8.13,8.13,0,0,1-10.14,1.55,45.88,45.88,0,0,0-55.59,7.3,45.88,45.88,0,0,1,55.52-7.23Z"/><path class="cls-1" d="M358.58,623.66c.57-.76,1.16-1.5,1.68-2.3C359.73,622.15,359.15,622.9,358.58,623.66Z"/><path class="cls-1" d="M357.34,625.31a46,46,0,0,1-7.52,7.18c-.14.07-.27.2-.41.27a5.85,5.85,0,0,1-.68.47c-.34.2-.61.47-.95.68-.07,0-.07.07-.14.07a45.87,45.87,0,0,1-19,7.44c-.14,0-.2.07-.34.07-.34.07-.61.07-.95.14s-.47.07-.68.07-.41.07-.54.07c-.34,0-.74.07-1.08.07h-.2c-.47,0-.95.07-1.42.07H321.9a42.16,42.16,0,0,1-6.56-.47h-.07a9.67,9.67,0,0,1-1.49-.27c-.2-.07-.41-.07-.61-.14l-.88-.2a6.3,6.3,0,0,1-1.08-.27c-.14,0-.27-.07-.41-.07l-1.42-.41h-.07a45.41,45.41,0,0,1-16.43-8.52c-.07,0-.07-.07-.14-.07-.34-.27-.61-.54-.95-.81-.14-.14-.27-.2-.34-.34s-.47-.41-.68-.61a6,6,0,0,0-.68-.61l-.34-.34-.95-.95-.07-.07a46,46,0,0,1-8.32-12,5.41,5.41,0,0,0-4.26-3c-1.42-.14-2.84-.41-4.26-.68h-.07c-.68-.14-1.28-.27-2-.47-.07,0-.14-.07-.27-.07-.54-.14-1.15-.34-1.69-.47a1.6,1.6,0,0,0-.54-.14,9.85,9.85,0,0,1-1.28-.47c-.27-.14-.61-.2-.88-.34s-.61-.2-.88-.34a9.56,9.56,0,0,1-1.22-.54l-.47-.2c-.54-.27-1.08-.47-1.62-.74a46.07,46.07,0,0,1-19.95-19.41.25.25,0,0,1-.07-.2c-.27-.47-.47-.95-.74-1.42a14.39,14.39,0,0,1-.68-1.49c0-.07-.07-.07-.07-.14A45.9,45.9,0,0,1,235.69,567v-.34a17.18,17.18,0,0,1,0-2.64,5.37,5.37,0,0,0-2.64-5c-.2-.14-.47-.27-.68-.41a50.64,50.64,0,0,1-7.17-5.34,46.32,46.32,0,0,1-15-33.94,45,45,0,0,1,1.22-10.55c.07-.2.07-.41.14-.61a29.29,29.29,0,0,1,3.06-5.47,30.46,30.46,0,0,0-3.13,5.54c-.07.2-.07.41-.14.61-.22.94-.33,1.88-.49,2.83.16-.92.27-1.86.49-2.76a47.21,47.21,0,0,0-1.22,10.52,46.21,46.21,0,0,0,15,33.91,44.77,44.77,0,0,0,6.63,5c.2.14.34.27.54.41s.47.27.68.41a5.37,5.37,0,0,1,2.64,5,17.18,17.18,0,0,0,0,2.64v.34a45.9,45.9,0,0,0,3.85,18.53c0,.07.07.07.07.14.2.54.47,1,.68,1.49s.47.95.74,1.42a.25.25,0,0,1,.07.2,46.17,46.17,0,0,0,8.48,11.25A46.17,46.17,0,0,1,241.1,589,45.84,45.84,0,0,0,261,608.35a17.31,17.31,0,0,0,1.62.74l.47.2c.41.2.81.34,1.22.54s.61.2.88.34.61.2.88.34a9.87,9.87,0,0,1,1.28.47,1.6,1.6,0,0,0,.54.14,12.35,12.35,0,0,0,1.69.47c.07,0,.14.07.27.07.68.14,1.28.34,2,.47h.07c1.42.27,2.84.54,4.26.68a5.41,5.41,0,0,1,4.26,3,46,46,0,0,0,8.32,12l.07.07a12.45,12.45,0,0,0,.95.95l.34.34a6.1,6.1,0,0,0,.68.61c.2.2.47.41.68.61s.27.2.34.34c.34.27.61.54.95.81.07,0,.07.07.14.07a45.41,45.41,0,0,0,16.43,8.52h.07l1.42.41a.86.86,0,0,0,.41.07c.34.07.74.2,1.08.27l.88.2c.2.07.41.07.61.14.47.07,1,.2,1.49.27h.07a52.53,52.53,0,0,0,6.56.47h1.62c.47,0,.95-.07,1.42-.07h.2c.34,0,.74-.07,1.08-.07a1.32,1.32,0,0,0,.54-.07c.2,0,.47-.07.68-.07s.68-.07.95-.14a.61.61,0,0,0,.34-.07,45.51,45.51,0,0,0,19-7.44c.07,0,.07-.07.14-.07a11.51,11.51,0,0,0,.95-.68,5.83,5.83,0,0,1,.68-.47c.14-.07.27-.2.41-.27A46.18,46.18,0,0,0,357.34,625.31Z"/><path class="cls-1" d="M410.81,559.13a5.23,5.23,0,0,0-1.19.94,5.4,5.4,0,0,1,1.12-.87,46.05,46.05,0,0,0,12.8-11.14A46,46,0,0,1,410.81,559.13Z"/><path class="cls-1" d="M210.14,519.44s0,0,0,0c0-1,.1-1.89.16-2.83C210.24,517.58,210.14,518.52,210.14,519.44Z"/><path class="cls-1" d="M378.66,610.2q-1.74.67-3.55,1.19c-.07,0-.2.07-.27.07-.54.14-1.08.27-1.55.41-.2.07-.41.07-.61.14a9.59,9.59,0,0,1-1.35.27,3.4,3.4,0,0,1-.81.14l-1.28.2-1.56.2a5.41,5.41,0,0,0-4.26,3c-.07.07-.07.2-.14.27-.35.72-.78,1.37-1.16,2.07.2-.36.43-.69.62-1.05a10.09,10.09,0,0,1,.54-.88c-.09.18-.21.34-.3.52a5.78,5.78,0,0,1,.36-.59c.07-.07.07-.2.14-.27a5.31,5.31,0,0,1,4.26-3l1.55-.2,1.28-.2c.27-.07.54-.07.81-.14.47-.07.88-.2,1.35-.27.2-.07.41-.07.61-.14.54-.14,1.08-.27,1.56-.41.07,0,.2-.07.27-.07A46.15,46.15,0,0,0,400.26,593,46,46,0,0,1,378.66,610.2Z"/><path class="cls-1" d="M408.18,567.31v-.07a45.8,45.8,0,0,1-3.52,17.6A45.59,45.59,0,0,0,408.18,567.31Z"/><path class="cls-1" d="M309.26,640.33a46,46,0,0,1-16.43-8.52A45.41,45.41,0,0,0,309.26,640.33Z"/><path class="cls-1" d="M228.43,556.18q1.87,1.39,3.88,2.61c-.2-.14-.34-.27-.54-.41A36.72,36.72,0,0,1,228.43,556.18Z"/><path class="cls-1" d="M228.43,556.18a38.17,38.17,0,0,1-3.29-2.73A37.36,37.36,0,0,0,228.43,556.18Z"/><path class="cls-1" d="M210.3,516.64a47,47,0,0,1,.57-4.92A44.85,44.85,0,0,0,210.3,516.64Z"/><path class="cls-1" d="M210.14,519.51v0h0S210.14,519.5,210.14,519.51Z"/><path class="cls-1" d="M210.87,511.72a47,47,0,0,0-.57,4.92c-.06.94-.16,1.87-.16,2.83h0A47.21,47.21,0,0,1,211.35,509C211.14,509.86,211,510.8,210.87,511.72Z"/><path class="cls-1" d="M361.68,619c-.45.77-.87,1.55-1.35,2.28C360.81,620.53,361.23,619.75,361.68,619Z"/><path class="cls-1" d="M358.38,623.92c-.35.45-.67.93-1,1.37C357.72,624.85,358,624.37,358.38,623.92Z"/><path class="cls-1" d="M361.68,619l.44-.79c-.59,1.07-1.19,2.14-1.86,3.16l.07-.09C360.81,620.53,361.23,619.75,361.68,619Z"/><path class="cls-1" d="M358.38,623.92l.19-.26c-.41.55-.8,1.12-1.24,1.65h0C357.71,624.85,358,624.37,358.38,623.92Z"/><path class="cls-1" d="M361.68,619c-.44.77-.87,1.55-1.35,2.28-.61.92-1.28,1.78-1.94,2.65-.35.45-.66.94-1,1.37a46.3,46.3,0,0,1-7.53,7.33A46,46,0,0,0,363,616.79c-.06.1-.13.2-.18.29C362.46,617.74,362,618.34,361.68,619Z"/><path class="cls-1" d="M362.74,617.14c-.19.36-.42.69-.62,1.05l-.44.79c.37-.64.78-1.24,1.13-1.91,0-.09.12-.19.18-.29s.21-.34.3-.52A10.09,10.09,0,0,0,362.74,617.14Z"/><path class="cls-1" d="M357.35,625.29h0a46.18,46.18,0,0,1-7.52,7.32A46.3,46.3,0,0,0,357.35,625.29Z"/><path class="cls-1" d="M360.32,621.27l-.07.09c-.53.8-1.11,1.54-1.68,2.3l-.19.26C359,623,359.72,622.19,360.32,621.27Z"/><path class="cls-1" d="M408.11,567.24a46.25,46.25,0,0,1-33,44.15q1.81-.53,3.55-1.19A45.91,45.91,0,0,0,408.11,567.24Z"/><path class="cls-1" d="M365.47,523.41,483.55,405.33a29.27,29.27,0,0,0-41.4-41.4L324.07,482,206,363.93a29.27,29.27,0,0,0-41.4,41.4L282.67,523.41,164.6,641.49a29.27,29.27,0,0,0,41.4,41.4L324.07,564.81,442.15,682.89a29.27,29.27,0,1,0,41.4-41.4Z"/></g></svg>