<svg xmlns="http://www.w3.org/2000/svg" viewBox="0 0 960 960"><defs><style>.cls-1{fill:none;}.cls-2{fill:#9b1d53;}.cls-3{fill:#fff;}</style></defs><title>Battery-PiJuice-90</title><g id="Layer_2" data-name="Layer 2"><rect class="cls-1" x="146.43" y="179.6" width="350.93" height="54"/><path class="cls-2" d="M215.55,486.28c.5-.39,1-.79,1.51-1.17a49.74,49.74,0,0,1,12.88-6.71C254,470,285.86,478,324.67,502.07c35.36,22,64.91,29.82,85.46,22.65a38.15,38.15,0,0,0,18.76-14,29.8,29.8,0,0,0,3.28-5.84c.14-.34.27-.61.41-.88a46.08,46.08,0,0,0-43.14-62,45.69,45.69,0,0,0-23.06,6.22,8.06,8.06,0,0,1-10.14-1.62,46.12,46.12,0,0,0-68.69-.07h0l-.07.07a8.14,8.14,0,0,1-10.14,1.55,45.9,45.9,0,0,0-69,39.69v.07a39.64,39.64,0,0,0,.27,4.91,48,48,0,0,1,6-5.88C214.94,486.73,215.26,486.51,215.55,486.28Z"/><path class="cls-2" d="M404.11,585.84c.15-.35.39-.64.54-1s.26-1,.44-1.43C404.78,584.23,404.47,585,404.11,585.84Z"/><path class="cls-2" d="M400.26,593c.09-.14.15-.3.24-.44-.11.17-.2.37-.32.54Z"/><path class="cls-2" d="M407.37,575.26c-.18,1-.46,2-.71,3C406.91,577.29,407.18,576.3,407.37,575.26Z"/><path class="cls-2" d="M705.12,701.09c0,48.89-30.07,94.24-78.47,118.31l-11.82,5.88C565.21,850,504.48,848.61,456.37,821.6a146.1,146.1,0,0,1-47.72-42.5h79.92a67.28,67.28,0,0,0,67.28-67.28V188.39a67.28,67.28,0,0,0-67.28-67.28H453.5V88.38A40.38,40.38,0,0,0,413.12,48H230.68A40.38,40.38,0,0,0,190.3,88.38v32.73H155.23a67.28,67.28,0,0,0-67.28,67.28V711.82a67.28,67.28,0,0,0,67.28,67.28h175.1C347.72,821.28,379.73,858,422.51,882c35.6,20,76.08,30,116.62,30a239.55,239.55,0,0,0,106.56-24.73l11.8-5.87c72.09-35.89,116.87-105,116.87-180.31v-251H705.12ZM146.43,233.59v-54H497.36v54ZM375.18,628a62.19,62.19,0,0,1-106.69,0,62.26,62.26,0,0,1-49.09-58.35,61.9,61.9,0,0,1-24.27-62.27,59.56,59.56,0,0,1-3-19.47,62.29,62.29,0,0,1,87.83-56.66A62.29,62.29,0,0,1,317.78,415c-.34-.88-.68-1.83-1-2.7-1.28-3.58-2.57-7.17-3.85-10.82l-1.83-5.41-1.83-5.41c-1.22-3.58-2.37-7.24-3.52-10.89a2.87,2.87,0,0,1,.2-2.37l.2-.34c1.76-3.52,3.52-7.1,5.27-10.61l2.71-5.27c.47-1,.95-2,1.49-3-.95-1.83-1.89-3.65-2.91-5.54l-3.92-7.57c-1.28-2.5-2.57-5.07-3.85-7.64s-2.57-5.07-3.85-7.64a5.38,5.38,0,0,1,2.43-7.17,5.72,5.72,0,0,1,2.3-.54h.07c5,0,10-.07,15-.07h7.51c2.5,0,5,.07,7.5.07H336a5.21,5.21,0,0,1,5.14,5.27l-.13,7.64-.14,7.64c-.07,2.57-.13,5.14-.2,7.64l-.2,7.64v.34a3.78,3.78,0,0,1-.88,2.37l-3.92,5c-1.35,1.69-2.64,3.38-4,5l-4,5L324.27,380c-.2,3.25-.34,6.49-.54,9.74l-.34,5.54-.41,5.54c-.27,3.65-.54,7.37-.88,11-.07,1-.13,2.1-.27,3.11h.07a62.35,62.35,0,0,1,42,16.29,62.26,62.26,0,0,1,84.72,76.2,65.81,65.81,0,0,1,1.15,12,61.76,61.76,0,0,1-25.49,50.17A62.25,62.25,0,0,1,375.18,628Z"/><path class="cls-2" d="M408,564.2a5.38,5.38,0,0,1,1.59-4.13,5.22,5.22,0,0,1,1.19-.94,46.15,46.15,0,0,0,22.65-36.92,48.93,48.93,0,0,1-19.74,12.71c-24.07,8.38-55.92.41-94.73-23.66-35.36-22-64.91-29.82-85.46-22.65a38,38,0,0,0-18.91,14.14,29.28,29.28,0,0,0-3.06,5.47c-.07.2-.07.41-.14.61a45,45,0,0,0-1.22,10.55,46.32,46.32,0,0,0,15,33.94,50.57,50.57,0,0,0,7.17,5.34c.2.14.47.27.68.41a5.37,5.37,0,0,1,2.64,5,17.11,17.11,0,0,0,0,2.64V567a45.91,45.91,0,0,0,3.85,18.53c0,.07.07.07.07.14a14.43,14.43,0,0,0,.68,1.49c.27.47.47.95.74,1.42a.25.25,0,0,0,.07.2A46.07,46.07,0,0,0,261,608.22c.54.27,1.08.47,1.62.74l.47.2a9.55,9.55,0,0,0,1.22.54c.27.14.61.2.88.34s.61.2.88.34a9.79,9.79,0,0,0,1.28.47,1.59,1.59,0,0,1,.54.14c.54.13,1.15.34,1.69.47.13,0,.2.07.27.07.68.2,1.28.34,2,.47h.07c1.42.27,2.84.54,4.26.68a5.41,5.41,0,0,1,4.26,3,46,46,0,0,0,8.32,12l.07.07.95.95.34.34a6,6,0,0,1,.68.61c.2.2.47.41.68.61s.2.2.34.34c.34.27.61.54.95.81.07,0,.07.07.13.07a45.42,45.42,0,0,0,16.43,8.52h.07l1.42.41c.14,0,.27.07.41.07a6.37,6.37,0,0,0,1.08.27l.88.2c.2.07.41.07.61.13a9.58,9.58,0,0,0,1.49.27h.07a42.18,42.18,0,0,0,6.56.47h1.55c.47,0,.95-.07,1.42-.07h.2c.34,0,.74-.07,1.08-.07.14,0,.34-.07.54-.07s.47-.07.68-.07.61-.07.95-.14c.14,0,.2-.07.34-.07a45.88,45.88,0,0,0,19-7.44c.07,0,.07-.07.13-.07.34-.2.61-.47.95-.68a5.83,5.83,0,0,0,.68-.47c.14-.07.27-.2.41-.27a46.06,46.06,0,0,0,7.45-7.13l.06-.06c.14-.17.27-.36.41-.54a46.37,46.37,0,0,0,4.72-7.19c.28-.47.57-.94.81-1.44.07-.07.07-.2.13-.27a5.41,5.41,0,0,1,4.26-3l1.55-.2,1.29-.2a3.38,3.38,0,0,0,.81-.13,9.65,9.65,0,0,0,1.35-.27c.2-.07.41-.07.61-.14.47-.13,1-.27,1.55-.41.07,0,.2-.07.27-.07a45.16,45.16,0,0,0,5.59-2.17q1.22-.54,2.4-1.14a45.79,45.79,0,0,0,4.24-2.49c.58-.38,1.16-.77,1.72-1.17a46.13,46.13,0,0,0,3.87-3.2c.17-.16.35-.3.52-.46.33-.31.67-.61,1-.93a46.57,46.57,0,0,0,3.26-3.69c.49-.61,1-1.2,1.48-1.84.85-1.16,1.58-2.39,2.31-3.63s1.4-2.44,2-3.72,1.2-2.56,1.69-3.89c.43-1.17.76-2.38,1.1-3.59.39-1.41.82-2.81,1.08-4.26s.29-2.72.41-4.09.32-2.57.32-3.9c0,.89-.15,1.74-.2,2.62.05-.88.26-1.73.26-2.62v-1.89a4.78,4.78,0,0,0-.07-.95Z"/><path class="cls-2" d="M855.24,257.44h-31.1V175.58a16.82,16.82,0,0,0-16.82-16.82H773.7a16.82,16.82,0,0,0-16.82,16.82v81.86h-32V175.58a16.82,16.82,0,0,0-16.82-16.82H674.48a16.82,16.82,0,0,0-16.82,16.82v81.86H624.26a16.82,16.82,0,0,0-16.82,16.82v33.63a16.82,16.82,0,0,0,16.82,16.82h17.47v72a53.38,53.38,0,0,0,53.38,53.38h89.29a53.38,53.38,0,0,0,53.38-53.38v-72h17.47a16.82,16.82,0,0,0,16.82-16.82V274.26A16.82,16.82,0,0,0,855.24,257.44Z"/><path class="cls-3" d="M208.38,487.87a45.83,45.83,0,0,1,13.45-32.46,45.83,45.83,0,0,0-13.51,32.53s0,.07-.14.2c0,1.62.14,3.31.27,4.94l.2-.23a39.64,39.64,0,0,1-.27-4.91Z"/><path class="cls-3" d="M291,443.13a46.45,46.45,0,0,0-3.41,3.42h0A46,46,0,0,1,291,443.13Z"/><path class="cls-3" d="M408.11,564.13a5.65,5.65,0,0,1,1.52-4.06A5.38,5.38,0,0,0,408,564.2l.07.2a4.78,4.78,0,0,1,.07.95v-.14c0-.34-.07-.61-.07-.95Z"/><path class="cls-3" d="M410.14,524.72c-20.55,7.17-50.1-.68-85.46-22.65C285.86,478,254,470,229.95,478.4a49.74,49.74,0,0,0-12.88,6.71,50,50,0,0,1,12.82-6.64c24.07-8.38,55.92-.41,94.73,23.66,35.36,22,64.91,29.82,85.46,22.65a38,38,0,0,0,18.83-14A38.15,38.15,0,0,1,410.14,524.72Z"/><path class="cls-3" d="M233.53,488.61c20.55-7.17,50.1.68,85.46,22.65,38.81,24.07,70.66,32,94.73,23.66a48.93,48.93,0,0,0,19.74-12.71,46.27,46.27,0,0,1-9.92,25.85,46.37,46.37,0,0,0,10-25.92,48.93,48.93,0,0,1-19.74,12.71c-24.07,8.38-55.92.41-94.73-23.66-35.36-22-64.91-29.82-85.46-22.65a37.93,37.93,0,0,0-19,14.21A38,38,0,0,1,233.53,488.61Z"/><path class="cls-3" d="M398.13,595.67c.16-.2.35-.37.51-.58l.22-.27c.09-.12.16-.26.24-.38C398.8,594.86,398.46,595.25,398.13,595.67Z"/><path class="cls-3" d="M407.38,575.21c0-.07,0-.14.05-.22s0-.14,0-.21c.18-1.1.18-2.25.28-3.37C407.64,572.68,407.6,574,407.38,575.21Z"/><path class="cls-3" d="M401.5,590.68c.38-.64.85-1.23,1.21-1.89l0-.05c.3-.57.49-1.19.77-1.77C402.89,588.24,402.22,589.48,401.5,590.68Z"/><path class="cls-3" d="M393.45,600.77l-.28.26c.11-.1.24-.19.35-.29s.45-.4.67-.61l.05-.06C394,600.31,393.71,600.52,393.45,600.77Z"/><path class="cls-3" d="M405.2,583.06c.13-.35.32-.66.44-1l0,0c.27-.79.39-1.63.62-2.44C405.94,580.75,405.62,581.92,405.2,583.06Z"/><path class="cls-3" d="M208.65,492.85a.09.09,0,0,1,0,0,49.29,49.29,0,0,1,6-5.9A48,48,0,0,0,208.65,492.85Z"/><path class="cls-3" d="M356.25,446.62a8.06,8.06,0,0,0,10.14,1.62,45.95,45.95,0,0,1,69,39.76,46.27,46.27,0,0,1-2.84,16c-.14.27-.27.54-.41.88a29.8,29.8,0,0,1-3.28,5.84,30.1,30.1,0,0,0,3.35-5.91c.14-.27.27-.61.41-.88a46.08,46.08,0,0,0-43.14-62,45.51,45.51,0,0,0-23.06,6.22,8.07,8.07,0,0,1-10.14-1.62A46,46,0,0,0,291,443.13a46,46,0,0,1,65.28,3.49Z"/><path class="cls-3" d="M277.34,448.18a8.14,8.14,0,0,0,10.14-1.55l.07-.07a8.14,8.14,0,0,1-10.14,1.55,45.88,45.88,0,0,0-55.59,7.3,45.88,45.88,0,0,1,55.52-7.23Z"/><path class="cls-3" d="M349.82,632.49c-.14.07-.27.2-.41.27a5.83,5.83,0,0,1-.68.47c-.34.2-.61.47-.95.68-.07,0-.07.07-.13.07a45.88,45.88,0,0,1-19,7.44c-.14,0-.2.07-.34.07-.34.07-.61.07-.95.14s-.47.07-.68.07-.41.07-.54.07c-.34,0-.74.07-1.08.07h-.2c-.47,0-.95.07-1.42.07H321.9a42.18,42.18,0,0,1-6.56-.47h-.07a9.58,9.58,0,0,1-1.49-.27c-.2-.07-.41-.07-.61-.13l-.88-.2a6.37,6.37,0,0,1-1.08-.27c-.14,0-.27-.07-.41-.07l-1.42-.41h-.07a45.42,45.42,0,0,1-16.43-8.52c-.07,0-.07-.07-.13-.07-.34-.27-.61-.54-.95-.81-.13-.13-.27-.2-.34-.34s-.47-.41-.68-.61a6,6,0,0,0-.68-.61l-.34-.34-.95-.95-.07-.07a46,46,0,0,1-8.32-12,5.41,5.41,0,0,0-4.26-3c-1.42-.13-2.84-.41-4.26-.68h-.07c-.68-.14-1.28-.27-2-.47-.07,0-.14-.07-.27-.07-.54-.14-1.15-.34-1.69-.47a1.59,1.59,0,0,0-.54-.14,9.79,9.79,0,0,1-1.28-.47c-.27-.14-.61-.2-.88-.34s-.61-.2-.88-.34a9.55,9.55,0,0,1-1.22-.54l-.47-.2c-.54-.27-1.08-.47-1.62-.74a46.07,46.07,0,0,1-19.95-19.41.25.25,0,0,1-.07-.2c-.27-.47-.47-.95-.74-1.42a14.43,14.43,0,0,1-.68-1.49c0-.07-.07-.07-.07-.14A45.91,45.91,0,0,1,235.69,567v-.34a17.11,17.11,0,0,1,0-2.64,5.37,5.37,0,0,0-2.64-5c-.2-.14-.47-.27-.68-.41a50.57,50.57,0,0,1-7.17-5.34,46.32,46.32,0,0,1-15-33.94,45,45,0,0,1,1.22-10.55c.07-.2.07-.41.14-.61a29.28,29.28,0,0,1,3.06-5.47,30.47,30.47,0,0,0-3.13,5.54c-.07.2-.07.41-.14.61-.22.94-.33,1.88-.49,2.83.16-.92.27-1.86.49-2.76a47.28,47.28,0,0,0-1.22,10.52,46.2,46.2,0,0,0,15,33.91,44.74,44.74,0,0,0,6.63,5c.2.14.34.27.54.41s.47.27.68.41a5.37,5.37,0,0,1,2.64,5,17.11,17.11,0,0,0,0,2.64v.34a45.89,45.89,0,0,0,3.85,18.53c0,.07.07.07.07.13.2.54.47,1,.68,1.49s.47.95.74,1.42a.25.25,0,0,1,.07.2,46.19,46.19,0,0,0,8.48,11.25A46.16,46.16,0,0,1,241.1,589,45.83,45.83,0,0,0,261,608.35a17,17,0,0,0,1.62.74c.14.07.34.14.47.2.41.2.81.34,1.22.54s.61.2.88.34.61.2.88.34a9.83,9.83,0,0,1,1.28.47,1.6,1.6,0,0,0,.54.13,12.3,12.3,0,0,0,1.69.47c.07,0,.13.07.27.07.68.14,1.28.34,2,.47h.07c1.42.27,2.84.54,4.26.68a5.41,5.41,0,0,1,4.26,3,46,46,0,0,0,8.32,12l.07.07a12.45,12.45,0,0,0,.95.95l.34.34a6.08,6.08,0,0,0,.68.61c.2.2.47.41.68.61s.27.2.34.34c.34.27.61.54.95.81.07,0,.07.07.13.07a45.41,45.41,0,0,0,16.43,8.52h.07l1.42.41a.86.86,0,0,0,.41.07c.34.07.74.2,1.08.27l.88.2c.2.07.41.07.61.13.47.07,1,.2,1.49.27h.07a52.53,52.53,0,0,0,6.56.47h1.62c.47,0,.95-.07,1.42-.07h.2c.34,0,.74-.07,1.08-.07a1.31,1.31,0,0,0,.54-.07c.2,0,.47-.07.68-.07s.68-.07.95-.13a.61.61,0,0,0,.34-.07,45.51,45.51,0,0,0,19-7.44c.07,0,.07-.07.13-.07a11.63,11.63,0,0,0,.95-.68,5.92,5.92,0,0,1,.68-.47c.14-.07.27-.2.41-.27a46.25,46.25,0,0,0,7.45-7.26A46.06,46.06,0,0,1,349.82,632.49Z"/><path class="cls-3" d="M410.81,559.13a5.22,5.22,0,0,0-1.19.94,5.4,5.4,0,0,1,1.12-.87,46,46,0,0,0,12.79-11.14A46,46,0,0,1,410.81,559.13Z"/><path class="cls-3" d="M210.14,519.44v0c0-1,.1-1.89.16-2.83C210.24,517.58,210.14,518.52,210.14,519.44Z"/><path class="cls-3" d="M374.84,611.46c-.54.13-1.08.27-1.55.41-.2.07-.41.07-.61.14a9.65,9.65,0,0,1-1.35.27,3.38,3.38,0,0,1-.81.13l-1.29.2-1.55.2a5.41,5.41,0,0,0-4.26,3c-.07.07-.07.2-.13.27-.24.5-.53,1-.81,1.44,0-.09.11-.16.16-.24l.11-.18a10.17,10.17,0,0,1,.54-.88c-.09.18-.21.34-.3.53a5.77,5.77,0,0,1,.36-.59c.07-.07.07-.2.14-.27a5.31,5.31,0,0,1,4.26-3l1.55-.2,1.29-.2c.27-.07.54-.07.81-.13.47-.07.88-.2,1.35-.27.2-.07.41-.07.61-.14.54-.13,1.08-.27,1.56-.41.07,0,.2-.07.27-.07.53-.16,1-.43,1.53-.6-.53.18-1.05.38-1.6.54C375,611.4,374.91,611.46,374.84,611.46Z"/><path class="cls-3" d="M394.44,599.84c-.32.32-.66.62-1,.93.26-.24.54-.45.79-.7C394.31,600,394.37,599.91,394.44,599.84Z"/><path class="cls-3" d="M395.39,599c-.24.26-.53.47-.78.72C394.85,599.49,395.14,599.29,395.39,599Z"/><path class="cls-3" d="M383,608.15l.11-.06q-1.18.61-2.4,1.14l.06,0C381.52,608.87,382.27,608.52,383,608.15Z"/><path class="cls-3" d="M388.42,605c.53-.37,1.06-.74,1.58-1.13-.36.28-.76.5-1.13.76C388.71,604.7,388.58,604.84,388.42,605Z"/><path class="cls-3" d="M380.77,609.21l-.61.29c1.31-.57,2.61-1.14,3.85-1.82-.33.18-.68.31-1,.48C382.27,608.53,381.52,608.87,380.77,609.21Z"/><path class="cls-3" d="M387.23,605.68c.25-.17.52-.3.77-.47-.16.11-.35.19-.51.3Z"/><path class="cls-3" d="M388.87,604.58l.19-.16c-.56.41-1.14.79-1.72,1.17l.15-.09C388,605.2,388.42,604.9,388.87,604.58Z"/><path class="cls-3" d="M396.36,597.91c-.17.18-.3.4-.47.58C396.06,598.3,396.19,598.09,396.36,597.91Z"/><path class="cls-3" d="M391.37,602.71c-.2.17-.37.37-.58.53C391,603.07,391.17,602.87,391.37,602.71Z"/><path class="cls-3" d="M386,606.53c-.33.2-.63.46-1,.65C385.35,607,385.64,606.73,386,606.53Z"/><path class="cls-3" d="M393.45,600.77c-.17.16-.35.3-.52.46l.24-.2Z"/><path class="cls-3" d="M400.18,593.08l.09-.11-.08.1Z"/><path class="cls-3" d="M399.11,594.43l.08-.12c-.46.64-1,1.22-1.48,1.84.14-.17.29-.31.43-.48C398.46,595.25,398.8,594.86,399.11,594.43Z"/><path class="cls-3" d="M407.76,571.41l0-.27c-.12,1.37-.17,2.75-.41,4.09v0C407.6,574,407.64,572.68,407.76,571.41Z"/><path class="cls-3" d="M406.27,579.57l0-.08c-.34,1.21-.67,2.42-1.1,3.59h0C405.62,581.92,405.94,580.75,406.27,579.57Z"/><path class="cls-3" d="M404.65,584.84c.19-.46.27-1,.44-1.44h0C404.91,583.88,404.84,584.39,404.65,584.84Z"/><path class="cls-3" d="M407.9,570.08c.06-.93.28-1.82.28-2.76v-.07c0,.9-.21,1.74-.26,2.62C407.91,569.94,407.9,570,407.9,570.08Z"/><path class="cls-3" d="M406.66,578.29l0,.07c.26-1,.54-2.06.73-3.12v0C407.18,576.3,406.91,577.29,406.66,578.29Z"/><path class="cls-3" d="M309.26,640.34a46,46,0,0,1-16.43-8.52A45.43,45.43,0,0,0,309.26,640.34Z"/><path class="cls-3" d="M228.43,556.18q1.87,1.39,3.88,2.61c-.2-.14-.34-.27-.54-.41A36.59,36.59,0,0,1,228.43,556.18Z"/><path class="cls-3" d="M210.14,519.51v0h0Z"/><path class="cls-3" d="M210.87,511.72a45.06,45.06,0,0,0-.57,4.92c-.06.94-.16,1.87-.16,2.83h0A47.28,47.28,0,0,1,211.35,509C211.14,509.86,211,510.8,210.87,511.72Z"/><path class="cls-3" d="M357.34,625.3h0c.13-.16.25-.33.37-.5l0,0C357.61,624.94,357.49,625.13,357.34,625.3Z"/><path class="cls-3" d="M357.34,625.31a46.17,46.17,0,0,1-7.52,7.32,45.36,45.36,0,0,0,7.9-7.83c-.12.17-.24.34-.37.5Z"/><path class="cls-3" d="M362.12,618.2l.35-.63a46.37,46.37,0,0,1-4.72,7.19l.82-1.1.13-.18c.53-.7,1.07-1.39,1.55-2.12C360.93,620.34,361.53,619.27,362.12,618.2Z"/><path class="cls-3" d="M362.63,617.32c0,.09-.11.16-.16.24l-.35.63C362.28,617.9,362.47,617.62,362.63,617.32Z"/><path class="cls-3" d="M360.26,621.36l.07-.09c.48-.73.91-1.52,1.35-2.28l.44-.79C361.53,619.27,360.93,620.34,360.26,621.36Z"/><path class="cls-3" d="M357.75,624.76l0,0,.66-.88.19-.26Z"/><path class="cls-3" d="M362.74,617.14l-.11.18c.1-.19.25-.34.35-.53s.21-.34.3-.53A10.17,10.17,0,0,0,362.74,617.14Z"/><path class="cls-3" d="M362.12,618.2l-.44.79c.37-.64.78-1.24,1.13-1.91,0-.09.12-.19.18-.29-.1.19-.25.34-.35.53S362.28,617.9,362.12,618.2Z"/><path class="cls-3" d="M357.34,625.3l-.06.06.06-.06Z"/><path class="cls-3" d="M357.28,625.37a46.25,46.25,0,0,1-7.45,7.26,46.17,46.17,0,0,0,7.52-7.32Z"/><polygon class="cls-3" points="357.35 625.29 357.34 625.3 357.34 625.31 357.35 625.29"/><path class="cls-3" d="M358.58,623.66l.13-.18-.13.18Z"/><path class="cls-3" d="M358.38,623.92l.19-.26h0Z"/><path class="cls-3" d="M358.71,623.48c.55-.72,1.11-1.44,1.62-2.21l-.07.09C359.78,622.09,359.23,622.78,358.71,623.48Z"/><path class="cls-3" d="M397.71,596.15a46.57,46.57,0,0,1-3.26,3.69c.38-.38.81-.71,1.18-1.1C396.38,597.93,397,597,397.71,596.15Z"/><path class="cls-3" d="M392.93,601.22a46.13,46.13,0,0,1-3.87,3.2c.37-.27.77-.49,1.13-.77C391.15,602.9,392,602,392.93,601.22Z"/><path class="cls-3" d="M407.37,575.26s0,0,0,0c-.26,1.45-.68,2.85-1.08,4.26.11-.4.26-.79.37-1.2C406.91,577.29,407.19,576.29,407.37,575.26Z"/><path class="cls-3" d="M387.05,605.79l.29-.2a45.79,45.79,0,0,1-4.24,2.49c.33-.17.68-.3,1-.48C385.12,607.05,386.09,606.43,387.05,605.79Z"/><path class="cls-3" d="M408.11,567.25c0,1.32-.21,2.6-.32,3.9,0-.43.1-.84.13-1.27C408,569,408.11,568.14,408.11,567.25Z"/><path class="cls-3" d="M405.19,583.08c-.49,1.33-1.08,2.62-1.69,3.89.19-.39.44-.74.61-1.13.35-.79.67-1.61,1-2.42C405.13,583.31,405.15,583.19,405.19,583.08Z"/><path class="cls-3" d="M399.18,594.31c.31-.43.7-.8,1-1.23.12-.17.2-.37.32-.54.39-.58.64-1.25,1-1.85C400.76,591.92,400,593.15,399.18,594.31Z"/><path class="cls-3" d="M380.7,609.23a45.16,45.16,0,0,1-5.59,2.17c.54-.16,1.06-.36,1.6-.54,1.16-.39,2.28-.87,3.4-1.34C380.31,609.43,380.5,609.32,380.7,609.23Z"/><path class="cls-3" d="M394.19,600.13c-.22.21-.45.4-.67.61C393.74,600.53,394,600.34,394.19,600.13Z"/><path class="cls-3" d="M407.48,574.79c0,.07,0,.14,0,.21S407.47,574.86,407.48,574.79Z"/><path class="cls-3" d="M405.65,582l0,0Z"/><path class="cls-3" d="M398.86,594.82l-.22.27Z"/><path class="cls-3" d="M388.42,605c-.13.09-.28.16-.42.26C388.14,605.12,388.29,605,388.42,605Z"/><path class="cls-3" d="M402.74,588.74l0,.05Z"/><path class="cls-3" d="M390,603.82c.26-.2.54-.38.8-.58-.19.15-.41.27-.61.42Z"/><path class="cls-3" d="M400.5,592.54c.8-1.21,1.53-2.46,2.21-3.74-.35.66-.82,1.25-1.21,1.89S400.88,592,400.5,592.54Z"/><path class="cls-3" d="M402.74,588.74c.5-.95.94-1.92,1.38-2.9-.18.39-.42.74-.61,1.13C403.23,587.55,403,588.17,402.74,588.74Z"/><path class="cls-3" d="M398.86,594.82c.44-.58.9-1.13,1.31-1.73-.32.48-.73.89-1.07,1.35C399,594.56,399,594.7,398.86,594.82Z"/><path class="cls-3" d="M394.19,600.13c.13-.13.28-.25.41-.38-.11.11-.25.21-.36.32Z"/><path class="cls-3" d="M395.39,599l.5-.54c-.08.09-.19.16-.27.25S395.47,598.94,395.39,599Z"/><path class="cls-3" d="M386,606.53c.43-.26.84-.57,1.26-.85l-.18.11C386.69,606,386.35,606.3,386,606.53Z"/><path class="cls-3" d="M391.37,602.71c.75-.62,1.44-1.31,2.15-2-.11.1-.24.19-.35.29C392.57,601.58,392,602.18,391.37,602.71Z"/><path class="cls-3" d="M396.36,597.91c.81-.9,1.55-1.86,2.28-2.82-.16.2-.35.38-.51.58C397.54,596.41,397,597.2,396.36,597.91Z"/><path class="cls-3" d="M407.37,575.24c0-.08,0-.16.06-.25,0,.07,0,.14-.05.22Z"/><path class="cls-3" d="M378.66,610.2c.52-.2,1-.49,1.5-.71l-.05,0C379.61,609.73,379.16,610,378.66,610.2Z"/><path class="cls-3" d="M407.48,574.79a46.19,46.19,0,0,0,.42-4.71c0,.45-.09.89-.14,1.34C407.66,572.54,407.66,573.69,407.48,574.79Z"/><path class="cls-3" d="M405.09,583.4c.17-.46.39-.89.54-1.35-.12.35-.31.67-.44,1C405.16,583.17,405.14,583.29,405.09,583.4Z"/><path class="cls-3" d="M384,607.67c.33-.18.68-.31,1-.49-.29.16-.61.27-.9.43Z"/><path class="cls-3" d="M405.65,582c.4-1.19.68-2.42,1-3.64-.1.41-.26.8-.37,1.2C406,580.38,405.92,581.22,405.65,582Z"/><path class="cls-3" d="M380.7,609.23c-.2.09-.39.2-.6.28l.05,0,.61-.29Z"/><path class="cls-3" d="M387.49,605.51c.16-.11.35-.19.51-.3s.28-.16.42-.26.29-.25.45-.37C388.42,604.9,388,605.2,387.49,605.51Z"/><path class="cls-3" d="M387.34,605.6l-.29.2.18-.11.26-.17Z"/><path class="cls-3" d="M383.1,608.09l-.11.06c.33-.17.68-.3,1-.48l.1-.06C383.79,607.79,383.43,607.92,383.1,608.09Z"/><path class="cls-3" d="M383,608.15c-.73.37-1.48.72-2.23,1.06C381.52,608.87,382.27,608.53,383,608.15Z"/><path class="cls-3" d="M394.44,599.84c-.07.07-.13.16-.2.23.11-.11.25-.2.36-.32s.54-.46.78-.72c.09-.09.15-.2.23-.29C395.25,599.13,394.82,599.46,394.44,599.84Z"/><path class="cls-3" d="M389.06,604.42l-.19.16c.37-.27.77-.49,1.13-.76l.19-.17C389.83,603.93,389.43,604.15,389.06,604.42Z"/><path class="cls-3" d="M392.93,601.22c-.9.82-1.78,1.67-2.74,2.43.19-.15.42-.26.61-.42s.38-.36.58-.53c.63-.52,1.19-1.12,1.8-1.68Z"/><path class="cls-3" d="M397.71,596.15c-.7.86-1.33,1.78-2.09,2.59.08-.09.19-.16.27-.25s.3-.39.47-.58c.64-.71,1.18-1.49,1.77-2.24C398,595.83,397.84,596,397.71,596.15Z"/><path class="cls-3" d="M399.18,594.31l-.08.12c.34-.46.75-.87,1.07-1.35h0C399.88,593.52,399.5,593.88,399.18,594.31Z"/><path class="cls-3" d="M376.71,610.86c.65-.22,1.31-.41,2-.66s1-.48,1.44-.69C379,610,377.87,610.47,376.71,610.86Z"/><path class="cls-3" d="M384.11,607.61c.29-.16.61-.26.9-.43s.63-.45,1-.65.71-.5,1.08-.74C386.09,606.43,385.12,607.05,384.11,607.61Z"/><path class="cls-3" d="M405.19,583.08c0,.11-.06.23-.1.34h0c0-.11.06-.23.1-.34Z"/><path class="cls-3" d="M407.78,571.14l0,.27c0-.45.11-.89.14-1.34,0-.07,0-.14,0-.21C407.89,570.3,407.82,570.71,407.78,571.14Z"/><path class="cls-3" d="M407.37,575.23s0,0,0,0h0v0Z"/><path class="cls-3" d="M406.29,579.49l0,.08c.11-.41.27-.8.37-1.2l0-.07C406.56,578.7,406.41,579.09,406.29,579.49Z"/></g></svg>