<svg xmlns="http://www.w3.org/2000/svg" viewBox="0 0 960 960"><defs><style>.cls-1{fill:none;}.cls-2{fill:#9b1d53;}.cls-3{fill:#fff;}</style></defs><title>Battery-PiJuice-50</title><g id="Layer_2" data-name="Layer 2"><path class="cls-1" d="M277.34,448.18a45.73,45.73,0,0,0-49.09,1.93H415.4a45.77,45.77,0,0,0-49-1.86,8.06,8.06,0,0,1-10.14-1.62,46.11,46.11,0,0,0-68.7-.07h0l-.07.07A8.13,8.13,0,0,1,277.34,448.18Z"/><path class="cls-1" d="M146.43,450.11h58.8a61.89,61.89,0,0,1,74.68-18.9A62.29,62.29,0,0,1,317.78,415c-.34-.88-.68-1.83-1-2.7-1.29-3.58-2.57-7.17-3.85-10.82l-1.83-5.41-1.83-5.41c-1.22-3.58-2.37-7.23-3.52-10.89a2.87,2.87,0,0,1,.2-2.37l.2-.34c1.76-3.51,3.52-7.1,5.27-10.61l2.7-5.27c.47-1,.95-2,1.49-3-.95-1.83-1.89-3.65-2.91-5.54l-3.92-7.57c-1.28-2.5-2.57-5.07-3.85-7.64s-2.57-5.07-3.86-7.64a5.38,5.38,0,0,1,2.43-7.17,5.71,5.71,0,0,1,2.3-.54h.07c5,0,10-.07,15-.07h7.51c2.5,0,5,.07,7.51.07H336a5.21,5.21,0,0,1,5.14,5.27l-.14,7.64-.14,7.64c-.07,2.57-.14,5.14-.2,7.64l-.2,7.64v.34a3.79,3.79,0,0,1-.88,2.37l-3.92,5c-1.35,1.69-2.64,3.38-4,5l-4,5L324.27,380c-.2,3.24-.34,6.49-.54,9.74l-.34,5.54-.41,5.54c-.27,3.65-.54,7.37-.88,11-.07,1-.13,2.1-.27,3.11h.07a62.35,62.35,0,0,1,42,16.3,62.75,62.75,0,0,1,25.63-5.48,61.91,61.91,0,0,1,49,24.38h58.83V179.6H146.43Z"/><path class="cls-2" d="M400.26,593c.1-.14.15-.31.25-.46-.12.18-.21.38-.33.57Z"/><path class="cls-2" d="M413.72,534.93c-24.07,8.38-55.92.41-94.73-23.67-35.36-22-64.91-29.82-85.46-22.65a38,38,0,0,0-18.91,14.14,29.28,29.28,0,0,0-3.06,5.47c-.07.2-.07.41-.14.61a45,45,0,0,0-1.22,10.55,46.32,46.32,0,0,0,15,33.94,50.66,50.66,0,0,0,7.17,5.34c.2.14.47.27.68.41a5.37,5.37,0,0,1,2.64,5,17.16,17.16,0,0,0,0,2.64V567a45.9,45.9,0,0,0,3.85,18.53c0,.07.07.07.07.14a14.47,14.47,0,0,0,.68,1.49c.27.47.47.95.74,1.42a.25.25,0,0,0,.07.2A46.07,46.07,0,0,0,261,608.22c.54.27,1.08.47,1.62.74l.47.2a9.58,9.58,0,0,0,1.22.54c.27.14.61.2.88.34s.61.2.88.34a9.86,9.86,0,0,0,1.28.47,1.59,1.59,0,0,1,.54.14c.54.14,1.15.34,1.69.47.14,0,.2.07.27.07.68.2,1.28.34,2,.47h.07c1.42.27,2.84.54,4.26.68a5.41,5.41,0,0,1,4.26,3,46,46,0,0,0,8.32,12l.07.07.95.95.34.34a6,6,0,0,1,.68.61c.2.2.47.41.68.61s.2.2.34.34c.34.27.61.54.95.81.07,0,.07.07.14.07a45.41,45.41,0,0,0,16.43,8.52h.07l1.42.41c.14,0,.27.07.41.07a6.12,6.12,0,0,0,1.08.27l.88.2c.2.07.4.07.61.13a9.56,9.56,0,0,0,1.49.27h.07a42,42,0,0,0,6.56.47h1.56c.47,0,.95-.07,1.42-.07h.2c.34,0,.74-.07,1.08-.07.14,0,.34-.07.54-.07s.47-.07.68-.07.61-.07.95-.13c.14,0,.2-.07.34-.07a45.87,45.87,0,0,0,19-7.44c.07,0,.07-.07.14-.07.34-.2.61-.47.95-.68a5.85,5.85,0,0,0,.68-.47c.14-.07.27-.2.41-.27a46.12,46.12,0,0,0,7.44-7.11l.08-.08c.14-.17.27-.36.4-.54a46.49,46.49,0,0,0,4.73-7.2c.28-.47.56-.94.8-1.43.07-.07.07-.2.14-.27a5.41,5.41,0,0,1,4.26-3l1.56-.2,1.28-.2a3.39,3.39,0,0,0,.81-.14,9.57,9.57,0,0,0,1.35-.27c.2-.07.41-.07.61-.14.47-.14,1-.27,1.56-.41.07,0,.2-.07.27-.07a45.13,45.13,0,0,0,5.58-2.16q1.23-.55,2.43-1.16a45.84,45.84,0,0,0,4.22-2.48c.58-.38,1.16-.77,1.73-1.18a46.33,46.33,0,0,0,3.89-3.21l.49-.43c.34-.31.68-.62,1-.94a46.63,46.63,0,0,0,3.26-3.69c.5-.61,1-1.2,1.48-1.84.85-1.16,1.58-2.39,2.31-3.63s1.39-2.44,2-3.71,1.2-2.56,1.69-3.9c.43-1.16.76-2.37,1.09-3.57.4-1.41.82-2.82,1.08-4.28s.29-2.71.41-4.08.32-2.58.32-3.9c0,.89-.15,1.74-.2,2.61.05-.88.26-1.72.26-2.61v-1.89a4.81,4.81,0,0,0-.07-.95l-.07-.2a5.38,5.38,0,0,1,1.59-4.13,5.27,5.27,0,0,1,1.19-.94,46.14,46.14,0,0,0,22.65-36.92A48.93,48.93,0,0,1,413.72,534.93Z"/><path class="cls-2" d="M488.57,121.11H453.5V88.38A40.38,40.38,0,0,0,413.12,48H230.68A40.38,40.38,0,0,0,190.3,88.38v32.73H155.23a67.28,67.28,0,0,0-67.28,67.28V711.82a67.28,67.28,0,0,0,67.28,67.28H488.57a67.28,67.28,0,0,0,67.28-67.28V188.39A67.28,67.28,0,0,0,488.57,121.11Zm8.79,329H438.53a61.57,61.57,0,0,1,13.18,37.82,62.78,62.78,0,0,1-3.11,19.47,65.79,65.79,0,0,1,1.15,12,61.76,61.76,0,0,1-25.49,50.17A62.25,62.25,0,0,1,375.18,628a62.19,62.19,0,0,1-106.69,0,62.26,62.26,0,0,1-49.09-58.35,61.9,61.9,0,0,1-24.27-62.27,59.54,59.54,0,0,1-3-19.47,61.47,61.47,0,0,1,13.15-37.76h-58.8V179.6H497.36Z"/><path class="cls-2" d="M404.12,585.84c.15-.34.39-.64.54-1s.26-1,.44-1.43C404.78,584.23,404.47,585,404.12,585.84Z"/><path class="cls-2" d="M432.58,504a46.06,46.06,0,0,0-17.18-53.92H228.25a45.43,45.43,0,0,0-19.88,37.76v.07a39.79,39.79,0,0,0,.27,4.91,48.09,48.09,0,0,1,6-5.88c.28-.23.6-.46.89-.69.5-.39,1-.78,1.52-1.17a49.76,49.76,0,0,1,12.88-6.71C254,470,285.86,478,324.67,502.07c35.36,22,64.91,29.82,85.46,22.65a38.14,38.14,0,0,0,18.76-14,29.75,29.75,0,0,0,3.28-5.84C432.31,504.57,432.45,504.3,432.58,504Z"/><path class="cls-2" d="M407.37,575.26c-.18,1-.46,2-.71,3C406.91,577.29,407.18,576.3,407.37,575.26Z"/><path class="cls-3" d="M208.38,487.87a45.83,45.83,0,0,1,13.45-32.46,45.83,45.83,0,0,0-13.51,32.53s0,.07-.14.2c0,1.62.14,3.31.27,4.94l.2-.23a39.79,39.79,0,0,1-.27-4.91Z"/><path class="cls-3" d="M291,443.13a46.56,46.56,0,0,0-3.41,3.42h0A46.13,46.13,0,0,1,291,443.13Z"/><path class="cls-3" d="M408.11,564.4a4.81,4.81,0,0,1,.07.95v-.14c0-.34-.07-.61-.07-.95v-.14a5.66,5.66,0,0,1,1.52-4.06A5.38,5.38,0,0,0,408,564.2Z"/><path class="cls-3" d="M410.14,524.72c-20.55,7.17-50.1-.68-85.46-22.65C285.86,478,254,470,229.95,478.4a49.76,49.76,0,0,0-12.88,6.71,50,50,0,0,1,12.82-6.64c24.07-8.38,55.92-.41,94.73,23.67,35.36,22,64.91,29.82,85.46,22.65a38,38,0,0,0,18.83-14A38.14,38.14,0,0,1,410.14,524.72Z"/><path class="cls-3" d="M319.06,511.19c-35.36-22-64.91-29.82-85.46-22.65a37.93,37.93,0,0,0-19,14.21,38,38,0,0,1,18.91-14.14c20.55-7.17,50.1.68,85.46,22.65,38.81,24.07,70.66,32,94.73,23.67a48.93,48.93,0,0,0,19.74-12.71,46.28,46.28,0,0,1-9.92,25.85,46.37,46.37,0,0,0,10-25.92,48.93,48.93,0,0,1-19.74,12.71C389.72,543.24,357.87,535.26,319.06,511.19Z"/><path class="cls-3" d="M389.51,425.73a62.75,62.75,0,0,0-25.63,5.48,62.35,62.35,0,0,0-42-16.3h-.07c.14-1,.2-2.1.27-3.11.34-3.65.61-7.37.88-11l.41-5.54.34-5.54c.2-3.25.34-6.49.54-9.74l3.45-4.26,4-5c1.35-1.62,2.64-3.31,4-5l3.92-5a3.79,3.79,0,0,0,.88-2.37V358l.2-7.64c.07-2.5.14-5.07.2-7.64l.14-7.64.14-7.64a5.21,5.21,0,0,0-5.14-5.27h-.14c-2.5,0-5-.07-7.51-.07h-7.51c-5,0-10,.07-15,.07h-.07a5.71,5.71,0,0,0-2.3.54,5.38,5.38,0,0,0-2.43,7.17c1.28,2.57,2.57,5.07,3.86,7.64s2.57,5.14,3.85,7.64l3.92,7.57c1,1.89,2,3.72,2.91,5.54-.54,1-1,2-1.49,3l-2.7,5.27c-1.76,3.52-3.52,7.1-5.27,10.61l-.2.34a2.87,2.87,0,0,0-.2,2.37c1.15,3.65,2.3,7.3,3.52,10.89l1.83,5.41,1.83,5.41c1.28,3.65,2.57,7.23,3.85,10.82.34.88.68,1.83,1,2.7a62.29,62.29,0,0,0-37.86,16.16,61.89,61.89,0,0,0-74.68,18.9h23a45.73,45.73,0,0,1,49.18-2,8.14,8.14,0,0,0,10.14-1.56A46.49,46.49,0,0,1,322,431.14a46,46,0,0,1,34.35,15.42,8.06,8.06,0,0,0,10.14,1.62,45.75,45.75,0,0,1,49.1,1.93h23A61.91,61.91,0,0,0,389.51,425.73Z"/><path class="cls-3" d="M407.38,575.21c0-.08,0-.16.06-.25s0-.12,0-.18c.18-1.11.18-2.27.28-3.4C407.64,572.67,407.6,574,407.38,575.21Z"/><path class="cls-3" d="M405.2,583.06c.13-.35.32-.67.44-1v0c.27-.79.39-1.64.62-2.44C405.94,580.74,405.62,581.92,405.2,583.06Z"/><path class="cls-3" d="M398.13,595.67c.16-.2.35-.36.5-.56l.24-.3c.09-.12.15-.26.24-.38C398.8,594.86,398.45,595.26,398.13,595.67Z"/><path class="cls-3" d="M401.5,590.68c.38-.64.85-1.23,1.21-1.89l0-.05c.3-.57.49-1.19.77-1.77C402.89,588.24,402.22,589.48,401.5,590.68Z"/><path class="cls-3" d="M393.44,600.78l-.26.25c.11-.1.24-.18.34-.28s.46-.41.68-.62l0-.05C394,600.32,393.7,600.53,393.44,600.78Z"/><path class="cls-3" d="M208.65,492.87a48.61,48.61,0,0,1,6-5.91,48.09,48.09,0,0,0-6,5.88Z"/><path class="cls-3" d="M356.25,446.62a8.06,8.06,0,0,0,10.14,1.62,45.77,45.77,0,0,1,49,1.86h.15a45.75,45.75,0,0,0-49.1-1.93,8.06,8.06,0,0,1-10.14-1.62A46,46,0,0,0,291,443.13a46,46,0,0,1,65.28,3.49Z"/><path class="cls-3" d="M435.42,488a46.27,46.27,0,0,1-2.84,16c-.14.27-.27.54-.41.88a29.75,29.75,0,0,1-3.28,5.84,30.1,30.1,0,0,0,3.35-5.91c.14-.27.27-.61.41-.88a46,46,0,0,0-17.1-53.85h-.15A45.93,45.93,0,0,1,435.42,488Z"/><path class="cls-3" d="M254.29,442a45.51,45.51,0,0,1,23.06,6.22,8.13,8.13,0,0,0,10.14-1.56l.07-.07a8.14,8.14,0,0,1-10.14,1.56,45.73,45.73,0,0,0-49.18,2h0A45.66,45.66,0,0,1,254.29,442Z"/><path class="cls-3" d="M228.25,450.11h0a46.28,46.28,0,0,0-6.41,5.3A46.28,46.28,0,0,1,228.25,450.11Z"/><path class="cls-3" d="M349.82,632.49c-.14.07-.27.2-.41.27a5.85,5.85,0,0,1-.68.47c-.34.2-.61.47-.95.68-.07,0-.07.07-.14.07a45.87,45.87,0,0,1-19,7.44c-.14,0-.2.07-.34.07-.34.07-.61.07-.95.13s-.47.07-.68.07-.41.07-.54.07c-.34,0-.74.07-1.08.07h-.2c-.47,0-.95.07-1.42.07H321.9a42,42,0,0,1-6.56-.47h-.07a9.56,9.56,0,0,1-1.49-.27c-.2-.07-.41-.07-.61-.13l-.88-.2a6.12,6.12,0,0,1-1.08-.27c-.14,0-.27-.07-.41-.07l-1.42-.41h-.07a45.41,45.41,0,0,1-16.43-8.52c-.07,0-.07-.07-.14-.07-.34-.27-.61-.54-.95-.81-.14-.14-.27-.2-.34-.34s-.47-.41-.68-.61a6,6,0,0,0-.68-.61l-.34-.34-.95-.95-.07-.07a46,46,0,0,1-8.32-12,5.41,5.41,0,0,0-4.26-3c-1.42-.14-2.84-.41-4.26-.68h-.07c-.68-.14-1.28-.27-2-.47-.07,0-.14-.07-.27-.07-.54-.14-1.15-.34-1.69-.47a1.59,1.59,0,0,0-.54-.14,9.86,9.86,0,0,1-1.28-.47c-.27-.14-.61-.2-.88-.34s-.61-.2-.88-.34a9.58,9.58,0,0,1-1.22-.54l-.47-.2c-.54-.27-1.08-.47-1.62-.74a46.07,46.07,0,0,1-19.95-19.41.25.25,0,0,1-.07-.2c-.27-.47-.47-.95-.74-1.42a14.47,14.47,0,0,1-.68-1.49c0-.07-.07-.07-.07-.14A45.9,45.9,0,0,1,235.69,567v-.34a17.16,17.16,0,0,1,0-2.64,5.37,5.37,0,0,0-2.64-5c-.2-.14-.47-.27-.68-.41a50.66,50.66,0,0,1-7.17-5.34,46.32,46.32,0,0,1-15-33.94,45,45,0,0,1,1.22-10.55c.07-.2.07-.41.14-.61a29.28,29.28,0,0,1,3.06-5.47,30.5,30.5,0,0,0-3.13,5.54c-.07.2-.07.41-.14.61-.22.94-.33,1.88-.49,2.83.16-.92.27-1.86.49-2.76a47.24,47.24,0,0,0-1.22,10.52,46.21,46.21,0,0,0,15,33.91,44.75,44.75,0,0,0,6.63,5c.2.14.34.27.54.41s.47.27.68.4a5.37,5.37,0,0,1,2.64,5,17.16,17.16,0,0,0,0,2.64v.34a45.9,45.9,0,0,0,3.85,18.53c0,.07.07.07.07.14.2.54.47,1,.68,1.49s.47.95.74,1.42a.25.25,0,0,1,.07.2,46.18,46.18,0,0,0,8.48,11.25A46.18,46.18,0,0,1,241.1,589,45.84,45.84,0,0,0,261,608.35a17.29,17.29,0,0,0,1.62.74l.47.2c.41.2.81.34,1.22.54s.61.2.88.34.61.2.88.34a9.86,9.86,0,0,1,1.28.47,1.59,1.59,0,0,0,.54.14,12.33,12.33,0,0,0,1.69.47c.07,0,.14.07.27.07.68.14,1.28.34,2,.47h.07c1.42.27,2.84.54,4.26.68a5.41,5.41,0,0,1,4.26,3,46,46,0,0,0,8.32,12l.07.07a12.49,12.49,0,0,0,.95.95l.34.34a6.1,6.1,0,0,0,.68.61c.2.2.47.41.68.61s.27.2.34.34c.34.27.61.54.95.81.07,0,.07.07.14.07a45.41,45.41,0,0,0,16.43,8.52h.07l1.42.41a.85.85,0,0,0,.4.07c.34.07.74.2,1.08.27l.88.2c.2.07.41.07.61.14.47.07,1,.2,1.49.27h.07a52.53,52.53,0,0,0,6.56.47h1.62c.47,0,.95-.07,1.42-.07h.2c.34,0,.74-.07,1.08-.07a1.34,1.34,0,0,0,.54-.07c.2,0,.47-.07.68-.07s.68-.07.95-.14a.61.61,0,0,0,.34-.07,45.52,45.52,0,0,0,19-7.44c.07,0,.07-.07.14-.07a11.47,11.47,0,0,0,.95-.68,5.85,5.85,0,0,1,.68-.47c.14-.07.27-.2.41-.27a46.28,46.28,0,0,0,7.44-7.25A46.12,46.12,0,0,1,349.82,632.49Z"/><path class="cls-3" d="M410.81,559.13a5.27,5.27,0,0,0-1.19.94,5.44,5.44,0,0,1,1.12-.87,46.05,46.05,0,0,0,12.8-11.14A46,46,0,0,1,410.81,559.13Z"/><path class="cls-3" d="M210.14,519.44v0c0-1,.1-1.89.16-2.83C210.24,517.58,210.14,518.52,210.14,519.44Z"/><path class="cls-3" d="M374.84,611.46c-.54.14-1.08.27-1.56.41-.2.07-.41.07-.61.14a9.57,9.57,0,0,1-1.35.27,3.39,3.39,0,0,1-.81.14l-1.28.2-1.56.2a5.41,5.41,0,0,0-4.26,3c-.07.07-.07.2-.14.27-.24.5-.53,1-.8,1.43,0-.09.12-.16.17-.26l.1-.16a10,10,0,0,1,.54-.88c-.09.18-.21.34-.3.52a5.83,5.83,0,0,1,.36-.59c.07-.07.07-.2.14-.27a5.31,5.31,0,0,1,4.26-3l1.56-.2,1.28-.2c.27-.07.54-.07.81-.14.47-.07.88-.2,1.35-.27.2-.07.41-.07.61-.14.54-.14,1.08-.27,1.56-.41.07,0,.2-.07.27-.07.53-.16,1-.43,1.53-.61-.53.18-1.06.38-1.6.54C375,611.4,374.91,611.46,374.84,611.46Z"/><path class="cls-3" d="M388.42,605c.53-.38,1.07-.74,1.59-1.14-.36.28-.77.5-1.14.77C388.71,604.69,388.58,604.84,388.42,605Z"/><path class="cls-3" d="M395.39,599c-.26.27-.57.5-.84.77C394.82,599.52,395.13,599.3,395.39,599Z"/><path class="cls-3" d="M388.87,604.58l.19-.16c-.56.41-1.14.79-1.73,1.18l.16-.09C388,605.2,388.42,604.9,388.87,604.58Z"/><path class="cls-3" d="M394.45,599.84c-.33.33-.67.63-1,.94.26-.25.55-.46.81-.71C394.31,600,394.37,599.91,394.45,599.84Z"/><path class="cls-3" d="M383,608.15l.11-.07q-1.19.61-2.43,1.16l.07,0C381.52,608.87,382.27,608.52,383,608.15Z"/><path class="cls-3" d="M380.76,609.21c-.21.09-.4.2-.61.29,1.32-.57,2.62-1.14,3.87-1.83-.33.18-.68.31-1,.48C382.27,608.53,381.52,608.87,380.76,609.21Z"/><path class="cls-3" d="M387.22,605.69c.26-.18.55-.32.81-.5-.17.12-.36.2-.54.32Z"/><path class="cls-3" d="M393.44,600.78l-.49.43.23-.19Z"/><path class="cls-3" d="M385.85,606.61c-.29.17-.55.4-.84.57C385.31,607,385.56,606.79,385.85,606.61Z"/><path class="cls-3" d="M399.11,594.43l.08-.12c-.46.64-1,1.22-1.48,1.84.13-.16.29-.31.42-.48C398.45,595.26,398.8,594.86,399.11,594.43Z"/><path class="cls-3" d="M391.42,602.66c-.22.18-.41.4-.63.58C391,603.06,391.2,602.84,391.42,602.66Z"/><path class="cls-3" d="M400.17,593.09l.09-.11-.09.11Z"/><path class="cls-3" d="M396.38,597.88c-.17.2-.32.42-.5.61C396.07,598.29,396.21,598.07,396.38,597.88Z"/><path class="cls-3" d="M406.27,579.57l0-.07c-.34,1.2-.66,2.41-1.09,3.57h0C405.62,581.92,405.94,580.74,406.27,579.57Z"/><path class="cls-3" d="M406.66,578.3v.06c.26-1,.54-2.05.73-3.11h0C407.18,576.3,406.91,577.29,406.66,578.3Z"/><path class="cls-3" d="M407.9,570.06c.06-.92.28-1.81.28-2.74v-.07c0,.89-.21,1.73-.26,2.61C407.91,569.92,407.9,570,407.9,570.06Z"/><path class="cls-3" d="M407.76,571.39l0-.25c-.12,1.37-.17,2.75-.41,4.08h0C407.6,574,407.64,572.67,407.76,571.39Z"/><path class="cls-3" d="M404.65,584.84c.19-.46.27-1,.44-1.44h0C404.91,583.88,404.84,584.39,404.65,584.84Z"/><path class="cls-3" d="M309.26,640.34a46,46,0,0,1-16.43-8.52A45.43,45.43,0,0,0,309.26,640.34Z"/><path class="cls-3" d="M228.43,556.18q1.87,1.39,3.88,2.61c-.2-.14-.34-.27-.54-.41A36.55,36.55,0,0,1,228.43,556.18Z"/><path class="cls-3" d="M210.87,511.72a45.05,45.05,0,0,0-.57,4.92c-.06.94-.16,1.87-.16,2.83A47.24,47.24,0,0,1,211.35,509C211.14,509.86,211,510.8,210.87,511.72Z"/><path class="cls-3" d="M357.34,625.3h0c.13-.16.25-.33.38-.5l0,0C357.61,624.94,357.49,625.13,357.34,625.3Z"/><path class="cls-3" d="M357.34,625.31a46.17,46.17,0,0,1-7.52,7.32,45.32,45.32,0,0,0,7.9-7.83c-.12.17-.24.34-.37.5Z"/><path class="cls-3" d="M360.26,621.35c.67-1,1.27-2.09,1.86-3.16l.36-.63a46.49,46.49,0,0,1-4.73,7.2l.83-1.11C359.15,622.9,359.73,622.15,360.26,621.35Z"/><path class="cls-3" d="M362.64,617.31c0,.09-.12.16-.17.26l-.36.63C362.29,617.89,362.47,617.61,362.64,617.31Z"/><path class="cls-3" d="M360.26,621.35l.07-.09c.48-.73.91-1.52,1.35-2.28l.44-.79C361.53,619.27,360.93,620.34,360.26,621.35Z"/><path class="cls-3" d="M357.75,624.76l0,0,.66-.88.19-.26Z"/><path class="cls-3" d="M362.74,617.14l-.1.16c.1-.18.25-.33.34-.52s.21-.34.3-.52A10,10,0,0,0,362.74,617.14Z"/><path class="cls-3" d="M362.12,618.19l-.44.79c.37-.64.78-1.24,1.13-1.91,0-.09.12-.19.18-.29-.09.19-.24.33-.34.52S362.29,617.89,362.12,618.19Z"/><path class="cls-3" d="M357.34,625.3l-.08.08.08-.07Z"/><path class="cls-3" d="M357.26,625.38a46.28,46.28,0,0,1-7.44,7.25,46.17,46.17,0,0,0,7.52-7.32Z"/><polygon class="cls-3" points="357.35 625.29 357.35 625.3 357.34 625.31 357.35 625.29"/><path class="cls-3" d="M358.58,623.66l-.19.26c.66-.87,1.34-1.73,1.94-2.65l-.07.09C359.73,622.15,359.15,622.9,358.58,623.66Z"/><path class="cls-3" d="M397.71,596.15a46.63,46.63,0,0,1-3.26,3.69c.38-.38.81-.71,1.18-1.1C396.38,597.92,397,597,397.71,596.15Z"/><path class="cls-3" d="M405.19,583.07c-.49,1.33-1.08,2.62-1.69,3.9.19-.39.44-.74.61-1.13.35-.79.67-1.6,1-2.42C405.13,583.3,405.15,583.18,405.19,583.07Z"/><path class="cls-3" d="M407.37,575.26s0,0,0,0c-.26,1.46-.69,2.86-1.08,4.28.11-.41.27-.8.37-1.21C406.91,577.29,407.19,576.29,407.37,575.26Z"/><path class="cls-3" d="M380.69,609.24a45.13,45.13,0,0,1-5.58,2.16c.54-.16,1.06-.36,1.6-.54,1.16-.39,2.27-.86,3.38-1.34C380.29,609.43,380.49,609.33,380.69,609.24Z"/><path class="cls-3" d="M399.19,594.31c.31-.42.69-.79,1-1.23.12-.18.21-.38.33-.57.38-.58.63-1.24,1-1.83C400.76,591.92,400,593.15,399.19,594.31Z"/><path class="cls-3" d="M392.94,601.21a46.33,46.33,0,0,1-3.89,3.21c.37-.27.77-.49,1.13-.77C391.16,602.9,392,602,392.94,601.21Z"/><path class="cls-3" d="M387,605.81l.3-.21a45.84,45.84,0,0,1-4.22,2.48c.33-.17.68-.3,1-.48C385.12,607.05,386.08,606.43,387,605.81Z"/><path class="cls-3" d="M408.11,567.24c0,1.32-.21,2.6-.32,3.9,0-.43.1-.85.13-1.29C408,569,408.11,568.13,408.11,567.24Z"/><path class="cls-3" d="M402.74,588.74l0,.05Z"/><path class="cls-3" d="M394.19,600.12c-.22.21-.45.41-.68.62C393.74,600.53,394,600.34,394.19,600.12Z"/><path class="cls-3" d="M398.87,594.81l-.24.3Z"/><path class="cls-3" d="M394.19,600.12l.36-.33c-.1.1-.22.18-.32.28Z"/><path class="cls-3" d="M396.38,597.88c.79-.89,1.52-1.82,2.24-2.77-.15.2-.34.37-.5.56C397.55,596.41,397,597.18,396.38,597.88Z"/><path class="cls-3" d="M391.42,602.66c.73-.61,1.4-1.27,2.09-1.92-.11.1-.24.18-.34.28C392.58,601.57,392,602.15,391.42,602.66Z"/><path class="cls-3" d="M388.42,605c-.12.09-.27.15-.39.24C388.15,605.11,388.29,605,388.42,605Z"/><path class="cls-3" d="M405.65,582c.4-1.19.69-2.42,1-3.65-.1.41-.26.8-.37,1.21C406,580.38,405.92,581.22,405.65,582Z"/><path class="cls-3" d="M407.37,575.25c0-.1.05-.19.07-.28,0,.08,0,.16-.06.25Z"/><path class="cls-3" d="M405.65,582v0Z"/><path class="cls-3" d="M407.48,574.79a46.22,46.22,0,0,0,.42-4.73c0,.45-.09.89-.14,1.34C407.66,572.52,407.66,573.68,407.48,574.79Z"/><path class="cls-3" d="M405.09,583.4c.17-.46.39-.9.55-1.37-.12.35-.31.67-.44,1C405.16,583.17,405.14,583.29,405.09,583.4Z"/><path class="cls-3" d="M390,603.81c.26-.2.53-.37.79-.57-.19.15-.41.26-.6.41Z"/><path class="cls-3" d="M407.48,574.79c0,.06,0,.12,0,.18S407.47,574.85,407.48,574.79Z"/><path class="cls-3" d="M395.39,599l.5-.53c-.08.09-.18.16-.26.25S395.48,598.93,395.39,599Z"/><path class="cls-3" d="M400.51,592.52c.79-1.2,1.52-2.45,2.19-3.72-.35.66-.82,1.25-1.21,1.89S400.89,591.94,400.51,592.52Z"/><path class="cls-3" d="M384,607.67c.33-.18.68-.31,1-.49-.28.16-.6.27-.89.42Z"/><path class="cls-3" d="M402.74,588.74c.5-.95.94-1.92,1.38-2.9-.18.4-.42.75-.61,1.13C403.23,587.55,403,588.17,402.74,588.74Z"/><path class="cls-3" d="M378.66,610.2c.52-.2,1-.49,1.49-.7l-.05,0C379.6,609.73,379.16,610,378.66,610.2Z"/><path class="cls-3" d="M398.87,594.81c.43-.58.9-1.12,1.3-1.72-.32.47-.72.88-1.06,1.34C399,594.55,399,594.69,398.87,594.81Z"/><path class="cls-3" d="M385.85,606.61c.47-.28.9-.62,1.36-.92l-.19.12C386.63,606.07,386.26,606.37,385.85,606.61Z"/><path class="cls-3" d="M380.69,609.24c-.2.09-.4.2-.6.28l.05,0c.21-.09.4-.2.61-.29Z"/><path class="cls-3" d="M387.49,605.51c.17-.12.37-.2.54-.32s.27-.15.39-.24.29-.26.45-.37C388.42,604.9,388,605.2,387.49,605.51Z"/><path class="cls-3" d="M389.06,604.42l-.19.16c.37-.27.77-.49,1.14-.77l.19-.16C389.83,603.93,389.43,604.15,389.06,604.42Z"/><path class="cls-3" d="M394.45,599.84c-.07.07-.13.16-.2.23.1-.1.22-.18.32-.28.27-.27.57-.49.84-.77.08-.09.15-.2.23-.29C395.26,599.13,394.83,599.46,394.45,599.84Z"/><path class="cls-3" d="M383,608.15c-.74.38-1.49.73-2.25,1.06C381.52,608.87,382.27,608.53,383,608.15Z"/><path class="cls-3" d="M383.12,608.08l-.11.07c.33-.17.68-.3,1-.48l.11-.07C383.8,607.78,383.45,607.91,383.12,608.08Z"/><path class="cls-3" d="M387.33,605.6l-.3.21.19-.12.27-.18Z"/><path class="cls-3" d="M397.71,596.15c-.7.86-1.33,1.78-2.08,2.59.08-.09.18-.16.26-.25s.32-.42.5-.61c.62-.7,1.16-1.47,1.74-2.21C398,595.84,397.84,596,397.71,596.15Z"/><path class="cls-3" d="M399.19,594.31l-.08.12c.34-.46.74-.87,1.06-1.34h0C399.88,593.52,399.5,593.89,399.19,594.31Z"/><path class="cls-3" d="M384.12,607.6c.29-.16.61-.26.89-.42s.55-.39.84-.57.78-.55,1.18-.8C386.08,606.43,385.12,607.05,384.12,607.6Z"/><path class="cls-3" d="M392.94,601.21c-.91.83-1.78,1.68-2.75,2.44.19-.15.41-.26.6-.41s.41-.4.63-.58c.61-.51,1.16-1.09,1.75-1.63Z"/><path class="cls-3" d="M376.71,610.86c.65-.22,1.31-.41,1.95-.66s.94-.47,1.43-.68C379,610,377.87,610.47,376.71,610.86Z"/><path class="cls-3" d="M407.78,571.15l0,.25c0-.45.11-.89.14-1.34,0-.07,0-.13,0-.2C407.89,570.29,407.82,570.71,407.78,571.15Z"/><path class="cls-3" d="M406.29,579.5l0,.07c.12-.41.27-.8.37-1.21v-.06C406.56,578.71,406.4,579.1,406.29,579.5Z"/><path class="cls-3" d="M405.19,583.07c0,.11-.06.23-.11.34h0c0-.11.06-.23.1-.34Z"/><path class="cls-3" d="M407.37,575.22s0,0,0,0h0v0Z"/><path class="cls-2" d="M330.32,779.1C347.72,821.28,379.73,858,422.51,882c35.6,20,76.08,30,116.62,30a239.55,239.55,0,0,0,106.56-24.73l11.8-5.87c72.09-35.89,116.87-105,116.87-180.31v-251H705.12v251c0,48.89-30.07,94.24-78.47,118.31l-11.82,5.88C565.21,850,504.48,848.61,456.37,821.6a146.09,146.09,0,0,1-47.72-42.5"/><path class="cls-2" d="M855.24,257.44h-31.1V175.58a16.82,16.82,0,0,0-16.82-16.82H773.7a16.82,16.82,0,0,0-16.82,16.82v81.86h-32V175.58a16.82,16.82,0,0,0-16.82-16.82H674.48a16.82,16.82,0,0,0-16.82,16.82v81.86H624.26a16.82,16.82,0,0,0-16.82,16.82v33.63a16.82,16.82,0,0,0,16.82,16.82h17.47v72a53.38,53.38,0,0,0,53.38,53.38h89.29a53.38,53.38,0,0,0,53.38-53.38v-72h17.47a16.82,16.82,0,0,0,16.82-16.82V274.26A16.82,16.82,0,0,0,855.24,257.44Z"/><path class="cls-2" d="M291,443.13a46.56,46.56,0,0,0-3.41,3.42h0A46.13,46.13,0,0,1,291,443.13Z"/><path class="cls-2" d="M254.35,441.89a45.69,45.69,0,0,1,23.06,6.22,8.14,8.14,0,0,0,10.14-1.56A46.49,46.49,0,0,1,322,431.14a46,46,0,0,1,34.35,15.42,8.06,8.06,0,0,0,10.14,1.62,45.75,45.75,0,0,1,49.1,1.93h23a61.91,61.91,0,0,0-49-24.38,62.75,62.75,0,0,0-25.63,5.48,62.35,62.35,0,0,0-42-16.3h-.07c.14-1,.2-2.1.27-3.11.34-3.65.61-7.37.88-11l.41-5.54.34-5.54c.2-3.25.34-6.49.54-9.74l3.45-4.26,4-5c1.35-1.62,2.64-3.31,4-5l3.92-5a3.79,3.79,0,0,0,.88-2.37V358l.2-7.64c.07-2.5.14-5.07.2-7.64l.14-7.64.14-7.64a5.21,5.21,0,0,0-5.14-5.27h-.14c-2.5,0-5-.07-7.51-.07h-7.51c-5,0-10,.07-15,.07h-.07a5.71,5.71,0,0,0-2.3.54,5.38,5.38,0,0,0-2.43,7.17c1.28,2.57,2.57,5.07,3.86,7.64s2.57,5.14,3.85,7.64l3.92,7.57c1,1.89,2,3.72,2.91,5.54-.54,1-1,2-1.49,3l-2.7,5.27c-1.76,3.52-3.52,7.1-5.27,10.61l-.2.34a2.87,2.87,0,0,0-.2,2.37c1.15,3.65,2.3,7.3,3.52,10.89l1.83,5.41,1.83,5.41c1.28,3.65,2.57,7.23,3.85,10.82.34.88.68,1.83,1,2.7a62.29,62.29,0,0,0-37.86,16.16,61.89,61.89,0,0,0-74.68,18.9h23A45.65,45.65,0,0,1,254.35,441.89Z"/><path class="cls-2" d="M366.46,448.18a8.06,8.06,0,0,1-10.14-1.62A46,46,0,0,0,291,443.13a46,46,0,0,1,65.28,3.49,8.06,8.06,0,0,0,10.14,1.62,45.77,45.77,0,0,1,49,1.86h.15a45.75,45.75,0,0,0-49.1-1.93Z"/><path class="cls-2" d="M254.29,442a45.51,45.51,0,0,1,23.06,6.22,8.13,8.13,0,0,0,10.14-1.56l.07-.07a8.14,8.14,0,0,1-10.14,1.56,45.73,45.73,0,0,0-49.18,2h0A45.66,45.66,0,0,1,254.29,442Z"/><path class="cls-2" d="M228.23,450.11a46.28,46.28,0,0,0-6.41,5.3,46.28,46.28,0,0,1,6.43-5.3Z"/></g></svg>