<svg xmlns="http://www.w3.org/2000/svg" viewBox="0 0 960 960"><defs><style>.cls-1{fill:#9b1d53;}</style></defs><title>Battery-Raspberry-10</title><g id="Layer_2" data-name="Layer 2"><path class="cls-1" d="M705.12,701.09c0,48.89-30.07,94.24-78.47,118.31l-11.82,5.88C565.21,850,504.48,848.61,456.37,821.6a146.09,146.09,0,0,1-47.72-42.5h79.92a67.28,67.28,0,0,0,67.28-67.28V188.39a67.28,67.28,0,0,0-67.28-67.28H453.5V88.38A40.38,40.38,0,0,0,413.12,48H230.68A40.38,40.38,0,0,0,190.3,88.38v32.73H155.23a67.28,67.28,0,0,0-67.28,67.28V711.82a67.28,67.28,0,0,0,67.28,67.28h175.1C347.72,821.28,379.73,858,422.51,882c35.6,20,76.08,30,116.62,30a239.55,239.55,0,0,0,106.56-24.73l11.8-5.87c72.09-35.89,116.87-105,116.87-180.31v-251H705.12ZM146.43,179.6H497.36v487H146.43Z"/><path class="cls-1" d="M855.24,257.44h-31.1V175.58a16.82,16.82,0,0,0-16.82-16.81H773.7a16.82,16.82,0,0,0-16.82,16.81v81.86h-32V175.58a16.82,16.82,0,0,0-16.82-16.81H674.48a16.82,16.82,0,0,0-16.82,16.81v81.86H624.26a16.82,16.82,0,0,0-16.82,16.82v33.63a16.82,16.82,0,0,0,16.82,16.82h17.47v72a53.38,53.38,0,0,0,53.38,53.38h89.29a53.38,53.38,0,0,0,53.38-53.38v-72h17.47a16.82,16.82,0,0,0,16.82-16.82V274.26A16.82,16.82,0,0,0,855.24,257.44Z"/><path class="cls-1" d="M429.34,479.73,427,475.55c.09-30-13.64-42.29-29.65-51.6,4.84-1.3,9.85-2.36,11.22-8.54,8.32-2.16,10.07-6.08,10.9-10.22,2.18-1.47,9.46-5.61,8.7-12.73,4.08-2.86,6.35-6.53,5.2-11.73,4.38-4.86,5.54-8.87,3.68-12.57,5.26-6.64,2.93-10.08.68-13.56,3.94-7.26.46-15-10.56-13.74-4.38-6.54-13.94-5.05-15.42-5-1.65-2.1-3.84-3.9-10.55-3-4.35-3.94-9.21-3.27-14.23-1.33-6-4.7-9.9-.93-14.4.49-7.21-2.36-8.86.87-12.41,2.19-7.87-1.66-10.26,2-14,5.78l-4.39-.09c-11.86,7-17.76,21.23-19.85,28.55-2.09-7.32-8-21.56-19.83-28.55l-4.39.09c-3.78-3.82-6.17-7.44-14-5.78-3.54-1.31-5.19-4.54-12.41-2.19-3-.94-5.67-2.88-8.87-2.78h0a9.28,9.28,0,0,0-5.53,2.29c-5-1.93-9.88-2.61-14.23,1.33-6.72-.87-8.9.93-10.55,3-1.47,0-11-1.52-15.42,5-11-1.3-14.5,6.48-10.55,13.74-2.25,3.48-4.58,6.92.68,13.56-1.86,3.7-.71,7.71,3.68,12.57-1.16,5.2,1.12,8.87,5.2,11.73-.76,7.11,6.52,11.25,8.7,12.73.84,4.15,2.58,8.06,10.9,10.22,1.37,6.18,6.38,7.24,11.22,8.54-16,9.31-29.74,21.55-29.65,51.6l-2.35,4.18c-18.36,11.16-34.88,47-9,76.22,1.69,9.13,4.52,15.69,7,22.95,3.77,29.25,28.36,42.94,34.85,44.56,9.5,7.24,19.63,14.11,33.33,18.92,12.91,13.32,26.9,18.39,41,18.39h.62c14.07,0,28.06-5.07,41-18.39,13.7-4.81,23.82-11.68,33.33-18.92,6.49-1.62,31.08-15.31,34.85-44.56,2.52-7.26,5.35-13.82,7-22.95C464.22,526.78,447.7,490.9,429.34,479.73Zm-16.6-5.13c-1,12.1-63.08-42.14-52.35-43.94C389.49,425.74,413.71,443,412.74,474.6Zm-68.2-126.44c.54,2.72,1.15,4.44,1.84,4.94,3.45-3.76,6.28-7.61,10.72-11.22,0,2.12-1.06,4.43,1.59,6.11a31.43,31.43,0,0,1,9.88-8.63c-2.06,3.61-.35,4.7.75,6.2,3.27-2.84,6.37-5.73,12.4-8-1.65,2-3.95,4-1.51,6.37,3.36-2.13,6.75-4.26,14.74-5.78-1.8,2-5.52,4.08-3.27,6.11a61.16,61.16,0,0,1,14.07-3.52c-2.48,2.07-4.54,4.09-2.51,5.7,4.52-1.41,10.75-3.31,16.83-1.68l-3.85,3.94c-.43.53,9,.41,15.24.5-2.27,3.21-4.59,6.3-5.95,11.81.62.64,3.71.28,6.62,0-3,6.38-8.17,8-9.38,10.72,1.82,1.4,4.35,1,7.12.08-2.15,4.5-6.66,7.58-10.22,11.22.9.65,2.47,1,6.2.59a57.41,57.41,0,0,1-12,9.72c.83,1,3.7.94,6.37,1-4.27,4.24-9.76,6.44-14.91,9.21,2.57,1.78,4.4,1.36,6.37,1.34-3.64,3-9.83,4.62-15.58,6.45,1.09,1.72,2.19,2.2,4.52,2.68-6.08,3.42-14.8,1.86-17.25,3.6.59,1.72,2.27,2.84,4.27,3.77-9.79.58-36.58-.36-41.71-20.94,10-11.18,28.32-24.31,59.79-40.53-24.49,8.32-46.58,19.41-65.07,34.67C318.94,384.36,333.93,358.44,344.54,348.15Zm-22.77,74.21c15.42-.17,34.5,11.5,34.43,22.5-.07,9.71-13.41,17.57-34.31,17.42-20.47-.24-34.25-9.87-34.21-19.28,0-7.74,16.71-21.09,34.09-20.64Zm-77.92-8.3c2.34-.48,3.43-1,4.52-2.68-5.75-1.83-11.94-3.41-15.58-6.45,2,0,3.8.44,6.37-1.34-5.15-2.77-10.64-5-14.91-9.21,2.66-.07,5.53,0,6.37-1a57.41,57.41,0,0,1-12-9.72c3.72.45,5.3.06,6.2-.59-3.56-3.65-8.07-6.73-10.22-11.22,2.77,1,5.3,1.32,7.12-.08-1.21-2.73-6.4-4.34-9.38-10.72,2.91.28,6,.64,6.62,0-1.35-5.51-3.67-8.6-5.94-11.81,6.23-.09,15.67,0,15.24-.5l-3.85-3.94c6.09-1.64,12.31.26,16.83,1.68,2-1.6,0-3.63-2.51-5.7a61.16,61.16,0,0,1,14.07,3.52c2.26-2-1.47-4.08-3.27-6.11,8,1.52,11.38,3.65,14.74,5.78,2.44-2.34.14-4.33-1.51-6.37,6,2.23,9.13,5.11,12.4,8,1.11-1.49,2.81-2.59.75-6.2a31.43,31.43,0,0,1,9.88,8.63c2.65-1.69,1.58-4,1.59-6.11,4.45,3.62,7.27,7.46,10.72,11.22.7-.51,1.3-2.22,1.84-4.94,10.61,10.29,25.59,36.21,3.85,46.48-18.49-15.25-40.57-26.34-65-34.66,31.45,16.22,49.74,29.34,59.76,40.52-5.13,20.58-31.92,21.52-41.71,20.94,2-.93,3.68-2.05,4.27-3.77C258.65,415.92,249.93,417.49,243.85,414.07ZM280,429.73h0c10.72,1.8-51.4,56-52.35,43.95C226.63,442.11,250.85,424.81,280,429.73ZM214.74,550.6c-15.1-12.14-20-47.7,8-63.68C239.63,482.39,228.46,556.69,214.74,550.6Zm58.85,63.64c-8.51,5.14-29.19,3-43.89-18.09-9.91-17.72-8.63-35.74-1.68-41,10.41-6.34,26.49,2.22,38.86,16.58h0C277.67,584.69,282.58,607.51,273.58,614.24Zm-16.73-77.49c-15.62-10.24-18.44-33.44-6.29-51.82s34.66-25,50.29-14.75,18.44,33.44,6.29,51.82S272.48,547,256.85,536.75Zm65,113.67c-18.73.81-37.09-15.34-36.85-20.94-.28-8.21,22.8-14.61,37.86-14.24h0c15.15-.66,35.47,4.88,35.51,12.23C358.6,634.62,339.91,650.74,321.83,650.43Zm38.54-80.93c.11,19.2-16.68,34.85-37.51,35s-37.79-15.38-37.9-34.58q0-.18,0-.37c-.11-19.2,16.68-34.85,37.51-35s37.79,15.38,37.9,34.58Q360.37,569.32,360.37,569.5Zm-23.64-49.35c-12.15-18.38-9.33-41.59,6.29-51.82s38.14-3.63,50.29,14.75,9.33,41.59-6.29,51.82S348.88,538.53,336.73,520.15Zm76.37,77c-16.14,22.39-38,23.26-46.13,17-8.51-8-2-33,9.65-46.62h0c13.35-15.08,27.63-24.92,37.57-17.23C420.88,557,424.81,582.13,413.09,597.17Zm12.63-47.5c-13.72,6.1-24.9-68.21-8-63.69h0C445.68,502,440.82,537.53,425.72,549.68Z"/></g></svg>