<svg xmlns="http://www.w3.org/2000/svg" viewBox="0 0 960 960"><defs><style>.cls-1{fill:#aaa;}.cls-2{fill:#9b1d53;}</style></defs><title>BatteryBattery-Battery-Error</title><g id="Layer_2" data-name="Layer 2"><path class="cls-1" d="M677,134.4H635.52V95.71A47.71,47.71,0,0,0,587.8,48H372.2a47.71,47.71,0,0,0-47.72,47.71V134.4H283a79.51,79.51,0,0,0-79.51,79.51V832.49A79.51,79.51,0,0,0,283,912H677a79.51,79.51,0,0,0,79.51-79.51V213.91A79.51,79.51,0,0,0,677,134.4Zm10.39,708.48H272.64V203.52H687.36Z"/><path class="cls-2" d="M559.62,338.63c-24.92-10.73-53.08-16.14-86.07-16.55a172.46,172.46,0,0,0-60.33,11.65c-30.6,12.1-53.3,29.46-69.39,53.08-10.38,15.24-15.78,31.7-16,48.92-.16,10.63,3,18.86,9.6,25.14A33.94,33.94,0,0,0,355,469.55c12.88,2.44,22.94.84,31.66-5.06,5.48-3.7,10-9.2,14.1-17.3,1.91-3.74,3.79-7.6,5.6-11.34,2.06-4.25,4.19-8.64,6.42-12.94,9-17.4,20.86-28.28,36.19-33.26a88.35,88.35,0,0,1,27.58-4.28,108.77,108.77,0,0,1,15,1.08,68.09,68.09,0,0,1,30.81,11.83c24.46,17.36,27.53,55.06,13.94,77.16-9.42,15.33-22.49,26.43-35.06,36.5-3.79,3-7.67,6-11.42,9-13.23,10.27-26.91,20.9-38.1,33.61-13.45,15.28-20,30.94-20.12,47.86-.08,15.67,5.63,27,17.45,34.54,6.83,4.37,14.87,5.72,26.07,4.38,10.06-1.21,15.92-3.86,19.6-8.86a78.41,78.41,0,0,0,10-18.36c5.29-14,12.77-29.76,28.09-40.7,8.84-6.31,17.74-12.89,26.34-19.25l7.7-5.69c18-13.23,30.47-24.63,40.61-37,16.32-19.89,24.39-40.71,24.68-63.66.33-26.47-6-48.57-19.37-67.58C600.15,362.19,582.74,348.58,559.62,338.63Z"/><path class="cls-2" d="M470.82,694A48.18,48.18,0,1,0,519,742.23,48.24,48.24,0,0,0,470.82,694Z"/></g></svg>