<svg xmlns="http://www.w3.org/2000/svg" viewBox="0 0 960 960"><defs><style>.cls-1{fill:#9b1d53;}.cls-2{fill:#fff;}</style></defs><title>Battery-PiJuice-100</title><g id="Layer_2" data-name="Layer 2"><path class="cls-1" d="M407.37,575.27c-.18,1-.46,2-.71,3C406.91,577.28,407.18,576.29,407.37,575.27Z"/><path class="cls-1" d="M408,564.2a5.38,5.38,0,0,1,1.59-4.13,5.21,5.21,0,0,1,1.19-.94,46.15,46.15,0,0,0,22.65-36.92,48.93,48.93,0,0,1-19.74,12.71c-24.07,8.38-55.92.41-94.73-23.67-35.36-22-64.91-29.82-85.46-22.65a38,38,0,0,0-18.91,14.14,29.25,29.25,0,0,0-3.06,5.47c-.07.2-.07.41-.14.61a45.05,45.05,0,0,0-1.22,10.55,46.32,46.32,0,0,0,15,33.94,50.57,50.57,0,0,0,7.17,5.34c.2.14.47.27.68.41a5.37,5.37,0,0,1,2.64,5,17.11,17.11,0,0,0,0,2.64V567a45.91,45.91,0,0,0,3.85,18.53c0,.07.07.07.07.14a14.43,14.43,0,0,0,.68,1.49c.27.47.47.95.74,1.42a.25.25,0,0,0,.07.2A46.07,46.07,0,0,0,261,608.22c.54.27,1.08.47,1.62.74l.47.2a9.55,9.55,0,0,0,1.22.54c.27.14.61.2.88.34s.61.2.88.34a9.9,9.9,0,0,0,1.28.47,1.6,1.6,0,0,1,.54.13c.54.14,1.15.34,1.69.47.13,0,.2.07.27.07.68.2,1.28.34,2,.47h.07c1.42.27,2.84.54,4.26.68a5.41,5.41,0,0,1,4.26,3,46,46,0,0,0,8.32,12l.07.07.95.95.34.34a6.07,6.07,0,0,1,.68.61c.2.2.47.41.68.61s.2.2.34.34c.34.27.61.54.95.81.07,0,.07.07.14.07a45.41,45.41,0,0,0,16.43,8.52h.07l1.42.41c.13,0,.27.07.41.07a6.24,6.24,0,0,0,1.08.27l.88.2c.2.07.41.07.61.13a9.67,9.67,0,0,0,1.49.27h.07a42.18,42.18,0,0,0,6.56.47h1.55c.47,0,.95-.07,1.42-.07h.2c.34,0,.74-.07,1.08-.07.13,0,.34-.07.54-.07s.47-.07.68-.07.61-.07.95-.13c.14,0,.2-.07.34-.07a45.87,45.87,0,0,0,19-7.44c.07,0,.07-.07.13-.07.34-.2.61-.47.95-.68a5.73,5.73,0,0,0,.68-.47c.14-.07.27-.2.41-.27a46.06,46.06,0,0,0,7.45-7.13l.06-.06c.14-.17.27-.36.41-.54a46.39,46.39,0,0,0,4.72-7.2c.28-.47.57-.94.81-1.44.07-.07.07-.2.14-.27a5.41,5.41,0,0,1,4.26-3l1.55-.2,1.28-.2a3.43,3.43,0,0,0,.81-.13,9.7,9.7,0,0,0,1.35-.27c.2-.07.41-.07.61-.14.47-.13,1-.27,1.55-.41.07,0,.2-.07.27-.07a45.16,45.16,0,0,0,5.59-2.17q1.22-.54,2.4-1.14a45.79,45.79,0,0,0,4.24-2.49c.58-.38,1.16-.77,1.72-1.17a46.45,46.45,0,0,0,3.88-3.2l.5-.44c.34-.31.68-.62,1-.94a46.61,46.61,0,0,0,3.26-3.68c.5-.61,1-1.21,1.48-1.84.84-1.15,1.57-2.39,2.31-3.62s1.4-2.45,2-3.73,1.19-2.55,1.68-3.88c.43-1.18.77-2.39,1.11-3.61.39-1.4.82-2.79,1.07-4.24s.3-2.75.42-4.14.32-2.54.32-3.85c0,.88-.15,1.72-.19,2.59.05-.87.26-1.71.26-2.59v-1.89a4.83,4.83,0,0,0-.07-.95Z"/><path class="cls-1" d="M404.12,585.83c.15-.34.39-.64.53-1s.26-1,.44-1.42C404.78,584.24,404.47,585,404.12,585.83Z"/><path class="cls-1" d="M400.26,593c.09-.14.15-.3.24-.44-.11.17-.2.37-.32.54Z"/><path class="cls-1" d="M215.55,486.28c.5-.39,1-.79,1.51-1.17a49.73,49.73,0,0,1,12.88-6.71C254,470,285.86,478,324.67,502.06c35.36,22,64.91,29.82,85.46,22.65a38.15,38.15,0,0,0,18.76-14,29.83,29.83,0,0,0,3.28-5.84c.13-.34.27-.61.41-.88a46.07,46.07,0,0,0-43.14-62,45.69,45.69,0,0,0-23.06,6.22,8.06,8.06,0,0,1-10.14-1.62,46.11,46.11,0,0,0-68.7-.07h0l-.07.07a8.14,8.14,0,0,1-10.14,1.55,45.9,45.9,0,0,0-69,39.69v.07a39.65,39.65,0,0,0,.27,4.91,48,48,0,0,1,6-5.89C214.94,486.73,215.26,486.51,215.55,486.28Z"/><path class="cls-1" d="M705.12,701.09c0,48.88-30.07,94.24-78.47,118.31l-11.82,5.88C565.21,850,504.48,848.61,456.37,821.6a146.09,146.09,0,0,1-47.72-42.5h79.92a67.28,67.28,0,0,0,67.28-67.28V188.39a67.28,67.28,0,0,0-67.28-67.28H453.5V95.8A47.8,47.8,0,0,0,405.7,48H238.1a47.8,47.8,0,0,0-47.8,47.8v25.31H155.23a67.28,67.28,0,0,0-67.28,67.28V711.82a67.28,67.28,0,0,0,67.28,67.28h175.1C347.72,821.28,379.73,858,422.51,882c35.6,20,76.08,30,116.62,30a239.55,239.55,0,0,0,106.56-24.73l11.8-5.87c72.09-35.89,116.87-105,116.87-180.31v-251H705.12ZM375.18,628a62.19,62.19,0,0,1-106.69,0,62.26,62.26,0,0,1-49.09-58.35,61.9,61.9,0,0,1-24.27-62.27,59.54,59.54,0,0,1-3-19.47,62.29,62.29,0,0,1,87.83-56.66A62.29,62.29,0,0,1,317.78,415c-.34-.88-.68-1.83-1-2.7-1.29-3.58-2.57-7.17-3.85-10.82l-1.83-5.41-1.83-5.41c-1.22-3.58-2.37-7.23-3.52-10.89a2.87,2.87,0,0,1,.2-2.37l.2-.34c1.76-3.52,3.52-7.1,5.27-10.61l2.7-5.27c.47-1,.95-2,1.49-3-.95-1.83-1.89-3.65-2.91-5.54l-3.92-7.57c-1.28-2.5-2.57-5.07-3.85-7.64s-2.57-5.07-3.85-7.64a5.38,5.38,0,0,1,2.43-7.17,5.72,5.72,0,0,1,2.3-.54h.07c5,0,10-.07,15-.07h7.51c2.5,0,5,.07,7.5.07H336a5.21,5.21,0,0,1,5.14,5.27l-.14,7.64-.13,7.64c-.07,2.57-.14,5.14-.2,7.64l-.2,7.64v.34a3.79,3.79,0,0,1-.88,2.37l-3.92,5c-1.35,1.69-2.64,3.38-4,5l-4,5L324.27,380c-.2,3.25-.34,6.49-.54,9.74l-.34,5.54-.41,5.54c-.27,3.65-.54,7.37-.88,11-.07,1-.13,2.1-.27,3.11h.07a62.35,62.35,0,0,1,42,16.29,62.26,62.26,0,0,1,84.72,76.2,65.75,65.75,0,0,1,1.15,12,61.76,61.76,0,0,1-25.49,50.17A62.25,62.25,0,0,1,375.18,628Z"/><path class="cls-1" d="M855.24,257.44h-31.1V175.58a16.82,16.82,0,0,0-16.82-16.82H773.7a16.82,16.82,0,0,0-16.82,16.82v81.86h-32V175.58a16.82,16.82,0,0,0-16.82-16.82H674.48a16.82,16.82,0,0,0-16.82,16.82v81.86H624.26a16.82,16.82,0,0,0-16.82,16.82v33.63a16.82,16.82,0,0,0,16.82,16.82h17.47v72a53.38,53.38,0,0,0,53.38,53.38h89.29a53.38,53.38,0,0,0,53.38-53.38v-72h17.47a16.82,16.82,0,0,0,16.82-16.82V274.26A16.82,16.82,0,0,0,855.24,257.44Z"/><path class="cls-2" d="M208.38,487.87a45.83,45.83,0,0,1,13.45-32.46,45.83,45.83,0,0,0-13.51,32.53s0,.07-.14.2c0,1.62.14,3.31.27,4.94l.2-.22a39.65,39.65,0,0,1-.27-4.91Z"/><path class="cls-2" d="M291,443.13a46.59,46.59,0,0,0-3.41,3.42h0A46.26,46.26,0,0,1,291,443.13Z"/><path class="cls-2" d="M408.11,564.13a5.66,5.66,0,0,1,1.52-4.06A5.38,5.38,0,0,0,408,564.2l.07.2a4.83,4.83,0,0,1,.07.95v-.14c0-.34-.07-.61-.07-.95Z"/><path class="cls-2" d="M410.14,524.72c-20.55,7.17-50.1-.68-85.46-22.65C285.86,478,254,470,229.95,478.4a49.73,49.73,0,0,0-12.88,6.71,50,50,0,0,1,12.82-6.64c24.07-8.38,55.92-.41,94.73,23.67,35.36,22,64.91,29.82,85.46,22.65a38,38,0,0,0,18.83-14A38.15,38.15,0,0,1,410.14,524.72Z"/><path class="cls-2" d="M233.53,488.61c20.55-7.17,50.1.68,85.46,22.65,38.81,24.07,70.66,32,94.73,23.67a48.93,48.93,0,0,0,19.74-12.71,46.27,46.27,0,0,1-9.92,25.85,46.37,46.37,0,0,0,10-25.92,48.93,48.93,0,0,1-19.74,12.71c-24.07,8.38-55.92.41-94.73-23.66-35.36-22-64.91-29.82-85.46-22.65a37.93,37.93,0,0,0-19,14.21A38,38,0,0,1,233.53,488.61Z"/><path class="cls-2" d="M401.49,590.69c.38-.64.86-1.23,1.21-1.9l0-.06c.3-.57.49-1.19.77-1.77C402.89,588.24,402.22,589.48,401.49,590.69Z"/><path class="cls-2" d="M398.13,595.67c.16-.2.35-.37.51-.58l.23-.28c.09-.12.16-.26.24-.38C398.8,594.86,398.45,595.26,398.13,595.67Z"/><path class="cls-2" d="M393.44,600.78l-.27.25c.11-.1.24-.19.35-.29s.46-.41.68-.62l.05-.06C394,600.32,393.7,600.53,393.44,600.78Z"/><path class="cls-2" d="M405.2,583.07c.13-.35.32-.67.44-1l0,0c.27-.79.39-1.64.62-2.45C405.94,580.74,405.62,581.92,405.2,583.07Z"/><path class="cls-2" d="M407.38,575.22c0-.08,0-.15.06-.22s0-.14,0-.21c.19-1.11.18-2.28.28-3.42C407.65,572.66,407.6,574,407.38,575.22Z"/><path class="cls-2" d="M208.65,492.85v0a48.76,48.76,0,0,1,6-5.91A48,48,0,0,0,208.65,492.85Z"/><path class="cls-2" d="M356.25,446.62a8.06,8.06,0,0,0,10.14,1.62,45.95,45.95,0,0,1,69,39.76,46.27,46.27,0,0,1-2.84,16c-.13.27-.27.54-.41.88a29.83,29.83,0,0,1-3.28,5.84,30.13,30.13,0,0,0,3.35-5.91c.13-.27.27-.61.41-.88a46.07,46.07,0,0,0-43.14-62,45.51,45.51,0,0,0-23.06,6.22,8.06,8.06,0,0,1-10.14-1.62A46,46,0,0,0,291,443.13a46,46,0,0,1,65.28,3.49Z"/><path class="cls-2" d="M277.34,448.18a8.14,8.14,0,0,0,10.14-1.55l.07-.07a8.13,8.13,0,0,1-10.14,1.55,45.88,45.88,0,0,0-55.59,7.3,45.88,45.88,0,0,1,55.52-7.23Z"/><path class="cls-2" d="M349.83,632.49c-.14.07-.27.2-.41.27a5.73,5.73,0,0,1-.68.47c-.34.2-.61.47-.95.68-.07,0-.07.07-.13.07a45.87,45.87,0,0,1-19,7.44c-.14,0-.2.07-.34.07-.34.07-.61.07-.95.13s-.47.07-.68.07-.41.07-.54.07c-.34,0-.74.07-1.08.07h-.2c-.47,0-.95.07-1.42.07H321.9a42.18,42.18,0,0,1-6.56-.47h-.07a9.67,9.67,0,0,1-1.49-.27c-.2-.07-.41-.07-.61-.13l-.88-.2a6.24,6.24,0,0,1-1.08-.27c-.13,0-.27-.07-.41-.07l-1.42-.41h-.07a45.41,45.41,0,0,1-16.43-8.52c-.07,0-.07-.07-.14-.07-.34-.27-.61-.54-.95-.81-.14-.14-.27-.2-.34-.34s-.47-.41-.68-.61a6.07,6.07,0,0,0-.68-.61l-.34-.34-.95-.95-.07-.07a46,46,0,0,1-8.32-12,5.41,5.41,0,0,0-4.26-3c-1.42-.13-2.84-.41-4.26-.68h-.07c-.68-.14-1.28-.27-2-.47-.07,0-.14-.07-.27-.07-.54-.14-1.15-.34-1.69-.47a1.6,1.6,0,0,0-.54-.13,9.9,9.9,0,0,1-1.28-.47c-.27-.14-.61-.2-.88-.34s-.61-.2-.88-.34a9.55,9.55,0,0,1-1.22-.54l-.47-.2c-.54-.27-1.08-.47-1.62-.74a46.07,46.07,0,0,1-19.95-19.41.25.25,0,0,1-.07-.2c-.27-.47-.47-.95-.74-1.42a14.43,14.43,0,0,1-.68-1.49c0-.07-.07-.07-.07-.14A45.91,45.91,0,0,1,235.69,567v-.34a17.11,17.11,0,0,1,0-2.64,5.37,5.37,0,0,0-2.64-5c-.2-.14-.47-.27-.68-.41a50.57,50.57,0,0,1-7.17-5.34,46.32,46.32,0,0,1-15-33.94,45.05,45.05,0,0,1,1.22-10.55c.07-.2.07-.41.14-.61a29.25,29.25,0,0,1,3.06-5.47,30.49,30.49,0,0,0-3.13,5.54c-.07.2-.07.41-.13.61-.22.94-.33,1.88-.49,2.83.16-.92.27-1.86.49-2.76a47.19,47.19,0,0,0-1.22,10.52,46.2,46.2,0,0,0,15,33.91,44.74,44.74,0,0,0,6.63,5c.2.14.34.27.54.41s.47.27.68.41a5.37,5.37,0,0,1,2.64,5,17.11,17.11,0,0,0,0,2.64v.34a45.89,45.89,0,0,0,3.85,18.53c0,.07.07.07.07.13.2.54.47,1,.68,1.49s.47.95.74,1.42a.25.25,0,0,1,.07.2,46.18,46.18,0,0,0,8.48,11.25A46.16,46.16,0,0,1,241.1,589,45.84,45.84,0,0,0,261,608.35a17.24,17.24,0,0,0,1.62.74l.47.2c.41.2.81.34,1.22.54s.61.2.88.34.61.2.88.34a9.94,9.94,0,0,1,1.28.47,1.59,1.59,0,0,0,.54.14,12.3,12.3,0,0,0,1.69.47c.07,0,.13.07.27.07.68.13,1.28.34,2,.47h.07c1.42.27,2.84.54,4.26.68a5.41,5.41,0,0,1,4.26,3,46,46,0,0,0,8.32,12l.07.07a12.45,12.45,0,0,0,.95.95l.34.34a6.15,6.15,0,0,0,.68.61c.2.2.47.41.68.61s.27.2.34.34c.34.27.61.54.95.81.07,0,.07.07.14.07a45.41,45.41,0,0,0,16.43,8.52h.07l1.42.41a.85.85,0,0,0,.41.07c.34.07.74.2,1.08.27l.88.2c.2.07.41.07.61.14.47.07,1,.2,1.49.27h.07a52.53,52.53,0,0,0,6.56.47h1.62c.47,0,.95-.07,1.42-.07h.2c.34,0,.74-.07,1.08-.07a1.33,1.33,0,0,0,.54-.07c.2,0,.47-.07.68-.07s.68-.07.95-.13a.61.61,0,0,0,.34-.07,45.51,45.51,0,0,0,19-7.44c.07,0,.07-.07.13-.07a11.45,11.45,0,0,0,.95-.68,5.73,5.73,0,0,1,.68-.47c.14-.07.27-.2.41-.27a46.28,46.28,0,0,0,7.45-7.26A46.06,46.06,0,0,1,349.83,632.49Z"/><path class="cls-2" d="M410.81,559.13a5.21,5.21,0,0,0-1.19.94,5.44,5.44,0,0,1,1.12-.87,46,46,0,0,0,12.79-11.14A46,46,0,0,1,410.81,559.13Z"/><path class="cls-2" d="M210.14,519.44s0,0,0,0c0-1,.1-1.89.16-2.83C210.24,517.58,210.14,518.52,210.14,519.44Z"/><path class="cls-2" d="M388.42,605c.53-.38,1.07-.74,1.58-1.13-.36.28-.76.5-1.14.77C388.71,604.7,388.58,604.84,388.42,605Z"/><path class="cls-2" d="M380.77,609.21l-.61.29c1.31-.57,2.61-1.14,3.85-1.82-.33.18-.68.31-1,.48C382.27,608.53,381.52,608.87,380.77,609.21Z"/><path class="cls-2" d="M395.39,599c-.25.26-.55.48-.81.74C394.84,599.51,395.14,599.29,395.39,599Z"/><path class="cls-2" d="M394.45,599.83c-.33.32-.67.63-1,.94.26-.25.55-.46.81-.71C394.32,600,394.37,599.91,394.45,599.83Z"/><path class="cls-2" d="M388.87,604.58l.19-.16c-.56.41-1.14.79-1.72,1.17l.15-.09C388,605.2,388.42,604.9,388.87,604.58Z"/><path class="cls-2" d="M374.84,611.46c-.54.13-1.08.27-1.55.41-.2.07-.41.07-.61.14a9.7,9.7,0,0,1-1.35.27,3.43,3.43,0,0,1-.81.13l-1.28.2-1.55.2a5.41,5.41,0,0,0-4.26,3c-.07.07-.07.2-.14.27-.24.5-.53,1-.81,1.44,0-.09.12-.17.17-.26l.1-.16a10,10,0,0,1,.54-.88c-.09.18-.21.34-.3.52a5.85,5.85,0,0,1,.36-.59c.07-.07.07-.2.13-.27a5.31,5.31,0,0,1,4.26-3l1.55-.2,1.28-.2c.27-.07.54-.07.81-.14.47-.07.88-.2,1.35-.27.2-.07.41-.07.61-.13.54-.14,1.08-.27,1.55-.41.07,0,.2-.07.27-.07.53-.16,1-.43,1.53-.6-.53.18-1.05.38-1.6.54C375,611.4,374.91,611.46,374.84,611.46Z"/><path class="cls-2" d="M383,608.15l.11-.06q-1.18.61-2.4,1.14l.06,0C381.52,608.87,382.27,608.52,383,608.15Z"/><path class="cls-2" d="M387.23,605.69c.26-.17.53-.31.79-.49-.17.11-.35.2-.52.31Z"/><path class="cls-2" d="M396.36,597.91c-.17.18-.3.4-.47.58C396.06,598.3,396.19,598.09,396.36,597.91Z"/><path class="cls-2" d="M399.11,594.43l.08-.12c-.47.64-1,1.23-1.48,1.84.13-.16.29-.31.42-.48C398.45,595.26,398.8,594.86,399.11,594.43Z"/><path class="cls-2" d="M393.44,600.78l-.5.44.23-.19Z"/><path class="cls-2" d="M391.37,602.71c-.2.17-.37.37-.58.53C391,603.07,391.17,602.87,391.37,602.71Z"/><path class="cls-2" d="M386,606.53c-.33.2-.63.46-1,.65C385.35,607,385.64,606.73,386,606.53Z"/><path class="cls-2" d="M400.18,593.08l.09-.11-.08.1Z"/><path class="cls-2" d="M406.66,578.28l0,.07c.26-1,.54-2,.73-3.11v0C407.18,576.29,406.91,577.28,406.66,578.28Z"/><path class="cls-2" d="M406.28,579.56l0-.08c-.34,1.22-.67,2.43-1.11,3.61h0C405.62,581.92,405.94,580.74,406.28,579.56Z"/><path class="cls-2" d="M407.9,570c.06-.92.28-1.8.28-2.74v-.07c0,.89-.21,1.72-.26,2.59C407.91,569.91,407.9,570,407.9,570Z"/><path class="cls-2" d="M407.76,571.37l0-.27c-.12,1.39-.17,2.79-.42,4.14v0C407.6,574,407.65,572.66,407.76,571.37Z"/><path class="cls-2" d="M404.65,584.84c.19-.46.26-1,.44-1.43h0C404.91,583.88,404.84,584.39,404.65,584.84Z"/><path class="cls-2" d="M309.26,640.33a46,46,0,0,1-16.43-8.52A45.42,45.42,0,0,0,309.26,640.33Z"/><path class="cls-2" d="M228.43,556.18q1.87,1.39,3.88,2.61c-.2-.14-.34-.27-.54-.41A36.69,36.69,0,0,1,228.43,556.18Z"/><path class="cls-2" d="M210.14,519.51s0,0,0,0h0S210.14,519.5,210.14,519.51Z"/><path class="cls-2" d="M210.87,511.72a44.87,44.87,0,0,0-.57,4.92c-.06.94-.16,1.87-.16,2.83h0A47.19,47.19,0,0,1,211.35,509C211.14,509.86,211,510.8,210.87,511.72Z"/><path class="cls-2" d="M357.34,625.3h0c.13-.16.25-.33.37-.49l0,0C357.61,624.94,357.49,625.13,357.34,625.3Z"/><path class="cls-2" d="M357.34,625.31a46.2,46.2,0,0,1-7.52,7.32,45.35,45.35,0,0,0,7.9-7.83c-.12.17-.24.34-.37.49Z"/><path class="cls-2" d="M360.26,621.35c.67-1,1.27-2.08,1.86-3.16.12-.21.23-.42.35-.63a46.39,46.39,0,0,1-4.72,7.2l.82-1.1C359.15,622.91,359.73,622.15,360.26,621.35Z"/><path class="cls-2" d="M362.64,617.31c0,.09-.12.17-.17.26s-.24.42-.35.63C362.29,617.89,362.47,617.61,362.64,617.31Z"/><path class="cls-2" d="M360.26,621.35l.06-.09c.48-.73.91-1.52,1.35-2.28l.44-.79C361.53,619.27,360.93,620.34,360.26,621.35Z"/><path class="cls-2" d="M357.75,624.76l0,0,.66-.88.19-.26Z"/><path class="cls-2" d="M362.74,617.14l-.1.16c.1-.19.25-.33.34-.52s.21-.34.3-.52A10,10,0,0,0,362.74,617.14Z"/><path class="cls-2" d="M362.12,618.19l-.44.79c.37-.64.78-1.24,1.13-1.91,0-.09.12-.19.18-.29-.09.19-.24.33-.34.52S362.29,617.89,362.12,618.19Z"/><path class="cls-2" d="M357.34,625.3l-.06.06.06-.06Z"/><path class="cls-2" d="M357.28,625.37a46.28,46.28,0,0,1-7.45,7.26,46.2,46.2,0,0,0,7.52-7.32Z"/><path class="cls-2" d="M357.35,625.29h0Z"/><path class="cls-2" d="M358.57,623.66h0c.57-.76,1.16-1.5,1.68-2.3h0C359.73,622.15,359.15,622.91,358.57,623.66Z"/><path class="cls-2" d="M360.26,621.35l.06-.09-.06.09Z"/><path class="cls-2" d="M358.38,623.92l.19-.26h0Z"/><path class="cls-2" d="M397.7,596.15a46.61,46.61,0,0,1-3.26,3.68c.38-.38.81-.71,1.18-1.1C396.38,597.93,397,597,397.7,596.15Z"/><path class="cls-2" d="M380.7,609.23a45.16,45.16,0,0,1-5.59,2.17c.54-.16,1.06-.36,1.6-.54,1.16-.39,2.28-.86,3.4-1.34C380.31,609.43,380.5,609.32,380.7,609.23Z"/><path class="cls-2" d="M408.11,567.24c0,1.31-.21,2.57-.32,3.85,0-.42.1-.83.13-1.26C408,569,408.11,568.13,408.11,567.24Z"/><path class="cls-2" d="M407.37,575.27v0c-.26,1.45-.68,2.84-1.07,4.24.11-.4.26-.79.37-1.19C406.91,577.28,407.19,576.29,407.37,575.27Z"/><path class="cls-2" d="M405.19,583.08c-.49,1.33-1.08,2.61-1.68,3.88.19-.39.44-.74.61-1.13.35-.79.66-1.6,1-2.41C405.13,583.31,405.15,583.19,405.19,583.08Z"/><path class="cls-2" d="M387,605.8l.29-.2a45.79,45.79,0,0,1-4.24,2.49c.33-.17.68-.3,1-.48C385.12,607.05,386.09,606.43,387,605.8Z"/><path class="cls-2" d="M392.94,601.22a46.45,46.45,0,0,1-3.88,3.2c.37-.27.77-.49,1.13-.77C391.16,602.9,392,602,392.94,601.22Z"/><path class="cls-2" d="M399.19,594.31c.31-.43.7-.79,1-1.23.12-.17.2-.36.32-.54.38-.58.64-1.25,1-1.85C400.76,591.92,400,593.15,399.19,594.31Z"/><path class="cls-2" d="M402.74,588.74c.5-.95.94-1.92,1.38-2.9-.17.39-.42.74-.61,1.13C403.23,587.54,403,588.17,402.74,588.74Z"/><path class="cls-2" d="M400.5,592.54c.8-1.21,1.52-2.46,2.21-3.74-.35.66-.82,1.25-1.21,1.9S400.88,592,400.5,592.54Z"/><path class="cls-2" d="M405.65,582c.4-1.19.69-2.42,1-3.65-.1.41-.25.8-.37,1.2C406,580.37,405.93,581.22,405.65,582Z"/><path class="cls-2" d="M398.87,594.81c.44-.58.9-1.13,1.31-1.73-.32.47-.73.88-1.07,1.35C399,594.55,399,594.69,398.87,594.81Z"/><path class="cls-2" d="M407.37,575.25c0-.09,0-.17.06-.25,0,.08,0,.15-.06.22S407.38,575.24,407.37,575.25Z"/><path class="cls-2" d="M402.74,588.74l0,.06Z"/><path class="cls-2" d="M405.65,582l0,0Z"/><path class="cls-2" d="M398.87,594.81l-.23.28Z"/><path class="cls-2" d="M405.09,583.41c.17-.46.39-.9.55-1.36-.12.35-.31.67-.44,1C405.16,583.18,405.13,583.3,405.09,583.41Z"/><path class="cls-2" d="M394.19,600.12c-.22.21-.45.41-.68.62C393.74,600.53,394,600.34,394.19,600.12Z"/><path class="cls-2" d="M407.48,574.79c0,.07,0,.14,0,.21S407.47,574.86,407.48,574.79Z"/><path class="cls-2" d="M388.42,605c-.13.09-.27.16-.4.25C388.14,605.11,388.29,605,388.42,605Z"/><path class="cls-2" d="M390,603.82c.26-.2.54-.38.79-.58-.19.15-.41.26-.6.41Z"/><path class="cls-2" d="M386,606.53c.43-.26.83-.57,1.25-.85l-.18.11C386.68,606,386.34,606.31,386,606.53Z"/><path class="cls-2" d="M384,607.67c.33-.18.68-.31,1-.49-.29.16-.61.27-.9.43Z"/><path class="cls-2" d="M378.66,610.2c.52-.2,1-.49,1.5-.71l-.05,0C379.61,609.72,379.16,610,378.66,610.2Z"/><path class="cls-2" d="M391.37,602.71c.75-.62,1.44-1.3,2.14-2-.11.1-.24.19-.35.29C392.56,601.59,392,602.19,391.37,602.71Z"/><path class="cls-2" d="M395.39,599l.5-.54c-.08.09-.18.16-.27.25S395.48,598.93,395.39,599Z"/><path class="cls-2" d="M396.36,597.91c.8-.9,1.55-1.85,2.28-2.81-.16.2-.35.37-.51.58C397.54,596.42,397,597.2,396.36,597.91Z"/><path class="cls-2" d="M407.48,574.79a46.09,46.09,0,0,0,.42-4.74c0,.45-.09.88-.13,1.32C407.66,572.51,407.67,573.67,407.48,574.79Z"/><path class="cls-2" d="M394.19,600.12c.13-.12.26-.23.39-.36-.11.11-.23.19-.34.3Z"/><path class="cls-2" d="M383.1,608.09l-.11.06c.33-.17.68-.3,1-.48l.1-.06C383.79,607.79,383.43,607.92,383.1,608.09Z"/><path class="cls-2" d="M383,608.15c-.73.37-1.48.72-2.23,1.06C381.52,608.87,382.27,608.53,383,608.15Z"/><path class="cls-2" d="M380.7,609.23c-.2.09-.39.2-.6.28l.05,0,.61-.29Z"/><path class="cls-2" d="M387.49,605.51c.17-.11.36-.19.52-.31s.27-.16.4-.25.29-.26.45-.37C388.42,604.9,388,605.2,387.49,605.51Z"/><path class="cls-2" d="M389.06,604.42l-.19.16c.37-.27.77-.49,1.14-.77l.19-.17C389.83,603.93,389.43,604.15,389.06,604.42Z"/><path class="cls-2" d="M387.34,605.6l-.29.2.18-.11.27-.18Z"/><path class="cls-2" d="M394.45,599.83c-.07.07-.13.16-.2.23.11-.11.23-.19.34-.3.26-.26.56-.48.81-.74.09-.09.15-.2.23-.29C395.26,599.13,394.83,599.46,394.45,599.83Z"/><path class="cls-2" d="M384.11,607.61c.29-.16.61-.26.9-.43s.63-.45,1-.65.71-.5,1.08-.74C386.09,606.43,385.12,607.05,384.11,607.61Z"/><path class="cls-2" d="M397.7,596.15c-.7.86-1.32,1.78-2.08,2.58.08-.09.18-.16.27-.25s.3-.39.47-.58c.63-.71,1.18-1.49,1.77-2.23C398,595.84,397.84,596,397.7,596.15Z"/><path class="cls-2" d="M399.19,594.31l-.08.12c.34-.46.74-.87,1.07-1.35h0C399.88,593.51,399.5,593.88,399.19,594.31Z"/><path class="cls-2" d="M392.94,601.22c-.9.82-1.78,1.67-2.74,2.43.19-.15.41-.26.6-.41s.38-.36.58-.53c.63-.52,1.19-1.12,1.79-1.68Z"/><path class="cls-2" d="M376.71,610.86c.65-.22,1.31-.41,2-.66s1-.48,1.44-.69C379,610,377.87,610.47,376.71,610.86Z"/><path class="cls-2" d="M407.37,575.23v0s0,0,0,0Z"/><path class="cls-2" d="M407.79,571.1l0,.27c0-.44.11-.88.13-1.32,0-.07,0-.14,0-.21C407.89,570.26,407.82,570.68,407.79,571.1Z"/><path class="cls-2" d="M406.3,579.47l0,.08c.11-.4.27-.79.37-1.2l0-.07C406.56,578.69,406.41,579.07,406.3,579.47Z"/><path class="cls-2" d="M405.19,583.08c0,.11-.06.23-.11.34h0c0-.11.07-.23.11-.34Z"/></g></svg>