<svg xmlns="http://www.w3.org/2000/svg" viewBox="0 0 960 960"><defs><style>.cls-1{fill:none;}.cls-2{fill:#9b1d53;}.cls-3{fill:#fff;}</style></defs><title>Battery-PiJuice-70</title><g id="Layer_2" data-name="Layer 2"><path class="cls-1" d="M146.43,343.31H307.87q-1.47-2.89-2.94-5.82c-1.28-2.57-2.57-5.07-3.86-7.64a5.38,5.38,0,0,1,2.43-7.17,5.71,5.71,0,0,1,2.3-.54h.07c5,0,10-.07,15-.07h7.51c2.5,0,5,.07,7.51.07H336a5.21,5.21,0,0,1,5.14,5.27l-.14,7.64-.14,7.64,0,.61H497.36V179.6H146.43Z"/><path class="cls-2" d="M432.58,504a46.08,46.08,0,0,0-43.14-62,45.7,45.7,0,0,0-23.06,6.22,8.07,8.07,0,0,1-10.14-1.62,46.12,46.12,0,0,0-68.7-.07h0l-.07.07a8.14,8.14,0,0,1-10.14,1.55,45.9,45.9,0,0,0-69,39.69v.07a39.79,39.79,0,0,0,.27,4.91,48,48,0,0,1,6-5.89c.28-.23.6-.46.89-.68.5-.39,1-.79,1.52-1.17a49.76,49.76,0,0,1,12.88-6.71C254,470,285.86,478,324.67,502.07c35.36,22,64.91,29.82,85.46,22.65a38.14,38.14,0,0,0,18.76-14,29.82,29.82,0,0,0,3.28-5.84C432.31,504.57,432.45,504.3,432.58,504Z"/><path class="cls-2" d="M404.12,585.84c.15-.34.39-.64.54-1s.26-1,.44-1.43C404.78,584.23,404.47,585,404.12,585.84Z"/><path class="cls-2" d="M488.57,121.11H453.5V88.38A40.38,40.38,0,0,0,413.12,48H230.68A40.38,40.38,0,0,0,190.3,88.38v32.73H155.23a67.28,67.28,0,0,0-67.28,67.28V711.82a67.28,67.28,0,0,0,67.28,67.28H488.57a67.28,67.28,0,0,0,67.28-67.28V188.39A67.28,67.28,0,0,0,488.57,121.11Zm8.79,222.2H340.88c-.06,2.36-.12,4.73-.19,7l-.2,7.64v.34a3.79,3.79,0,0,1-.88,2.37l-3.92,5c-1.35,1.69-2.64,3.38-4,5l-4,5L324.27,380c-.2,3.25-.34,6.49-.54,9.74l-.34,5.54-.41,5.54c-.27,3.65-.54,7.37-.88,11-.07,1-.13,2.1-.27,3.11h.07a62.35,62.35,0,0,1,42,16.3,62.26,62.26,0,0,1,84.72,76.2,65.79,65.79,0,0,1,1.15,12,61.76,61.76,0,0,1-25.49,50.17A62.25,62.25,0,0,1,375.18,628a62.19,62.19,0,0,1-106.69,0,62.26,62.26,0,0,1-49.09-58.35,61.9,61.9,0,0,1-24.27-62.27,59.54,59.54,0,0,1-3-19.47,62.29,62.29,0,0,1,87.83-56.66A62.29,62.29,0,0,1,317.78,415c-.34-.88-.68-1.83-1-2.7-1.29-3.58-2.57-7.17-3.85-10.82l-1.83-5.41-1.83-5.41c-1.22-3.58-2.37-7.23-3.52-10.89a2.88,2.88,0,0,1,.2-2.37l.2-.34c1.76-3.52,3.52-7.1,5.27-10.62l2.7-5.27c.47-1,.95-2,1.49-3-.95-1.83-1.89-3.65-2.91-5.54l-3.92-7.57c-.31-.6-.61-1.22-.92-1.82H146.43V179.6H497.36Z"/><path class="cls-2" d="M400.26,593c.1-.14.15-.31.25-.46-.12.18-.21.38-.33.57Z"/><path class="cls-2" d="M413.72,534.93c-24.07,8.38-55.92.41-94.73-23.66-35.36-22-64.91-29.82-85.46-22.65a38,38,0,0,0-18.91,14.14,29.24,29.24,0,0,0-3.06,5.47c-.07.2-.07.41-.14.61a45,45,0,0,0-1.22,10.55,46.32,46.32,0,0,0,15,33.94,50.67,50.67,0,0,0,7.17,5.34c.2.14.47.27.68.41a5.37,5.37,0,0,1,2.64,5,17.16,17.16,0,0,0,0,2.64V567a45.9,45.9,0,0,0,3.85,18.53c0,.07.07.07.07.14a14.47,14.47,0,0,0,.68,1.49c.27.47.47.95.74,1.42a.25.25,0,0,0,.07.2A46.08,46.08,0,0,0,261,608.22c.54.27,1.08.47,1.62.74l.47.2a9.29,9.29,0,0,0,1.22.54c.27.14.61.2.88.34s.61.2.88.34a9.85,9.85,0,0,0,1.28.47,1.59,1.59,0,0,1,.54.14c.54.13,1.15.34,1.69.47.14,0,.2.07.27.07.68.2,1.28.34,2,.47h.07c1.42.27,2.84.54,4.26.68a5.41,5.41,0,0,1,4.26,3,46,46,0,0,0,8.32,12l.07.07.95.95.34.34a6.1,6.1,0,0,1,.68.61c.2.2.47.41.68.61s.2.2.34.34c.34.27.61.54.95.81.07,0,.07.07.14.07a45.41,45.41,0,0,0,16.43,8.52h.07l1.42.41c.14,0,.27.07.41.07a6.31,6.31,0,0,0,1.08.27l.88.2c.2.07.4.07.61.14a9.69,9.69,0,0,0,1.49.27h.07a42.18,42.18,0,0,0,6.56.47h1.56c.47,0,.95-.07,1.42-.07h.2c.34,0,.74-.07,1.08-.07.14,0,.34-.07.54-.07s.47-.07.68-.07.61-.07.95-.14c.14,0,.2-.07.34-.07a45.87,45.87,0,0,0,19-7.44c.07,0,.07-.07.14-.07.34-.2.61-.47.95-.68a5.85,5.85,0,0,0,.68-.47c.14-.07.27-.2.41-.27a46,46,0,0,0,7.38-7.06c0-.05.1-.09.14-.14s.27-.35.4-.53a46.36,46.36,0,0,0,4.73-7.21c.28-.47.56-.93.8-1.43.07-.07.07-.2.14-.27a5.41,5.41,0,0,1,4.26-3l1.56-.2,1.28-.2a3.39,3.39,0,0,0,.81-.13,9.73,9.73,0,0,0,1.35-.27c.2-.07.41-.07.61-.14.47-.13,1-.27,1.56-.4.07,0,.2-.07.27-.07a45.13,45.13,0,0,0,5.58-2.16c.82-.36,1.63-.75,2.43-1.16a45.74,45.74,0,0,0,4.21-2.48c.59-.39,1.17-.77,1.74-1.19a46.37,46.37,0,0,0,3.86-3.19l.52-.46c.33-.31.68-.61,1-.93a46.66,46.66,0,0,0,3.26-3.68c.5-.61,1-1.21,1.48-1.84.84-1.16,1.57-2.39,2.31-3.63s1.39-2.44,2-3.71,1.2-2.56,1.69-3.9c.43-1.17.76-2.37,1.1-3.58.4-1.41.82-2.81,1.08-4.27s.29-2.72.41-4.08.32-2.58.32-3.9c0,.89-.15,1.74-.2,2.61.05-.88.26-1.72.26-2.61v-1.89a4.79,4.79,0,0,0-.07-.95l-.07-.2a5.38,5.38,0,0,1,1.59-4.13,5.24,5.24,0,0,1,1.19-.94,46.14,46.14,0,0,0,22.65-36.92A48.93,48.93,0,0,1,413.72,534.93Z"/><path class="cls-2" d="M407.37,575.26c-.18,1-.46,2-.71,3C406.91,577.28,407.18,576.3,407.37,575.26Z"/><path class="cls-3" d="M208.38,487.87a45.83,45.83,0,0,1,13.45-32.46,45.83,45.83,0,0,0-13.51,32.53s0,.07-.14.2c0,1.62.14,3.31.27,4.94l.2-.23a39.79,39.79,0,0,1-.27-4.91Z"/><path class="cls-3" d="M291,443.13a46.56,46.56,0,0,0-3.41,3.42h0A46.12,46.12,0,0,1,291,443.13Z"/><path class="cls-3" d="M408.11,564.4a4.79,4.79,0,0,1,.07.95v-.14c0-.34-.07-.61-.07-.95v-.14a5.66,5.66,0,0,1,1.52-4.06A5.38,5.38,0,0,0,408,564.2Z"/><path class="cls-3" d="M410.14,524.72c-20.55,7.17-50.1-.68-85.46-22.65C285.86,478,254,470,229.95,478.4a49.76,49.76,0,0,0-12.88,6.71,50,50,0,0,1,12.82-6.64c24.07-8.38,55.92-.41,94.73,23.67,35.36,22,64.91,29.82,85.46,22.65a38,38,0,0,0,18.83-14A38.14,38.14,0,0,1,410.14,524.72Z"/><path class="cls-3" d="M319.06,511.19c-35.36-22-64.91-29.82-85.46-22.65a37.93,37.93,0,0,0-19,14.21,38,38,0,0,1,18.91-14.14c20.55-7.17,50.1.68,85.46,22.65,38.81,24.07,70.66,32,94.73,23.66a48.93,48.93,0,0,0,19.74-12.71,46.28,46.28,0,0,1-9.92,25.85,46.38,46.38,0,0,0,10-25.92,48.92,48.92,0,0,1-19.74,12.71C389.72,543.24,357.87,535.26,319.06,511.19Z"/><path class="cls-3" d="M341,335.06l.14-7.64a5.21,5.21,0,0,0-5.14-5.27h-.14c-2.5,0-5-.07-7.51-.07h-7.51c-5,0-10,.07-15,.07h-.07a5.71,5.71,0,0,0-2.3.54,5.38,5.38,0,0,0-2.43,7.17c1.28,2.57,2.57,5.07,3.86,7.64q1.47,2.94,2.94,5.82h33l0-.61Z"/><path class="cls-3" d="M407.38,575.21c0-.08,0-.16.06-.25s0-.12,0-.18c.18-1.11.18-2.27.28-3.4C407.64,572.67,407.6,574,407.38,575.21Z"/><path class="cls-3" d="M401.5,590.68c.38-.64.85-1.23,1.21-1.89l0-.05c.3-.57.49-1.19.77-1.77C402.89,588.24,402.22,589.48,401.5,590.68Z"/><path class="cls-3" d="M405.2,583.06c.13-.35.32-.67.44-1v0c.27-.8.39-1.65.62-2.45C405.94,580.74,405.62,581.92,405.2,583.06Z"/><path class="cls-3" d="M393.45,600.77l-.28.26c.11-.1.24-.18.35-.29s.46-.41.68-.62l.05-.06C394,600.31,393.7,600.53,393.45,600.77Z"/><path class="cls-3" d="M398.13,595.67c.16-.2.35-.36.5-.56l.24-.3c.09-.12.15-.26.24-.38C398.8,594.86,398.45,595.26,398.13,595.67Z"/><path class="cls-3" d="M208.65,492.87a48.69,48.69,0,0,1,6-5.91,48,48,0,0,0-6,5.89Z"/><path class="cls-3" d="M277.34,448.18a8.14,8.14,0,0,0,10.14-1.55l.07-.07a8.13,8.13,0,0,1-10.14,1.55,45.88,45.88,0,0,0-55.59,7.3,45.88,45.88,0,0,1,55.52-7.23Z"/><path class="cls-3" d="M349.82,632.49c-.14.07-.27.2-.41.27a5.85,5.85,0,0,1-.68.47c-.34.2-.61.47-.95.68-.07,0-.07.07-.14.07a45.87,45.87,0,0,1-19,7.44c-.14,0-.2.07-.34.07-.34.07-.61.07-.95.14s-.47.07-.68.07-.41.07-.54.07c-.34,0-.74.07-1.08.07h-.2c-.47,0-.95.07-1.42.07H321.9a42.18,42.18,0,0,1-6.56-.47h-.07a9.69,9.69,0,0,1-1.49-.27c-.2-.07-.41-.07-.61-.14l-.88-.2a6.31,6.31,0,0,1-1.08-.27c-.14,0-.27-.07-.41-.07l-1.42-.41h-.07a45.41,45.41,0,0,1-16.43-8.52c-.07,0-.07-.07-.14-.07-.34-.27-.61-.54-.95-.81-.14-.14-.27-.2-.34-.34s-.47-.41-.68-.61a6.1,6.1,0,0,0-.68-.61l-.34-.34-.95-.95-.07-.07a46,46,0,0,1-8.32-12,5.41,5.41,0,0,0-4.26-3c-1.42-.13-2.84-.4-4.26-.68h-.07c-.68-.14-1.28-.27-2-.47-.07,0-.14-.07-.27-.07-.54-.14-1.15-.34-1.69-.47a1.59,1.59,0,0,0-.54-.14,9.85,9.85,0,0,1-1.28-.47c-.27-.14-.61-.2-.88-.34s-.61-.2-.88-.34a9.29,9.29,0,0,1-1.22-.54l-.47-.2c-.54-.27-1.08-.47-1.62-.74a46.08,46.08,0,0,1-19.95-19.41.25.25,0,0,1-.07-.2c-.27-.47-.47-.95-.74-1.42a14.47,14.47,0,0,1-.68-1.49c0-.07-.07-.07-.07-.14A45.9,45.9,0,0,1,235.69,567v-.34a17.16,17.16,0,0,1,0-2.64,5.37,5.37,0,0,0-2.64-5c-.2-.14-.47-.27-.68-.41a50.67,50.67,0,0,1-7.17-5.34,46.32,46.32,0,0,1-15-33.94,45,45,0,0,1,1.22-10.55c.07-.2.07-.41.14-.61a29.24,29.24,0,0,1,3.06-5.47,30.46,30.46,0,0,0-3.13,5.54c-.07.2-.07.41-.14.61-.22.94-.33,1.88-.49,2.83.16-.92.27-1.86.49-2.76a47.24,47.24,0,0,0-1.22,10.52,46.21,46.21,0,0,0,15,33.91,44.83,44.83,0,0,0,6.63,5c.2.14.34.27.54.41s.47.27.68.41a5.37,5.37,0,0,1,2.64,5,17.16,17.16,0,0,0,0,2.64v.34a45.9,45.9,0,0,0,3.85,18.53c0,.07.07.07.07.14.2.54.47,1,.68,1.49s.47.95.74,1.42a.25.25,0,0,1,.07.2,46.2,46.2,0,0,0,8.48,11.25A46.2,46.2,0,0,1,241.1,589,45.84,45.84,0,0,0,261,608.35a17.56,17.56,0,0,0,1.62.74l.47.2c.41.2.81.34,1.22.54s.61.2.88.34.61.2.88.34a9.87,9.87,0,0,1,1.28.47,1.62,1.62,0,0,0,.54.14,12.33,12.33,0,0,0,1.69.47c.07,0,.14.07.27.07.68.14,1.28.34,2,.47h.07c1.42.27,2.84.54,4.26.68a5.41,5.41,0,0,1,4.26,3,46,46,0,0,0,8.32,12l.07.07a12.49,12.49,0,0,0,.95.95l.34.34a6.1,6.1,0,0,0,.68.61c.2.2.47.41.68.61s.27.2.34.34c.34.27.61.54.95.81.07,0,.07.07.14.07a45.41,45.41,0,0,0,16.43,8.52h.07l1.42.41a.85.85,0,0,0,.4.07c.34.07.74.2,1.08.27l.88.2c.2.07.41.07.61.14.47.07,1,.2,1.49.27h.07a52.53,52.53,0,0,0,6.56.47h1.62c.47,0,.95-.07,1.42-.07h.2c.34,0,.74-.07,1.08-.07a1.32,1.32,0,0,0,.54-.07c.2,0,.47-.07.68-.07s.68-.07.95-.14a.61.61,0,0,0,.34-.07,45.52,45.52,0,0,0,19-7.44c.07,0,.07-.07.14-.07.34-.2.68-.47.95-.68a5.85,5.85,0,0,1,.68-.47c.14-.07.27-.2.41-.27a46.18,46.18,0,0,0,7.38-7.19A46,46,0,0,1,349.82,632.49Z"/><path class="cls-3" d="M410.81,559.13a5.24,5.24,0,0,0-1.19.94,5.44,5.44,0,0,1,1.12-.87,46.07,46.07,0,0,0,12.8-11.14A46,46,0,0,1,410.81,559.13Z"/><path class="cls-3" d="M210.14,519.44v0c0-1,.1-1.89.16-2.83C210.24,517.58,210.14,518.52,210.14,519.44Z"/><path class="cls-3" d="M388.87,604.58l.2-.16c-.57.41-1.15.8-1.74,1.19l.16-.1C388,605.2,388.42,604.9,388.87,604.58Z"/><path class="cls-3" d="M383,608.15l.11-.07c-.8.41-1.61.79-2.43,1.16l.07,0C381.52,608.87,382.27,608.52,383,608.15Z"/><path class="cls-3" d="M374.84,611.46c-.54.13-1.08.27-1.56.4-.2.07-.41.07-.61.14a9.73,9.73,0,0,1-1.35.27,3.39,3.39,0,0,1-.81.13l-1.28.2-1.56.2a5.41,5.41,0,0,0-4.26,3c-.07.07-.07.2-.14.27-.24.5-.53,1-.8,1.43,0-.09.12-.16.16-.25l.1-.17a10,10,0,0,1,.54-.88c-.09.18-.21.35-.3.53a5.83,5.83,0,0,1,.36-.59c.07-.07.07-.2.14-.27a5.31,5.31,0,0,1,4.26-3l1.56-.2,1.28-.2c.27-.07.54-.07.81-.14.47-.07.88-.2,1.35-.27.2-.07.41-.07.61-.14.54-.14,1.08-.27,1.56-.41.07,0,.2-.07.27-.07.53-.16,1-.43,1.53-.6-.53.18-1.05.38-1.59.54C375,611.4,374.91,611.46,374.84,611.46Z"/><path class="cls-3" d="M380.76,609.21l-.6.29c1.31-.57,2.61-1.14,3.85-1.82-.32.17-.67.31-1,.47C382.27,608.53,381.52,608.87,380.76,609.21Z"/><path class="cls-3" d="M387.23,605.68c.25-.16.51-.3.75-.46-.16.11-.34.19-.5.29Z"/><path class="cls-3" d="M388.42,604.95c.53-.37,1.06-.74,1.58-1.13-.36.27-.76.5-1.13.76C388.71,604.69,388.58,604.84,388.42,604.95Z"/><path class="cls-3" d="M394.45,599.83c-.32.32-.67.62-1,.93.26-.24.55-.46.8-.71C394.32,600,394.37,599.91,394.45,599.83Z"/><path class="cls-3" d="M395.39,599c-.25.26-.54.48-.8.74C394.84,599.5,395.14,599.29,395.39,599Z"/><path class="cls-3" d="M391.37,602.71c-.2.16-.37.36-.57.53C391,603.07,391.17,602.88,391.37,602.71Z"/><path class="cls-3" d="M400.17,593.09l.09-.11-.09.11Z"/><path class="cls-3" d="M396.38,597.88c-.17.2-.32.42-.5.61C396.07,598.29,396.21,598.07,396.38,597.88Z"/><path class="cls-3" d="M393.45,600.77l-.52.46.24-.2Z"/><path class="cls-3" d="M399.11,594.43l.08-.12c-.47.64-1,1.23-1.48,1.84.14-.17.29-.31.42-.48C398.45,595.26,398.8,594.86,399.11,594.43Z"/><path class="cls-3" d="M385.84,606.62c-.28.17-.54.39-.82.56C385.3,607,385.55,606.79,385.84,606.62Z"/><path class="cls-3" d="M404.65,584.84c.19-.46.27-1,.44-1.44h0C404.91,583.88,404.84,584.39,404.65,584.84Z"/><path class="cls-3" d="M406.66,578.29v.06c.26-1,.54-2,.73-3.11h0C407.18,576.3,406.91,577.28,406.66,578.29Z"/><path class="cls-3" d="M407.9,570.06c.06-.92.28-1.81.28-2.74v-.07c0,.89-.21,1.73-.26,2.61C407.91,569.93,407.9,570,407.9,570.06Z"/><path class="cls-3" d="M407.76,571.39l0-.25c-.12,1.37-.17,2.75-.41,4.08h0C407.6,574,407.64,572.67,407.76,571.39Z"/><path class="cls-3" d="M406.27,579.57l0-.07c-.34,1.2-.67,2.41-1.1,3.58h0C405.62,581.92,405.94,580.74,406.27,579.57Z"/><path class="cls-3" d="M309.26,640.33a46,46,0,0,1-16.43-8.52A45.41,45.41,0,0,0,309.26,640.33Z"/><path class="cls-3" d="M228.43,556.18q1.87,1.39,3.88,2.61c-.2-.14-.34-.27-.54-.41A36.77,36.77,0,0,1,228.43,556.18Z"/><path class="cls-3" d="M210.14,519.51v0h0Z"/><path class="cls-3" d="M210.87,511.72a45,45,0,0,0-.57,4.92c-.06.94-.16,1.87-.16,2.83h0A47.24,47.24,0,0,1,211.35,509C211.14,509.86,211,510.8,210.87,511.72Z"/><path class="cls-3" d="M357.35,625.3h0c.13-.16.25-.33.37-.5l0,0C357.61,624.94,357.49,625.13,357.35,625.3Z"/><path class="cls-3" d="M357.34,625.31a46.16,46.16,0,0,1-7.52,7.32,45.29,45.29,0,0,0,7.9-7.83c-.12.17-.24.34-.37.5Z"/><path class="cls-3" d="M362.12,618.2l.36-.63a46.36,46.36,0,0,1-4.73,7.21l.83-1.11c.44-.59.87-1.17,1.3-1.77.13-.18.27-.35.39-.53C360.93,620.34,361.53,619.27,362.12,618.2Z"/><path class="cls-3" d="M362.64,617.31c0,.09-.12.16-.16.25l-.36.63C362.28,617.9,362.47,617.61,362.64,617.31Z"/><path class="cls-3" d="M360.26,621.35l.06-.09c.48-.73.91-1.52,1.35-2.28l.44-.79C361.53,619.27,360.93,620.34,360.26,621.35Z"/><path class="cls-3" d="M357.75,624.77l0,0,.66-.88.19-.27Z"/><path class="cls-3" d="M362.74,617.14l-.1.17c.1-.19.25-.34.34-.52s.21-.34.3-.53A10,10,0,0,0,362.74,617.14Z"/><path class="cls-3" d="M362.12,618.2l-.44.79c.37-.64.78-1.24,1.13-1.9,0-.09.12-.19.18-.29-.1.19-.25.34-.34.52S362.28,617.9,362.12,618.2Z"/><path class="cls-3" d="M357.35,625.3c0,.05-.1.09-.14.14l.13-.13Z"/><path class="cls-3" d="M357.21,625.44a46.18,46.18,0,0,1-7.38,7.19,46.16,46.16,0,0,0,7.52-7.32Z"/><path class="cls-3" d="M357.35,625.29h0Z"/><path class="cls-3" d="M359.87,621.88c.13-.18.27-.34.39-.53h0C360.14,621.54,360,621.7,359.87,621.88Z"/><path class="cls-3" d="M360.26,621.36l.07-.09-.06.09Z"/><path class="cls-3" d="M358.38,623.92q.76-1,1.49-2c-.42.6-.86,1.19-1.3,1.77Z"/><path class="cls-3" d="M392.93,601.23a46.37,46.37,0,0,1-3.86,3.19c.37-.27.77-.49,1.13-.77C391.15,602.9,392,602.05,392.93,601.23Z"/><path class="cls-3" d="M397.7,596.15a46.66,46.66,0,0,1-3.26,3.68c.38-.38.81-.71,1.17-1.1C396.38,597.93,397,597,397.7,596.15Z"/><path class="cls-3" d="M380.69,609.24a45.13,45.13,0,0,1-5.58,2.16c.54-.16,1.06-.36,1.59-.54,1.16-.39,2.28-.86,3.39-1.34C380.3,609.43,380.49,609.33,380.69,609.24Z"/><path class="cls-3" d="M387,605.8l.29-.2a45.74,45.74,0,0,1-4.21,2.48c.33-.17.68-.3,1-.48C385.12,607.05,386.08,606.43,387,605.8Z"/><path class="cls-3" d="M405.19,583.07c-.49,1.33-1.08,2.62-1.69,3.9.19-.39.44-.74.61-1.13.35-.79.67-1.6,1-2.42C405.13,583.3,405.15,583.18,405.19,583.07Z"/><path class="cls-3" d="M407.37,575.26s0,0,0,0c-.26,1.46-.69,2.86-1.08,4.27.11-.41.27-.79.37-1.2C406.91,577.29,407.19,576.29,407.37,575.26Z"/><path class="cls-3" d="M399.19,594.31c.31-.42.69-.79,1-1.23.12-.18.21-.38.33-.57.38-.58.63-1.24,1-1.83C400.76,591.92,400,593.15,399.19,594.31Z"/><path class="cls-3" d="M408.11,567.24c0,1.32-.21,2.6-.32,3.9,0-.43.1-.85.13-1.29C408,569,408.11,568.13,408.11,567.24Z"/><path class="cls-3" d="M405.65,582v0Z"/><path class="cls-3" d="M398.87,594.81l-.24.3Z"/><path class="cls-3" d="M388.42,604.95c-.14.1-.29.17-.43.27C388.13,605.12,388.28,605,388.42,604.95Z"/><path class="cls-3" d="M402.74,588.74l0,.05Z"/><path class="cls-3" d="M407.48,574.79c0,.06,0,.12,0,.18S407.47,574.85,407.48,574.79Z"/><path class="cls-3" d="M394.19,600.12c-.22.21-.45.41-.68.62C393.74,600.53,394,600.34,394.19,600.12Z"/><path class="cls-3" d="M402.74,588.74c.5-.95.94-1.92,1.38-2.9-.18.4-.42.74-.61,1.13C403.23,587.55,403,588.17,402.74,588.74Z"/><path class="cls-3" d="M390,603.82c.26-.2.54-.38.8-.58-.19.15-.41.27-.61.41Z"/><path class="cls-3" d="M400.51,592.52c.79-1.2,1.52-2.45,2.19-3.72-.35.66-.82,1.25-1.21,1.89S400.89,591.94,400.51,592.52Z"/><path class="cls-3" d="M398.87,594.81c.43-.58.9-1.12,1.3-1.72-.32.47-.72.88-1.06,1.34C399,594.55,399,594.69,398.87,594.81Z"/><path class="cls-3" d="M394.19,600.12c.13-.13.27-.24.4-.36-.11.11-.24.2-.34.3Z"/><path class="cls-3" d="M391.37,602.71c.75-.62,1.44-1.3,2.15-2-.11.1-.24.19-.35.29C392.56,601.59,392,602.19,391.37,602.71Z"/><path class="cls-3" d="M396.38,597.88c.79-.89,1.52-1.82,2.24-2.77-.15.2-.34.37-.5.56C397.55,596.41,397,597.18,396.38,597.88Z"/><path class="cls-3" d="M405.09,583.4c.17-.46.39-.9.55-1.37-.12.35-.31.67-.44,1C405.16,583.17,405.14,583.29,405.09,583.4Z"/><path class="cls-3" d="M407.37,575.25c0-.1.05-.19.07-.28,0,.08,0,.16-.06.25S407.37,575.24,407.37,575.25Z"/><path class="cls-3" d="M378.66,610.2c.52-.2,1-.49,1.49-.71l-.05,0C379.61,609.73,379.16,610,378.66,610.2Z"/><path class="cls-3" d="M407.48,574.79a46.22,46.22,0,0,0,.42-4.73c0,.45-.09.89-.14,1.34C407.66,572.52,407.66,573.68,407.48,574.79Z"/><path class="cls-3" d="M405.65,582c.4-1.19.69-2.42,1-3.65-.1.41-.26.8-.37,1.21C406,580.38,405.92,581.22,405.65,582Z"/><path class="cls-3" d="M395.39,599l.5-.54c-.08.09-.18.16-.27.25S395.47,598.94,395.39,599Z"/><path class="cls-3" d="M384,607.67c.33-.18.69-.31,1-.5-.29.16-.61.27-.9.43Z"/><path class="cls-3" d="M385.84,606.62c.48-.29.93-.63,1.4-.94l-.19.12C386.63,606.07,386.26,606.37,385.84,606.62Z"/><path class="cls-3" d="M383.12,608.08l-.11.07c.33-.17.68-.3,1-.47l.11-.07C383.79,607.78,383.44,607.91,383.12,608.08Z"/><path class="cls-3" d="M387.49,605.51c.16-.11.34-.18.5-.29s.29-.17.43-.27.29-.26.45-.37C388.42,604.9,388,605.2,387.49,605.51Z"/><path class="cls-3" d="M387.33,605.61l-.29.2.19-.12.25-.17Z"/><path class="cls-3" d="M383,608.15c-.74.38-1.49.73-2.25,1.06C381.52,608.87,382.27,608.53,383,608.15Z"/><path class="cls-3" d="M394.45,599.83c-.07.07-.13.16-.2.23.11-.11.24-.2.34-.3s.55-.47.8-.74c.08-.09.15-.2.23-.29C395.25,599.13,394.83,599.46,394.45,599.83Z"/><path class="cls-3" d="M380.69,609.24c-.2.09-.39.19-.59.28l.05,0,.6-.29Z"/><path class="cls-3" d="M389.06,604.42l-.2.16c.37-.27.77-.49,1.13-.76l.19-.17C389.83,603.93,389.43,604.15,389.06,604.42Z"/><path class="cls-3" d="M399.19,594.31l-.08.12c.34-.46.74-.87,1.06-1.34h0C399.88,593.52,399.5,593.88,399.19,594.31Z"/><path class="cls-3" d="M392.93,601.23c-.9.82-1.77,1.67-2.74,2.42.19-.15.42-.26.61-.41s.37-.36.57-.53c.63-.52,1.19-1.12,1.8-1.68Z"/><path class="cls-3" d="M376.71,610.86c.65-.22,1.31-.41,2-.66s.95-.48,1.44-.69C379,610,377.87,610.47,376.71,610.86Z"/><path class="cls-3" d="M397.7,596.15c-.7.86-1.33,1.78-2.08,2.59.08-.09.18-.16.27-.25s.32-.42.5-.61c.62-.7,1.16-1.47,1.74-2.21C398,595.84,397.84,596,397.7,596.15Z"/><path class="cls-3" d="M384.11,607.61c.29-.16.61-.26.9-.43s.54-.38.82-.56.79-.56,1.2-.82C386.08,606.43,385.12,607.05,384.11,607.61Z"/><path class="cls-3" d="M407.78,571.14l0,.25c0-.45.11-.89.14-1.34,0-.07,0-.13,0-.2C407.89,570.29,407.82,570.71,407.78,571.14Z"/><path class="cls-3" d="M406.29,579.5l0,.07c.12-.41.27-.8.37-1.21v-.06C406.56,578.7,406.4,579.09,406.29,579.5Z"/><path class="cls-3" d="M405.19,583.07c0,.11-.06.23-.1.34h0c0-.11.06-.23.1-.34Z"/><path class="cls-3" d="M407.37,575.23s0,0,0,0h0s0,0,0,0Z"/><path class="cls-2" d="M705.12,701.09c0,48.89-30.07,94.24-78.47,118.31l-11.82,5.88C565.21,850,504.48,848.61,456.37,821.6a146.09,146.09,0,0,1-47.72-42.5H330.32C347.72,821.28,379.73,858,422.51,882c35.6,20,76.08,30,116.62,30a239.55,239.55,0,0,0,106.56-24.73l11.8-5.87c72.09-35.89,116.87-105,116.87-180.31v-251H705.12Z"/><path class="cls-2" d="M855.24,257.44h-31.1V175.58a16.82,16.82,0,0,0-16.82-16.82H773.7a16.82,16.82,0,0,0-16.82,16.82v81.86h-32V175.58a16.82,16.82,0,0,0-16.82-16.82H674.48a16.82,16.82,0,0,0-16.82,16.82v81.86H624.26a16.82,16.82,0,0,0-16.82,16.82v33.63a16.82,16.82,0,0,0,16.82,16.82h17.47v72a53.38,53.38,0,0,0,53.38,53.38h89.29a53.38,53.38,0,0,0,53.38-53.38v-72h17.47a16.82,16.82,0,0,0,16.82-16.82V274.26A16.82,16.82,0,0,0,855.24,257.44Z"/><path class="cls-2" d="M340.9,342.7l.14-7.64.14-7.64a5.21,5.21,0,0,0-5.14-5.27h-.14c-2.5,0-5-.07-7.51-.07h-7.51c-5,0-10,.07-15,.07h-.07a5.71,5.71,0,0,0-2.3.54,5.38,5.38,0,0,0-2.43,7.17c1.28,2.57,2.57,5.07,3.86,7.64q1.47,2.94,2.94,5.82h33Z"/></g></svg>