<svg xmlns="http://www.w3.org/2000/svg" viewBox="0 0 960 960"><defs><style>.cls-1{fill:#9b1d53;}.cls-2{fill:none;}.cls-3{fill:#aaa;}.cls-4{fill:#fff;}</style></defs><title>BatteryBattery-Connection-Error</title><g id="Layer_2" data-name="Layer 2"><path class="cls-1" d="M596,163.41c-36.32-15.64-77.35-23.53-125.43-24.12-31.36.6-60.93,6.31-87.91,17C338.09,173.9,305,199.2,281.57,233.62c-15.13,22.21-23,46.19-23.37,71.29-.24,15.5,4.34,27.48,14,36.64,6.9,6.54,15.3,10.68,25.7,12.65,18.76,3.56,33.42,1.22,46.14-7.37,8-5.39,14.52-13.4,20.55-25.2,2.79-5.45,5.52-11.08,8.16-16.53,3-6.19,6.11-12.6,9.35-18.85,13.14-25.35,30.39-41.21,52.75-48.47A128.75,128.75,0,0,1,475,231.54a158.51,158.51,0,0,1,21.92,1.58c17.26,2.41,31.95,8,44.89,17.24,35.64,25.3,40.12,80.23,20.32,112.44-13.73,22.33-32.77,38.52-51.1,53.19-5.52,4.42-11.17,8.81-16.64,13.06-19.28,15-39.21,30.45-55.52,49-19.6,22.27-29.2,45.08-29.33,69.74-.12,22.84,8.2,39.31,25.43,50.34,10,6.37,21.67,8.34,38,6.38,14.67-1.76,23.21-5.62,28.56-12.91a114.27,114.27,0,0,0,14.58-26.75c7.72-20.38,18.61-43.36,40.93-59.3,12.88-9.2,25.85-18.78,38.39-28l11.22-8.29c26.16-19.27,44.41-35.89,59.18-53.89,23.78-29,35.55-59.33,36-92.77C702.28,284,693,251.74,673.57,224,655.09,197.75,629.72,177.92,596,163.41Z"/><path class="cls-1" d="M466.62,681.34a70.22,70.22,0,1,0,70.22,70.22A70.3,70.3,0,0,0,466.62,681.34Z"/><path class="cls-2" d="M281.64,532.12v0h0A.26.26,0,0,1,281.64,532.12Z"/><path class="cls-2" d="M279,484.85h0a86.45,86.45,0,0,1,10.67-10.48A87.48,87.48,0,0,0,279,484.85Z"/><path class="cls-2" d="M626.72,648.43l.15-.34.08-.2Z"/><path class="cls-3" d="M278.16,476.46c0,2.88.24,5.88.48,8.76l.36-.4a70.3,70.3,0,0,1-.48-8.72V476a81.34,81.34,0,0,1,23.86-57.61,81.34,81.34,0,0,0-24,57.73S278.4,476.22,278.16,476.46Z"/><path class="cls-3" d="M419,402.66c.66-.74,1.35-1.44,2-2.15-.69.71-1.38,1.42-2,2.15Z"/><path class="cls-3" d="M633.12,613.17c0,.11,0,.23,0,.33v-.24S633.12,613.2,633.12,613.17Z"/><path class="cls-3" d="M633,611.34a10,10,0,0,1,2.69-7.21,9.54,9.54,0,0,0-2.81,7.33l.12.36c0,.12,0,.24,0,.36a5.84,5.84,0,0,1,0-.6Z"/><path class="cls-3" d="M636.48,541.5a67.37,67.37,0,0,0,33.41-24.92,67.69,67.69,0,0,1-33.29,24.8c-23.17,8.08-52.8,5.39-87.41-7.63l-.1.13C583.69,546.89,613.31,549.58,636.48,541.5Z"/><path class="cls-3" d="M425.66,470.37l.11-.12c-42.7-17.69-79.19-21.44-109-11.07a88.28,88.28,0,0,0-22.87,11.9,88.76,88.76,0,0,1,22.75-11.78C346.46,448.93,383,452.68,425.66,470.37Z"/><path class="cls-3" d="M323.28,477.18A67.32,67.32,0,0,0,289.6,502.4a67.36,67.36,0,0,1,33.56-25.1c23.89-8.33,54.63-5.23,90.63,8.85l.09-.13C377.9,471.95,347.17,468.85,323.28,477.18Z"/><path class="cls-3" d="M678,536.94a82.12,82.12,0,0,1-17.61,45.87,82.3,82.3,0,0,0,17.73-46Z"/><path class="cls-3" d="M538.81,550.21l-.07.14c40.66,16,75.55,19.14,104.22,9.15a86.93,86.93,0,0,0,33.56-21,86.93,86.93,0,0,1-33.44,20.91C614.4,569.37,579.5,566.25,538.81,550.21Z"/><path class="cls-3" d="M626.71,648.44l.15-.34-.15.34Z"/><path class="cls-3" d="M710.4,476.1a109.8,109.8,0,0,0-22-66q-5.05,7.4-11,14.68-3.71,4.52-7.71,8.93a82,82,0,0,1,6.84,70.8c-.24.48-.48,1.08-.72,1.56a53.4,53.4,0,0,1-5.95,10.48,67.37,67.37,0,0,1-33.41,24.92c-23.17,8.08-52.79,5.39-87.39-7.62a104.73,104.73,0,0,0-10.28,16.33c40.68,16,75.59,19.16,104.27,9.17a86.93,86.93,0,0,0,33.44-20.91q.76-.76,1.48-1.53h0l.12-.12a82.54,82.54,0,0,1-40.44,65.76,9.59,9.59,0,0,0-2,1.55,10,10,0,0,0-2.69,7.21v.24a5.84,5.84,0,0,0,0,.6,8.46,8.46,0,0,1,.07,1s0,.06,0,.09V617c0,.26,0,.51,0,.77,0,.84,0,1.68-.06,2.51,0,.65-.07,1.29-.12,1.93,0,.46-.06.91-.09,1.37-.06.72-.13,1.43-.21,2.15,0,.37-.08.74-.13,1.11q-.14,1.13-.31,2.24c0,.32-.1.64-.15,1-.13.78-.26,1.55-.42,2.32-.05.26-.11.52-.16.78-.17.82-.34,1.63-.53,2.44l-.09.36q-.84,3.46-2,6.81c-.24.72-.48,1.44-.74,2.15l-.1.25q-.51,1.4-1.08,2.77l-.08.2-.15.34q-.71,1.71-1.51,3.38l0,.08c-.49,1-1,2-1.54,3.05-.33.62-.67,1.23-1,1.84l-.55,1a81.8,81.8,0,0,1-14.27,18.15c-.7.68-1.42,1.35-2.15,2l-.84.74-1.19,1c-.79.66-1.59,1.29-2.41,1.92a80.67,80.67,0,0,1-26.66,13.76c-.12,0-.36.12-.48.12-.84.24-1.8.48-2.76.72-.36.12-.72.12-1.08.24-.84.12-1.56.36-2.4.48-.48.12-1,.12-1.44.24l-2.28.36-2.76.36a9.43,9.43,0,0,0-7.56,5.4c-.12.12-.12.36-.24.48a10.3,10.3,0,0,0-.65,1.05,81.79,81.79,0,0,1-8.13,12.87,84.71,84.71,0,0,1,7.05,33.9s0,0,0,.07a110.71,110.71,0,0,0,22.73-27,110.48,110.48,0,0,0,87.12-103.68,109.61,109.61,0,0,0,45.24-89,116.73,116.73,0,0,0-2-21.24A111.41,111.41,0,0,0,710.4,476.1Z"/><path class="cls-3" d="M398.76,697.74c-2.52-.24-5-.72-7.56-1.2h-.12c-1.2-.24-2.28-.6-3.48-.84-.24,0-.36-.12-.48-.12a21.87,21.87,0,0,1-3-.84,2.83,2.83,0,0,1-1-.24,17.51,17.51,0,0,0-2.28-.84c-.48-.24-1.08-.36-1.56-.6s-1.08-.36-1.56-.6c-.72-.36-1.44-.6-2.16-1-.24-.12-.6-.24-.84-.36a30.78,30.78,0,0,1-2.88-1.32,81.36,81.36,0,0,1-20.34-14.47A81.34,81.34,0,0,0,372,689.94a82.46,82.46,0,0,1-35.52-34.56.44.44,0,0,0-.12-.36c-.48-.84-.84-1.68-1.32-2.52s-.84-1.68-1.2-2.64c0-.12-.12-.12-.12-.24a81.45,81.45,0,0,1-6.84-32.88v-.6a30.43,30.43,0,0,1,0-4.68,9.53,9.53,0,0,0-4.68-8.88c-.36-.24-.84-.48-1.2-.72q-3.56-2.16-6.88-4.64a66.31,66.31,0,0,1-5.84-4.84,67.79,67.79,0,0,0,5.84,4.84,65.18,65.18,0,0,0,5.92,3.92,79.46,79.46,0,0,1-11.76-8.88,82,82,0,0,1-26.64-60.18h0s0,0,0,0,0,0,0,0h0v0a.26.26,0,0,0,0,0s0,0,0-.06,0-.29,0-.43a83.74,83.74,0,0,1,1.84-16.74c.09-.52.19-1,.31-1.54.12-.36.12-.72.24-1.08a54.09,54.09,0,0,1,5.56-9.82,67.32,67.32,0,0,1,33.68-25.22c23.89-8.33,54.61-5.23,90.6,8.84a157.45,157.45,0,0,1,11.78-15.65c-42.71-17.69-79.2-21.45-109-11.07a88.76,88.76,0,0,0-22.75,11.78c-.94.68-1.8,1.38-2.69,2.08-.52.41-1.08.8-1.57,1.22A86.45,86.45,0,0,0,279,484.86h0a.16.16,0,0,0,0,0l-.36.4c-.24-2.88-.48-5.88-.48-8.76.24-.24.24-.36.24-.36A81.64,81.64,0,0,1,401,405.42a14.44,14.44,0,0,0,17.11-1.86c.27-.25.53-.51.77-.78l.12-.12c.66-.74,1.35-1.44,2-2.15,1.3-1.35,2.63-2.67,4-3.92a81.66,81.66,0,0,1,97-9.63A170.57,170.57,0,0,0,542,365.57a110.51,110.51,0,0,0-62-19.07h-.12c.24-1.8.36-3.72.48-5.52.6-6.48,1.08-13.08,1.56-19.56l.72-9.84.6-9.84c.36-5.76.6-11.52,1-17.28l6.12-7.56L497.4,268c2.4-2.88,4.68-5.88,7.08-8.88l6-7.71A97.56,97.56,0,0,0,494.87,248a137.79,137.79,0,0,0-26.43-1.24c-.79,1.51-1.52,3-2.23,4.5l-4.8,9.36c-3.12,6.24-6.24,12.6-9.36,18.84l-.36.6a5.1,5.1,0,0,0-.36,4.2c2,6.48,4.08,13,6.24,19.32l3.24,9.6,3.24,9.6c2.28,6.48,4.56,12.84,6.84,19.2.6,1.56,1.2,3.24,1.8,4.8a110.56,110.56,0,0,0-67.2,28.68A111,111,0,0,0,360,365.7c-60.84,0-110.4,49.44-110.4,110.28a105.7,105.7,0,0,0,5.4,34.56,109.86,109.86,0,0,0,43.08,110.52A110.49,110.49,0,0,0,385.2,724.62l.38.62a85.11,85.11,0,0,1,14.76-27.16A9.32,9.32,0,0,0,398.76,697.74Z"/><path class="cls-3" d="M421.08,400.51c1.3-1.35,2.63-2.67,4-3.92C423.71,397.84,422.38,399.16,421.08,400.51Z"/><path class="cls-3" d="M289.67,474.38c.5-.41,1.06-.81,1.57-1.22C290.73,473.57,290.17,474,289.67,474.38Z"/><path class="cls-3" d="M676.53,538.47q.76-.76,1.48-1.52h0Q677.28,537.7,676.53,538.47Z"/><path class="cls-3" d="M289.67,474.38A85.22,85.22,0,0,0,279,484.82v0A87.48,87.48,0,0,1,289.67,474.38Z"/><path class="cls-3" d="M279,484.85v0a.16.16,0,0,1,0,0Z"/><path class="cls-3" d="M291.25,473.16c.89-.69,1.75-1.4,2.69-2.08C293,471.77,292.13,472.46,291.25,473.16Z"/><path class="cls-3" d="M425.1,396.59a81.68,81.68,0,0,1,96.9-9.52l.13-.12a81.66,81.66,0,0,0-97,9.63Z"/><path class="cls-3" d="M676.56,504.54a82,82,0,0,0-6.84-70.8l-.12.13a81.11,81.11,0,0,1,11.88,42.36,82.11,82.11,0,0,1-5,28.44c-.24.48-.48,1-.72,1.56a52.88,52.88,0,0,1-5.83,10.36,53.4,53.4,0,0,0,5.95-10.48C676.08,505.62,676.32,505,676.56,504.54Z"/><path class="cls-3" d="M401,405.42a81.42,81.42,0,0,0-98.65,13,81.42,81.42,0,0,1,98.53-12.83,14.43,14.43,0,0,0,17.23-2A14.44,14.44,0,0,1,401,405.42Z"/><path class="cls-3" d="M418.15,403.56q.46-.43.89-.9l-.12.12C418.67,403.06,418.41,403.31,418.15,403.56Z"/><path class="cls-3" d="M283.8,513.3c-.12.51-.22,1-.31,1.54.1-.47.2-.95.31-1.42-.2.84-.35,1.7-.49,2.57.19-.94.39-1.88.61-2.81.12-.36.12-.72.24-1.08a52,52,0,0,1,5.44-9.7,54.09,54.09,0,0,0-5.56,9.82C283.92,512.58,283.92,512.94,283.8,513.3Z"/><path class="cls-3" d="M281.7,530.6c0,.49-.05,1-.05,1.48h0a82,82,0,0,0,26.64,60.18A79.46,79.46,0,0,0,320,601.14c.36.24.6.48,1,.72s.84.48,1.2.72a9.53,9.53,0,0,1,4.68,8.88,30.43,30.43,0,0,0,0,4.68v.6a81.45,81.45,0,0,0,6.84,32.88c0,.12.12.12.12.24.36,1,.84,1.8,1.2,2.64s.84,1.68,1.32,2.52a.44.44,0,0,1,.12.36,82,82,0,0,0,15.06,20A81.94,81.94,0,0,1,336.6,655.5a81.36,81.36,0,0,0,35.28,34.32,30.78,30.78,0,0,0,2.88,1.32c.24.12.6.24.84.36.72.36,1.44.6,2.16,1,.48.24,1.08.36,1.56.6s1.08.36,1.56.6a17.51,17.51,0,0,1,2.28.84,2.83,2.83,0,0,0,1,.24,21.87,21.87,0,0,0,3,.84c.12,0,.24.12.48.12,1.2.24,2.28.6,3.48.84h.12c2.52.48,5,1,7.56,1.2a9.32,9.32,0,0,1,1.59.34l.17-.22a9.33,9.33,0,0,0-1.64-.35c-2.52-.24-5-.72-7.56-1.2h-.12c-1.2-.24-2.28-.48-3.48-.84-.12,0-.24-.12-.48-.12-1-.24-2-.6-3-.84a2.83,2.83,0,0,0-1-.24,17.48,17.48,0,0,1-2.28-.84c-.48-.24-1.08-.36-1.56-.6s-1.08-.36-1.56-.6a16.91,16.91,0,0,1-2.16-1c-.24-.12-.6-.24-.84-.36-1-.48-1.92-.84-2.88-1.32a81.77,81.77,0,0,1-35.4-34.44.44.44,0,0,1-.12-.36c-.48-.84-.84-1.68-1.32-2.52a25.49,25.49,0,0,1-1.2-2.64c0-.12-.12-.12-.12-.24A81.46,81.46,0,0,1,327,616.5v-.6a30.54,30.54,0,0,1,0-4.68,9.53,9.53,0,0,0-4.68-8.88c-.36-.24-.84-.48-1.2-.72a89.88,89.88,0,0,1-12.72-9.48,82.21,82.21,0,0,1-26.64-60.24c0-1.24,0-2.47.09-3.69,0,.59-.09,1.17-.13,1.76C281.71,530.18,281.71,530.39,281.7,530.6Z"/><path class="cls-3" d="M660.39,582.81a81.61,81.61,0,0,1-22.59,19.65,9.26,9.26,0,0,0-2.11,1.67,9.59,9.59,0,0,1,2-1.55A81.73,81.73,0,0,0,660.39,582.81Z"/><path class="cls-3" d="M281.66,531.58c0,.14,0,.29,0,.43s0,0,0,.06h0C281.65,531.92,281.65,531.75,281.66,531.58Z"/><path class="cls-3" d="M553.44,703.86c-.16.32-.36.61-.53.93a10.3,10.3,0,0,1,.65-1.05c.12-.12.12-.36.24-.48a9.43,9.43,0,0,1,7.56-5.4l2.76-.36,2.28-.36c.48-.12,1-.12,1.44-.24.84-.12,1.56-.36,2.4-.48.36-.12.72-.12,1.08-.24,1-.24,1.92-.48,2.76-.72.12,0,.36-.12.48-.12a80.67,80.67,0,0,0,26.66-13.76,81.43,81.43,0,0,1-8.31,5.63l-.27.15q-1.25.73-2.52,1.42l-.6.32c-.95.5-1.9,1-2.87,1.45l-.13.06c-.82.39-1.65.76-2.48,1.12l-.4.18q-1.44.62-2.91,1.18-3.09,1.18-6.29,2.12c-.12,0-.36.12-.48.12-1,.24-1.92.48-2.76.72-.36.12-.72.12-1.08.24a17,17,0,0,1-2.4.48,6,6,0,0,1-1.44.24l-2.28.36-2.76.36a9.61,9.61,0,0,0-7.56,5.4c-.12.12-.12.36-.24.48-.62,1.27-1.38,2.44-2.06,3.67.35-.64.77-1.22,1.1-1.87A18,18,0,0,1,553.44,703.86Z"/><path class="cls-3" d="M626.87,648.09l.08-.2h0Z"/><path class="cls-3" d="M632.93,622.19c0-.64.09-1.29.12-1.93C633,620.91,633,621.55,632.93,622.19Z"/><path class="cls-3" d="M633.12,616.86c0,.3,0,.59,0,.89,0-.26,0-.51,0-.77Z"/><path class="cls-3" d="M630.92,635.55c.19-.81.37-1.62.53-2.44C631.28,633.93,631.11,634.74,630.92,635.55Z"/><path class="cls-3" d="M631.61,632.34c.15-.77.29-1.54.42-2.32C631.9,630.79,631.76,631.57,631.61,632.34Z"/><path class="cls-3" d="M632.18,629.06q.17-1.12.31-2.24Q632.35,627.94,632.18,629.06Z"/><path class="cls-3" d="M628.85,642.72q1.13-3.35,2-6.81-.69,2.86-1.58,5.64c-.09.29-.2.58-.29.88Z"/><path class="cls-3" d="M632.62,625.71c.08-.71.15-1.43.21-2.15C632.78,624.28,632.7,625,632.62,625.71Z"/><path class="cls-3" d="M632.84,623.56c0-.45.06-.91.09-1.37C632.9,622.65,632.87,623.11,632.84,623.56Z"/><path class="cls-3" d="M632,630c.05-.32.1-.64.15-1C632.13,629.38,632.08,629.7,632,630Z"/><path class="cls-3" d="M633,620.26c0-.83,0-1.67.06-2.51C633.1,618.59,633.08,619.43,633,620.26Z"/><path class="cls-3" d="M631.45,633.12c.05-.26.11-.52.16-.78C631.56,632.6,631.5,632.86,631.45,633.12Z"/><path class="cls-3" d="M630.83,635.91l.09-.36Z"/><path class="cls-3" d="M632.49,626.82c0-.37.09-.74.13-1.11C632.58,626.08,632.54,626.45,632.49,626.82Z"/><path class="cls-3" d="M314.12,597.22q3.32,2.47,6.88,4.64c-.36-.24-.6-.48-1-.72A65.18,65.18,0,0,1,314.12,597.22Z"/><path class="cls-3" d="M314.12,597.22a67.79,67.79,0,0,1-5.84-4.84A66.31,66.31,0,0,0,314.12,597.22Z"/><path class="cls-3" d="M281.65,532.09s0,0,0,0S281.65,532.11,281.65,532.09Z"/><polygon class="cls-3" points="281.65 532.09 281.65 532.08 281.65 532.09 281.65 532.09"/><path class="cls-3" d="M281.85,528.16c0-.37.06-.74.08-1.11a79.69,79.69,0,0,1,1-8.74c.12-.71.22-1.42.33-2.13A79.63,79.63,0,0,0,281.85,528.16Z"/><path class="cls-3" d="M282.94,518.31c.13-.77.25-1.55.37-2.33l0,.2C283.17,516.89,283.06,517.6,282.94,518.31Z"/><path class="cls-3" d="M283.5,514.84q-.12.67-.22,1.34l0-.2c.14-.86.29-1.72.49-2.57C283.7,513.89,283.6,514.37,283.5,514.84Z"/><path class="cls-3" d="M281.73,530c0-.6.08-1.2.13-1.81a79.63,79.63,0,0,1,1.42-12q.1-.67.22-1.34a83.74,83.74,0,0,0-1.84,16.74c0-.33,0-.66,0-1S281.71,530.18,281.73,530Z"/><path class="cls-3" d="M281.85,528.21c0-.38.06-.77.08-1.16,0,.37-.05.74-.08,1.11Z"/><path class="cls-3" d="M281.73,530c0-.59.08-1.17.13-1.76v0C281.81,528.76,281.76,529.37,281.73,530Z"/><path class="cls-3" d="M281.7,530.6c0,.33,0,.66,0,1,0,.16,0,.33,0,.49C281.65,531.58,281.67,531.09,281.7,530.6Z"/><path class="cls-3" d="M281.73,530c0,.21,0,.42,0,.63C281.71,530.39,281.71,530.18,281.73,530Z"/><path class="cls-3" d="M282.94,518.31a79.69,79.69,0,0,0-1,8.74A83.55,83.55,0,0,1,282.94,518.31Z"/><path class="cls-3" d="M550.6,708.68l-.07.12v0Z"/><path class="cls-3" d="M549.6,710.43l0,.06c-.44.76-.88,1.52-1.36,2.24C548.69,712,549.15,711.21,549.6,710.43Z"/><path class="cls-3" d="M551.38,707.28c-.28.51-.57,1-.86,1.52l.07-.12C550.87,708.22,551.13,707.75,551.38,707.28Z"/><path class="cls-3" d="M549.56,710.49c-.48.81-1,1.62-1.48,2.4l.12-.16C548.68,712,549.12,711.25,549.56,710.49Z"/><path class="cls-3" d="M550.52,708.82v0l-1,1.69,0-.06Z"/><path class="cls-3" d="M544.75,717.44l0,.05h0Z"/><path class="cls-3" d="M550.6,708.68l-.08.14-.92,1.61c-.45.78-.9,1.55-1.4,2.3-1.07,1.63-2.26,3.15-3.43,4.69l-.05.07.07.16a81.79,81.79,0,0,0,8.13-12.87c-.1.17-.23.35-.31.51C552,706.47,551.26,707.55,550.6,708.68Z"/><path class="cls-3" d="M532,731l.18-.15,1-.85.21-.19v0C532.89,730.16,532.44,730.57,532,731Z"/><path class="cls-3" d="M531.38,731.46l.59-.5-1,.85Z"/><path class="cls-3" d="M530.93,731.81c-.45.37-.91.73-1.37,1.09C530,732.55,530.48,732.18,530.93,731.81Z"/><path class="cls-3" d="M544.71,717.5l.05-.07v0l0,.05Z"/><path class="cls-3" d="M552.6,705.3c.08-.16.21-.33.31-.51s.37-.61.53-.93a18,18,0,0,0-1,1.56c-.33.65-.75,1.23-1.1,1.87-.26.47-.52.93-.78,1.4C551.26,707.55,552,706.47,552.6,705.3Z"/><path class="cls-3" d="M548.2,712.73l-.12.16c-.94,1.41-2,2.74-3,4.08l-.33.45C545.94,715.89,547.12,714.37,548.2,712.73Z"/><path class="cls-3" d="M545.09,717c1-1.34,2.05-2.67,3-4.08C547.15,714.31,546.11,715.63,545.09,717Z"/><path class="cls-3" d="M545.09,717l-.34.47v0Z"/><path class="cls-3" d="M583.65,691.92l.4-.18c.83-.36,1.66-.73,2.48-1.12l.13-.06c1-.46,1.93-1,2.87-1.45l.6-.32q1.27-.69,2.52-1.42l.27-.15A81.41,81.41,0,0,0,606.65,677l.24-.23q1.19-1.11,2.34-2.26l0,0c.66-.66,1.3-1.34,1.94-2l.43-.47q.81-.89,1.6-1.8l.69-.82c.44-.53.89-1.06,1.32-1.6s.63-.82.95-1.23.68-.88,1-1.32c.64-.87,1.27-1.76,1.88-2.66s1.35-2.06,2-3.12l.42-.7q.79-1.33,1.54-2.68l.32-.58q1.84-3.42,3.36-7l.23-.53c.38-.93.74-1.87,1.09-2.81.29-.78.56-1.57.82-2.37l.1-.3c.1-.29.2-.58.29-.88A81,81,0,0,0,633,616.86a82.08,82.08,0,0,1-58.56,78.36q3.21-.93,6.29-2.12Q582.21,692.54,583.65,691.92Z"/><path class="cls-3" d="M628.12,644.87c.26-.71.5-1.43.74-2.15-.27.79-.53,1.58-.82,2.37Z"/><path class="cls-3" d="M619.07,662.53c.69-1,1.35-2.06,2-3.12C620.43,660.46,619.77,661.5,619.07,662.53Z"/><path class="cls-3" d="M621.49,658.71l.57-1,.55-1L623,656Q622.29,657.38,621.49,658.71Z"/><path class="cls-3" d="M623.35,655.44l.27-.5c.53-1,1.05-2,1.54-3.05l0-.08q.79-1.67,1.51-3.38h0Q625.2,652,623.35,655.44Z"/><path class="cls-3" d="M621.07,659.41c-.65,1.05-1.31,2.1-2,3.12s-1.23,1.78-1.88,2.66c-.33.45-.67.88-1,1.32s-.62.82-.95,1.23-.87,1.07-1.32,1.6l-.69.82q-.79.91-1.6,1.8l-.43.47c-.64.69-1.28,1.37-1.94,2l0,0c-.47.48-1,.95-1.44,1.41a81.8,81.8,0,0,0,14.27-18.15l-.57,1Z"/><path class="cls-3" d="M623,656l-.42.76c.34-.61.69-1.22,1-1.84l-.27.5Z"/><path class="cls-3" d="M606.65,677l.24-.23Z"/><path class="cls-3" d="M625.17,651.89c-.49,1-1,2-1.54,3.05C624.16,653.94,624.68,652.92,625.17,651.89Z"/><path class="cls-3" d="M622.61,656.79l-.55,1Z"/><path class="cls-3" d="M621.07,659.41l.42-.7Z"/><path class="cls-3" d="M623,656l.32-.58Z"/><path class="cls-3" d="M592.91,687.21a81.43,81.43,0,0,0,8.31-5.63c.81-.63,1.62-1.26,2.41-1.92l1.19-1,.84-.74c.34-.3.66-.62,1-.93A81.41,81.41,0,0,1,592.91,687.21Z"/><path class="cls-3" d="M589.53,689.1c-.95.5-1.9,1-2.87,1.45C587.62,690.09,588.58,689.6,589.53,689.1Z"/><path class="cls-3" d="M592.64,687.37q-1.25.73-2.52,1.42Q591.4,688.09,592.64,687.37Z"/><path class="cls-3" d="M606.89,676.75l.9-.85c.48-.47,1-.94,1.44-1.41Q608.09,675.65,606.89,676.75Z"/><path class="cls-3" d="M603.62,679.66c-.79.66-1.6,1.29-2.41,1.92C602,681,602.84,680.32,603.62,679.66Z"/><path class="cls-3" d="M592.91,687.21l-.27.15Z"/><path class="cls-3" d="M590.12,688.78l-.6.32Z"/><path class="cls-3" d="M606.65,677c-.33.31-.66.63-1,.93.73-.65,1.44-1.33,2.15-2l-.9.85Z"/><path class="cls-3" d="M626.94,647.9h0q.56-1.37,1.08-2.77v0C627.68,646,627.32,647,626.94,647.9Z"/><path class="cls-3" d="M628,645.12l.1-.25-.08.22Z"/><path class="cls-4" d="M533.81,729.36a82.34,82.34,0,0,0,6-5.91q1.58-1.73,3.07-3.55a81.94,81.94,0,0,1-9.59,9.72l0,.13Z"/><path class="cls-4" d="M543.86,718.66c-.31.42-.62.84-1,1.25l0,0C543.25,719.49,543.55,719.08,543.86,718.66Z"/><path class="cls-4" d="M543.91,718.58c.26-.36.53-.73.8-1.09h0c-.28.37-.55.74-.82,1.11Z"/><path class="cls-4" d="M543.91,718.58l0,0c-.31.43-.63.86-1,1.27q-1.51,1.83-3.1,3.57a82.1,82.1,0,0,1-6,5.91,81.46,81.46,0,0,0,11-11.7l-.07-.16Z"/><path class="cls-4" d="M533.36,729.76v0l.16-.14.29-.27Z"/><path class="cls-4" d="M543.89,718.61l0,0,0,0Z"/><path class="cls-4" d="M543.89,718.62l0,0c-.3.42-.6.83-.93,1.22C543.26,719.47,543.58,719,543.89,718.62Z"/><path class="cls-4" d="M543.91,718.58l0,0h0Z"/><path class="cls-4" d="M544.71,717.5c-.27.36-.54.72-.8,1.09l.8-1.09Z"/><path class="cls-4" d="M542.92,719.88l0,0q-1.49,1.82-3.07,3.55Q541.42,721.72,542.92,719.88Z"/><path class="cls-4" d="M533.52,729.63l.29-.27h0Z"/></g></svg>