<svg xmlns="http://www.w3.org/2000/svg" viewBox="0 0 960 960"><defs><style>.cls-1{fill:none;}.cls-2{fill:#9b1d53;}.cls-3{fill:#fff;}</style></defs><title>Battery-Raspberry-70</title><g id="Layer_2" data-name="Layer 2"><path class="cls-1" d="M238.74,340.79a16.47,16.47,0,0,1,2.54,2.53h7.57A60.08,60.08,0,0,0,238.74,340.79Z"/><path class="cls-1" d="M249.55,338.19c1.51,1.71,4.16,3.42,3.72,5.12h10C260.15,341.41,256.72,339.55,249.55,338.19Z"/><path class="cls-1" d="M275.93,339.36c1.06,1.85,1.11,3,.78,4h4.78A34.91,34.91,0,0,0,275.93,339.36Z"/><path class="cls-1" d="M262.78,337.6c1.49,1.84,3.33,3.65,1.9,5.71h7.87A31.69,31.69,0,0,0,262.78,337.6Z"/><path class="cls-1" d="M405.76,340.78a60.16,60.16,0,0,0-10.12,2.53h7.58A16.45,16.45,0,0,1,405.76,340.78Z"/><path class="cls-1" d="M395,338.19c-7.17,1.36-10.61,3.22-13.67,5.13h10C390.8,341.6,393.45,339.9,395,338.19Z"/><path class="cls-1" d="M357.1,341.87c-.58.47-1,1-1.49,1.44H357A12.86,12.86,0,0,0,357.1,341.87Z"/><path class="cls-1" d="M368.58,339.36a34.87,34.87,0,0,0-5.56,4h4.79C367.47,342.39,367.52,341.21,368.58,339.36Z"/><path class="cls-1" d="M381.73,337.6a31.68,31.68,0,0,0-9.78,5.71h7.87C378.4,341.26,380.24,339.44,381.73,337.6Z"/><path class="cls-1" d="M287.51,343.31h1.38c-.53-.47-.91-1-1.48-1.44A12.8,12.8,0,0,0,287.51,343.31Z"/><path class="cls-1" d="M146.43,343.31h60.9c2-1.78,4.87-3,9.29-2.44,4.38-6.54,13.94-5.05,15.42-5,1.65-2.1,3.84-3.9,10.55-3,4.35-3.94,9.21-3.27,14.23-1.33a9.28,9.28,0,0,1,5.53-2.29h0c3.2-.1,5.92,1.84,8.87,2.78,7.22-2.36,8.86.87,12.41,2.19,7.87-1.66,10.26,2,14,5.78l4.39-.09a31.66,31.66,0,0,1,4.23,3.46h31.22a31.74,31.74,0,0,1,4.23-3.46l4.39.09c3.77-3.82,6.16-7.44,14-5.78,3.54-1.32,5.19-4.54,12.41-2.19,4.5-1.43,8.45-5.19,14.4-.49,5-1.94,9.88-2.61,14.23,1.33,6.72-.87,8.9.93,10.55,3,1.48,0,11-1.51,15.42,5,4.42-.52,7.3.66,9.3,2.44h60.9V179.6H146.43Z"/><path class="cls-2" d="M488.57,121.11H155.23a67.28,67.28,0,0,0-67.28,67.28V711.82a67.28,67.28,0,0,0,67.28,67.28H488.57a67.28,67.28,0,0,0,67.28-67.28V188.39A67.28,67.28,0,0,0,488.57,121.11Zm8.79,222.2h-60.9c3,2.66,3.62,7,1.26,11.3,2.25,3.48,4.58,6.92-.68,13.56,1.86,3.7.71,7.71-3.68,12.57,1.16,5.2-1.12,8.87-5.2,11.73.76,7.11-6.52,11.25-8.7,12.73-.84,4.15-2.58,8.06-10.9,10.22-1.37,6.18-6.37,7.25-11.22,8.54,16,9.31,29.74,21.56,29.65,51.6l2.35,4.18c18.36,11.16,34.88,47.05,9,76.22-1.69,9.13-4.52,15.69-7,22.95-3.77,29.25-28.36,42.94-34.85,44.56-9.51,7.24-19.63,14.11-33.33,18.92-12.91,13.32-26.9,18.4-41,18.39h-.62c-14.07,0-28.06-5.07-41-18.39-13.7-4.81-23.82-11.68-33.33-18.92-6.49-1.62-31.08-15.31-34.85-44.56-2.52-7.26-5.35-13.82-7-22.95-25.83-29.17-9.31-65.05,9-76.22l2.35-4.18c-.09-30,13.64-42.29,29.65-51.6-4.84-1.3-9.85-2.36-11.22-8.54-8.32-2.16-10.07-6.07-10.9-10.22-2.18-1.47-9.46-5.61-8.7-12.73-4.08-2.86-6.35-6.53-5.2-11.73-4.38-4.86-5.54-8.87-3.68-12.57-5.26-6.64-2.93-10.08-.68-13.56-2.36-4.35-1.73-8.64,1.26-11.3h-60.9V179.6H497.36Z"/><path class="cls-2" d="M376.62,567.57h0C365,581.24,358.46,606.17,367,614.2c8.14,6.24,30,5.37,46.13-17,11.72-15,7.79-40.16,1.1-46.83C404.25,542.65,390,552.5,376.62,567.57Z"/><path class="cls-2" d="M387,534.9c15.62-10.24,18.44-33.44,6.29-51.82s-34.66-25-50.29-14.76-18.44,33.44-6.29,51.82S371.39,545.14,387,534.9Z"/><path class="cls-2" d="M346.38,353.09c-.7-.51-1.3-2.22-1.84-4.94-10.61,10.29-25.59,36.21-3.85,46.48,18.49-15.26,40.58-26.35,65.07-34.67C374.28,376.19,356,389.32,346,400.5c5.13,20.58,31.92,21.52,41.71,20.94-2-.93-3.68-2.05-4.27-3.77,2.46-1.75,11.17-.18,17.25-3.6-2.34-.48-3.43-1-4.52-2.68,5.75-1.83,11.94-3.41,15.58-6.45-2,0-3.8.44-6.37-1.34,5.15-2.77,10.64-5,14.91-9.21-2.66-.06-5.53,0-6.37-1a57.43,57.43,0,0,0,12-9.72c-3.73.45-5.3.06-6.2-.59,3.56-3.65,8.07-6.73,10.22-11.22-2.77,1-5.3,1.32-7.12-.08,1.21-2.73,6.4-4.34,9.38-10.72-2.91.28-6,.63-6.62,0,1.35-5.51,3.67-8.6,5.95-11.81-6.23-.09-15.67,0-15.24-.5l3.85-3.94c-6.09-1.64-12.31.26-16.83,1.68-1.18-.93-.9-2,0-3.17h-7.58c-1.26.39-2.77.53-4,1a1.58,1.58,0,0,1-.45-1h-10l-1.07.65c-.24-.23-.24-.43-.4-.65h-7.87c-.9.74-1.76,1.49-2.62,2.25a9.3,9.3,0,0,1-1.53-2.25H363a28.83,28.83,0,0,0-4.32,4.67c-2.06-1.31-1.88-3-1.7-4.67h-1.38C352.08,346.51,349.39,349.82,346.38,353.09Z"/><path class="cls-2" d="M322.83,615.25c-15.05-.38-38.14,6-37.86,14.24-.24,5.6,18.12,21.75,36.85,20.94,18.08.31,36.77-15.81,36.52-22.95C358.3,620.13,338,614.59,322.83,615.25Z"/><path class="cls-2" d="M321.89,368.41c1.81-6.33,6.72-17.58,15.62-25.09H306.29C315.18,350.83,320.08,362.08,321.89,368.41Z"/><path class="cls-2" d="M425.72,549.68c15.1-12.14,20-47.71-8-63.69C400.82,481.47,412,555.77,425.72,549.68Z"/><path class="cls-2" d="M360.38,430.65c-10.72,1.8,51.4,56,52.35,43.94C413.71,443,389.49,425.74,360.38,430.65Z"/><path class="cls-2" d="M321.89,462.28c20.9.15,34.24-7.71,34.31-17.42.08-11-19-22.67-34.43-22.5-17.37-.45-34,12.9-34.09,20.64C287.64,452.41,301.42,462,321.89,462.28Z"/><path class="cls-2" d="M266.88,571.69c-12.38-14.36-28.46-22.92-38.86-16.58-7,5.3-8.24,23.32,1.67,41,14.7,21.11,35.37,23.23,43.89,18.09,9-6.73,4.08-29.55-6.7-42.55Z"/><path class="cls-2" d="M280,429.73c-29.11-4.91-53.33,12.38-52.35,43.95C228.56,485.77,290.68,431.53,280,429.73Z"/><path class="cls-2" d="M307.14,522c12.15-18.38,9.33-41.59-6.29-51.82s-38.14-3.63-50.29,14.76-9.33,41.58,6.29,51.82S295,540.38,307.14,522Z"/><path class="cls-2" d="M222.77,486.91c-28,16-23.13,51.54-8,63.69C228.46,556.69,239.64,482.39,222.77,486.91Z"/><path class="cls-2" d="M322.47,534.55c-20.82.1-37.62,15.75-37.51,35,0,.12,0,.24,0,.37.11,19.2,17.08,34.69,37.9,34.58s37.61-15.75,37.51-35v-.37C360.26,549.93,343.29,534.45,322.47,534.55Z"/><path class="cls-2" d="M285.81,348a28.87,28.87,0,0,0-4.32-4.68h-4.78a9.27,9.27,0,0,1-1.53,2.25c-.86-.75-1.72-1.5-2.62-2.25h-7.87c-.15.22-.16.43-.4.66l-1.07-.66h-10a1.59,1.59,0,0,1-.45,1c-1.19-.46-2.7-.6-4-1h-7.57c.87,1.15,1.16,2.23,0,3.17-4.52-1.41-10.75-3.31-16.83-1.68l3.85,3.94c.43.53-9,.41-15.24.5,2.27,3.21,4.59,6.3,5.94,11.81-.62.63-3.71.28-6.62,0,3,6.38,8.17,8,9.38,10.72-1.82,1.4-4.35,1-7.12.08,2.15,4.5,6.66,7.57,10.22,11.22-.9.65-2.47,1-6.2.59a57.43,57.43,0,0,0,12,9.72c-.83,1-3.7.94-6.37,1,4.27,4.24,9.76,6.44,14.91,9.21-2.57,1.78-4.4,1.36-6.37,1.34,3.64,3,9.83,4.62,15.58,6.45-1.09,1.72-2.19,2.2-4.52,2.68,6.08,3.42,14.8,1.85,17.25,3.6-.59,1.72-2.27,2.84-4.27,3.77,9.79.58,36.58-.36,41.71-20.94-10-11.18-28.31-24.3-59.76-40.52,24.47,8.32,46.55,19.41,65,34.66,21.74-10.28,6.75-36.19-3.85-46.48-.54,2.72-1.15,4.44-1.84,4.94-3-3.27-5.7-6.59-9.24-9.79h-1.38C287.69,345,287.87,346.68,285.81,348Z"/><path class="cls-3" d="M411.74,335.85c-1.65-2.1-3.84-3.9-10.55-3-4.35-3.94-9.21-3.27-14.23-1.33-6-4.7-9.9-.93-14.4.49-7.21-2.36-8.86.87-12.41,2.19-7.87-1.66-10.26,2-14,5.78l-4.39-.09a31.74,31.74,0,0,0-4.23,3.46h18.11c.53-.48.91-1,1.49-1.44a12.86,12.86,0,0,1-.11,1.44h6a34.87,34.87,0,0,1,5.56-4c-1.06,1.85-1.11,3-.78,4h4.15a31.68,31.68,0,0,1,9.78-5.71c-1.49,1.84-3.33,3.66-1.9,5.71h1.46c3.07-1.91,6.5-3.77,13.67-5.13-1.51,1.71-4.16,3.42-3.72,5.13h4.4a60.16,60.16,0,0,1,10.12-2.53,16.45,16.45,0,0,0-2.54,2.53h33.24c-2-1.78-4.87-3-9.3-2.44C422.78,334.33,413.22,335.82,411.74,335.85Z"/><polygon class="cls-3" points="262.36 329.2 262.36 329.2 262.36 329.2 262.36 329.2"/><path class="cls-3" d="M238.74,340.79a60.08,60.08,0,0,1,10.11,2.53h4.42c.44-1.71-2.21-3.42-3.72-5.12,7.17,1.36,10.6,3.22,13.67,5.12h1.47c1.42-2.06-.42-3.87-1.9-5.71a31.69,31.69,0,0,1,9.77,5.71h4.15c.33-.92.28-2.1-.78-4a34.91,34.91,0,0,1,5.56,4h6a12.8,12.8,0,0,1-.1-1.44c.57.47,1,1,1.48,1.44h17.4a31.66,31.66,0,0,0-4.23-3.46l-4.39.09c-3.78-3.82-6.17-7.44-14-5.78-3.54-1.32-5.19-4.54-12.41-2.19-3-.93-5.67-2.88-8.87-2.78a9.28,9.28,0,0,0-5.53,2.29c-5-1.93-9.88-2.61-14.23,1.33-6.72-.87-8.9.93-10.55,3-1.47,0-11-1.52-15.42,5-4.42-.52-7.29.66-9.29,2.44h33.95A16.47,16.47,0,0,0,238.74,340.79Z"/><path class="cls-3" d="M395.65,343.31h-4.4a1.58,1.58,0,0,0,.45,1C392.88,343.84,394.39,343.7,395.65,343.31Z"/><path class="cls-3" d="M358.69,348a28.83,28.83,0,0,1,4.32-4.67h-6C356.82,345,356.64,346.68,358.69,348Z"/><path class="cls-3" d="M264.69,343.31h-1.47l1.07.66C264.53,343.74,264.54,343.53,264.69,343.31Z"/><path class="cls-3" d="M381.29,343.31h-1.46c.15.22.16.43.4.65Z"/><path class="cls-3" d="M276.71,343.31h-4.15c.9.74,1.76,1.5,2.62,2.25A9.27,9.27,0,0,0,276.71,343.31Z"/><path class="cls-3" d="M253.27,343.31h-4.42c1.26.39,2.77.53,4,1A1.59,1.59,0,0,0,253.27,343.31Z"/><path class="cls-3" d="M371.95,343.31H367.8a9.3,9.3,0,0,0,1.53,2.25C370.19,344.81,371.05,344.06,371.95,343.31Z"/><path class="cls-3" d="M285.81,348c2.06-1.31,1.88-3,1.7-4.68h-6A28.87,28.87,0,0,1,285.81,348Z"/><path class="cls-2" d="M453.5,88.38A40.38,40.38,0,0,0,413.12,48H230.68A40.38,40.38,0,0,0,190.3,88.38v32.73H453.5Z"/><path class="cls-2" d="M330.32,779.1C347.72,821.28,379.73,858,422.51,882c35.6,20,76.08,30,116.62,30a239.55,239.55,0,0,0,106.56-24.73l11.8-5.87c72.09-35.89,116.87-105,116.87-180.31v-251H705.12v251c0,48.89-30.07,94.24-78.47,118.31l-11.82,5.88C565.21,850,504.48,848.61,456.37,821.6a146.09,146.09,0,0,1-47.72-42.5"/><path class="cls-2" d="M855.24,257.44h-31.1V175.58a16.82,16.82,0,0,0-16.82-16.82H773.7a16.82,16.82,0,0,0-16.82,16.82v81.86h-32V175.58a16.82,16.82,0,0,0-16.82-16.82H674.48a16.82,16.82,0,0,0-16.82,16.82v81.86H624.26a16.82,16.82,0,0,0-16.82,16.82v33.63a16.82,16.82,0,0,0,16.82,16.82h17.47v72a53.38,53.38,0,0,0,53.38,53.38h89.29a53.38,53.38,0,0,0,53.38-53.38v-72h17.47a16.82,16.82,0,0,0,16.82-16.82V274.26A16.82,16.82,0,0,0,855.24,257.44Z"/><path class="cls-2" d="M238.74,340.79a60.08,60.08,0,0,1,10.11,2.53h4.42c.44-1.71-2.21-3.42-3.72-5.12,7.17,1.36,10.6,3.22,13.67,5.12h1.47c1.42-2.06-.42-3.87-1.9-5.71a31.69,31.69,0,0,1,9.77,5.71h4.15c.33-.92.28-2.1-.78-4a34.91,34.91,0,0,1,5.56,4h6a12.8,12.8,0,0,1-.1-1.44c.57.47,1,1,1.48,1.44h17.4a31.66,31.66,0,0,0-4.23-3.46l-4.39.09c-3.78-3.82-6.17-7.44-14-5.78-3.54-1.32-5.19-4.54-12.41-2.19-3-.93-5.67-2.88-8.87-2.78a9.28,9.28,0,0,0-5.53,2.29c-5-1.93-9.88-2.61-14.23,1.33-6.72-.87-8.9.93-10.55,3-1.47,0-11-1.52-15.42,5-4.42-.52-7.29.66-9.29,2.44h33.95A16.47,16.47,0,0,0,238.74,340.79Z"/><path class="cls-2" d="M357.1,341.87a12.86,12.86,0,0,1-.11,1.44h6a34.87,34.87,0,0,1,5.56-4c-1.06,1.85-1.11,3-.78,4h4.15a31.68,31.68,0,0,1,9.78-5.71c-1.49,1.84-3.33,3.66-1.9,5.71h1.46c3.07-1.91,6.5-3.77,13.67-5.13-1.51,1.71-4.16,3.42-3.72,5.13h4.4a60.16,60.16,0,0,1,10.12-2.53,16.45,16.45,0,0,0-2.54,2.53h33.24c-2-1.78-4.87-3-9.3-2.44-4.38-6.54-13.94-5.05-15.42-5-1.65-2.1-3.84-3.9-10.55-3-4.35-3.94-9.21-3.27-14.23-1.33-6-4.7-9.9-.93-14.4.49-7.21-2.36-8.86.87-12.41,2.19-7.87-1.66-10.26,2-14,5.78l-4.39-.09a31.74,31.74,0,0,0-4.23,3.46h18.11C356.14,342.84,356.53,342.34,357.1,341.87Z"/></g></svg>